<svg xmlns="http://www.w3.org/2000/svg" width="64" height="64" viewBox="0 0 64 64"><path fill="#c4a2fc" d="M61,33H54.10059c-.32858-.36215-9.06173-9.07739-12.04-12.0603a1.49946,1.49946,0,0,0-2.1211,0C37.37242,23.5107,28.253,32.61027,27.89941,33H21a2,2,0,0,0-2,2v6a1,1,0,0,0,1,1H62a1,1,0,0,0,1-1V35A2,2,0,0,0,61,33ZM32.12134,33,41,24.12134,49.87866,33Z"></path><path fill="#c4a2fc" d="M22.76465,60.42383A3.01478,3.01478,0,0,0,25.73438,63H56.26563a3.01478,3.01478,0,0,0,2.96972-2.57568L61.58185,44H20.41815ZM47,49h7a1,1,0,0,1,0,2H47a1,1,0,0,1,0-2ZM28,56H54a1,1,0,0,1,0,2H28a1,1,0,0,1,0-2Z"></path><path fill="#151a6a" d="M39.63721,24.12024C47.17,23.0567,51,21.33667,51,19c0-2.48816-4.49652-4.01532-10.01886-4.90637A.93234.93234,0,0,0,41,14V8a7.00818,7.00818,0,0,0-7-7H18a7.00818,7.00818,0,0,0-7,7v6a.92916.92916,0,0,0,.01892.09363C5.49652,14.98468,1,16.51184,1,19c0,2.33667,3.83,4.0567,11.36279,5.12024A14.027,14.027,0,0,0,18.82611,33H18A13.01474,13.01474,0,0,0,5,46v4a.99974.99974,0,0,0,1,1H46a.99974.99974,0,0,0,1-1V46A13.01474,13.01474,0,0,0,34,33h-.82611A14.027,14.027,0,0,0,39.63721,24.12024ZM18,3H34a4.99536,4.99536,0,0,1,4.97876,4.78961A100.49644,100.49644,0,0,0,26,7a100.49644,100.49644,0,0,0-12.97876.78961A4.99536,4.99536,0,0,1,18,3ZM13,9.81128A97.809,97.809,0,0,1,26,9a97.809,97.809,0,0,1,13,.81128v3.99438a105.28578,105.28578,0,0,0-26,0Zm-.95337,10.17413C12.01892,20.33038,12,20.66931,12,21c0,.35608.02716.70538.05341,1.05487C4.65961,20.93842,3,19.35291,3,19c0-1.19629,7.8252-4,23-4s23,2.80371,23,4c0,.35291-1.65961,1.93842-9.05341,3.05487C39.97284,21.70538,40,21.35608,40,21c0-.32892-.019-.66608-.04639-1.009a1.03263,1.03263,0,0,0,.11377.009,1,1,0,0,0,.15821-1.9873A90.1455,90.1455,0,0,0,26,17a90.1455,90.1455,0,0,0-14.22559,1.0127.99587.99587,0,0,0,.27222,1.97271Zm1.17212,23.39008A1.00049,1.00049,0,0,0,13,44v5H7V46A11.01125,11.01125,0,0,1,17,35.05066v3.59827ZM35,35.05066A11.01125,11.01125,0,0,1,45,46v3H39V44a1.00049,1.00049,0,0,0-.21875-.62451L35,38.64893ZM33.51953,40,37,44.35059V49H15V44.35059L18.48047,40ZM19,38V35H33v3Zm7-5A12.01343,12.01343,0,0,1,14,21a11.26489,11.26489,0,0,1,.08868-1.29834A93.48156,93.48156,0,0,1,26,19a93.48156,93.48156,0,0,1,11.91132.70166A11.26489,11.26489,0,0,1,38,21,12.01343,12.01343,0,0,1,26,33Z"></path><path fill="#151a6a" d="M18,45a.99974.99974,0,0,0,1,1H33a1,1,0,0,0,0-2H19A.99974.99974,0,0,0,18,45Z"></path><path fill="#151a6a" d="M29.499,26.05371a7.00318,7.00318,0,0,1-6.998,0,1.00023,1.00023,0,0,0-1.002,1.73145,9.01109,9.01109,0,0,0,9.002,0,1.00023,1.00023,0,0,0-1.002-1.73145Z"></path></svg>