<svg xmlns="http://www.w3.org/2000/svg" viewBox="0 0 340 340"><path fill="#d3dd96" d="M33.765,37.218c8.318,5.813,20.132,19.1,12.67,45.3a34.758,34.758,0,0,0,.657,21.164c2.244,6.291,3.932,15.908,1.712,29.213l-9.358,8.388s-5.727-17.4-16.987-27.981a24.509,24.509,0,0,1-7.808-20.619q.056-.467.131-.933a25,25,0,0,0-.57-10.345C11.5,71.138,7.83,50.039,19.226,38.494A11.284,11.284,0,0,1,33.765,37.218Z"></path><circle cx="150.521" cy="180.656" r="45.143" fill="#f97dae"></circle><circle cx="213.963" cy="151.28" r="45.143" fill="#d85c93"></circle><path fill="#527f7f" d="M306.91,118.183s23.228,2.391,12.22,30.7c0,0,8.1,17.548-4.493,32.312a23.74,23.74,0,0,0-4.889,9.581c-1.663,6.559-6.309,17.039-19.234,21.347H254.989Z"></path><path fill="#80afa7" d="M262.525,97.505c-7.175,1.085-18.972,6.022-23.181,26.209A21.142,21.142,0,0,1,228.516,137.9c-4.532,2.452-9.49,7.395-11.859,17.33l-2.114,30.977L237.511,202.4,279,195.945l10.045-12.524a50.659,50.659,0,0,0,5.225-20.769s16.936-8.091,13.441-31.806a23.218,23.218,0,0,1,1.722-12.652c3.217-7.393,5.955-20.489-7.649-31.095-12.864-10.03-24-1.188-29.612,5.152A16.057,16.057,0,0,1,262.525,97.505Z"></path><path fill="#527f7f" d="M289.042,183.419c-9.051,7.523-23.734,15.61-42.883,12.186-28.848-5.158-29.474-39.145-29.487-40.37a52.241,52.241,0,0,0-1.292,8.922,22.782,22.782,0,0,1-8.346,16.2c-5.639,4.607-12.845,9.963-17.3,11.266v23.569h63.892S278.041,205.711,289.042,183.419Z"></path><path fill="#c190a4" d="M29.971,229s6.129,39.3,18.689,69.89a23.916,23.916,0,0,0,22.154,14.751c18.28,4.182,37.775,3.752,58.145,0,30.618,5.961,62.608,5.517,95.684,0h53.644a23.916,23.916,0,0,0,22.154-14.751C313,268.294,319.13,229,319.13,229,224.706,224.632,128.228,224.836,29.971,229Z"></path><path fill="#72596b" d="M224.643,313.637h22.924c8.214-29.326,12.563-65.124,14.608-86.709q-25.627-.689-51.444-.957c-.28,28.513-3.794,64.677-6.756,90.442Q214.237,315.365,224.643,313.637Z"></path><path fill="#72596b" d="M31.858,239.465l0,.012c27.632,4.469,81.5,5.814,114.818,6.213a20.654,20.654,0,0,0,13.188,6.836c3.069.333,11.292.369,14.685.369s11.616-.036,14.684-.369a20.659,20.659,0,0,0,13.189-6.836c33.32-.4,87.186-1.744,114.817-6.213l0-.012c1.165-5.96,1.787-9.832,1.875-10.391l.012-.078c-5.312-.245-280.83-.353-289.159,0l.012.078C30.072,229.633,30.694,233.505,31.858,239.465Z"></path><path fill="#72596b" d="M102.069,316.558a173.427,173.427,0,0,0,26.89-2.921q8.149,1.587,16.429,2.566c-2.958-25.826-6.422-61.673-6.748-90.17q-25.908.3-51.995,1.005C88.8,249.566,93.387,286.756,102.069,316.558Z"></path><path fill="#8c9d78" d="M65.673,51.1a13.332,13.332,0,0,1,19.263-2.771c4.359,3.39,8.814,9.233,10.043,19.2,2.6,21.114-.686,44.831,2.549,64.789l-11.109,3.191s-5.034-20.852-15.447-29.376c-6.833-5.594-6.566-15.862-5.575-22.261a23.631,23.631,0,0,0-.988-11.045C62.533,67.171,60.849,58.141,65.673,51.1Z"></path><path fill="#d35c4a" d="M70.972,144.18s3.471-13.305,16.487-16.2,27.188,4.481,33.551,29.718c0,0,8.966,34.492,10.412,52.425H103.945Z"></path><path fill="#ff9673" d="M111.176,210.126s-2.882-10.2-8.034-23.491a18.476,18.476,0,0,1-2.518-6.278c-1.461-3.523-3.058-7.171-4.783-10.832a25.089,25.089,0,0,1-3.336-6.767c-1.777-3.441-3.663-6.832-5.65-10.078a16.122,16.122,0,0,1-5.11-7.675c-1.565-2.146-3.18-4.172-4.842-6.044-7.194-8.1-18.457-11.627-28.706-8.11a24.869,24.869,0,0,0-11.842,8.568,27.985,27.985,0,0,0-5.49,18.335c.256,5.826,1.68,13.623,6.556,20.556a284.229,284.229,0,0,0,26.32,31.816Z"></path><path fill="#72596b" d="M130.149,231.761l-32.621,2.767s.222,3.87.782,10.034c10.814.4,21.544.672,31.41.863C129.675,240.378,129.8,235.731,130.149,231.761Z"></path><path fill="#c190a4" d="M184.758,25.418a6.4,6.4,0,0,0-6.39-5.942h-7.635a6.4,6.4,0,0,0-6.39,5.942c-1.462,20.441-6.009,84.688-4.758,137.234h29.931C190.767,110.106,186.22,45.859,184.758,25.418Z"></path><path fill="#c190a4" d="M196.4,190.01a12.282,12.282,0,0,0-1.574-2.133c6.129-8.723-.236-14.852-.236-14.852,3.706-4.3,3.654-8.182,2.7-10.961a6.579,6.579,0,0,0-6.255-4.363H157.483a6.577,6.577,0,0,0-6.255,4.363c-.952,2.779-1,6.657,2.7,10.961,0,0-6.365,6.129-.236,14.852a12.282,12.282,0,0,0-1.574,2.133A11.4,11.4,0,0,0,162,207.162h24.514A11.4,11.4,0,0,0,196.4,190.01Z"></path><path fill="#72596b" d="M219.382,245.425c9.865-.191,20.6-.467,31.409-.863.561-6.164.782-10.034.782-10.034l-32.621-2.767C219.3,235.731,219.426,240.378,219.382,245.425Z"></path><path fill="#c190a4" d="M317.981,204.385c-22.887.892-79.968,2.833-143.43,2.833s-120.544-1.941-143.43-2.833A10.218,10.218,0,0,0,20.506,214.6v2.989A11.617,11.617,0,0,0,29.971,229c24.268,4.625,77.151,6.136,111.786,6.626a626.261,626.261,0,0,1,65.587,0c34.635-.49,87.519-2,111.786-6.626a11.617,11.617,0,0,0,9.466-11.4V214.6A10.218,10.218,0,0,0,317.981,204.385Z"></path><path fill="#72596b" d="M207.574,234.007a72.9,72.9,0,0,0-1.222-23.674,21.1,21.1,0,0,0-1.059-3.261c-9.993.092-20.278.146-30.742.146s-20.749-.054-30.742-.146a20.993,20.993,0,0,0-1.059,3.261,72.847,72.847,0,0,0-1.222,23.674c.053.545.134,1.082.229,1.615,19.2.271,32.794.229,32.794.229s13.6.042,32.793-.229C207.439,235.089,207.521,234.552,207.574,234.007Z"></path><path fill="#c190a4" d="M152.047,214.694a65.265,65.265,0,0,0-.566,18.344,10.658,10.658,0,0,0,9.463,9.547c.612.066,1.628.122,2.919.167a50.831,50.831,0,0,1,7.386.132c2.14.015,4.385.015,6.527,0a22.246,22.246,0,0,1,7.622-.138c1.216-.044,2.173-.1,2.759-.161a10.66,10.66,0,0,0,9.464-9.547,64.907,64.907,0,0,0-.621-18.63Z"></path><path fill="#72596b" d="M159.585,162.652h29.931c.117-4.9.183-9.9.206-14.951H159.379C159.4,152.756,159.469,157.755,159.585,162.652Z"></path><path fill="#72596b" d="M162,217.162h24.514A21.422,21.422,0,0,0,197,214.408c-.121-.623-.248-1.22-.381-1.783a10.682,10.682,0,0,0-10.4-8.248H162.881a10.682,10.682,0,0,0-10.4,8.248c-.152.647-.3,1.343-.432,2.07A21.421,21.421,0,0,0,162,217.162Z"></path><path fill="#c190a4" d="M250.791,244.562c-1.571,17.28-5.81,52.6-15.322,71.375a8.46,8.46,0,0,1-7.564,4.585h-5.411a8.525,8.525,0,0,1-8.463-9.59c1.867-14.826,5.161-43.859,5.351-65.507C230.68,243.171,241.831,241.266,250.791,244.562Z"></path><path fill="#c190a4" d="M98.31,244.562c1.572,17.28,5.81,52.6,15.323,71.375a8.458,8.458,0,0,0,7.563,4.585h5.412a8.524,8.524,0,0,0,8.462-9.59c-1.867-14.826-5.16-43.859-5.351-65.507C121.755,241.609,110.425,242.533,98.31,244.562Z"></path><path fill="#c190a4" d="M196.4,190.01a12.282,12.282,0,0,0-1.574-2.133c6.129-8.723-.236-14.852-.236-14.852,3.706-4.3,3.654-8.182,2.7-10.961a6.579,6.579,0,0,0-6.255-4.363H157.483a6.577,6.577,0,0,0-6.255,4.363c-.952,2.779-1,6.657,2.7,10.961,0,0-6.365,6.129-.236,14.852a12.282,12.282,0,0,0-1.574,2.133A11.4,11.4,0,0,0,162,207.162h24.514A11.4,11.4,0,0,0,196.4,190.01Z"></path><path fill="#3e3e54" d="M31.257,200.887A13.718,13.718,0,0,0,17.006,214.6v2.989A15.132,15.132,0,0,0,26.88,231.75c1.378,8.03,6.994,38.5,16.922,64.367.011.03.022.059.034.088.518,1.349,1.045,2.69,1.587,4.01a27.3,27.3,0,0,0,24.986,16.919,127.477,127.477,0,0,0,28,2.972q6.557,0,13.38-.6a11.93,11.93,0,0,0,9.41,4.513h5.412a12.036,12.036,0,0,0,9.024-4.071,12.158,12.158,0,0,0,1.057-1.42,248.2,248.2,0,0,0,38.291,2.894,295.865,295.865,0,0,0,37.688-2.489,12.273,12.273,0,0,0,.8,1.015,12.036,12.036,0,0,0,9.024,4.071h5.411a11.893,11.893,0,0,0,10.686-6.5c.064-.126.125-.257.188-.383h39.508a27.3,27.3,0,0,0,25.392-16.922c11.016-26.831,17.051-59.658,18.546-68.466a15.133,15.133,0,0,0,9.871-14.158V214.6a13.719,13.719,0,0,0-14.252-13.715c-2.373.093-5.259.2-8.591.322a37.477,37.477,0,0,0,3.888-9.577,20.326,20.326,0,0,1,4.159-8.169c11.881-13.929,7.37-29.823,5.586-34.628,3.9-10.743,3.6-19.382-.906-25.7a3.5,3.5,0,1,0-5.7,4.068c3.23,4.524,3.091,11.389-.415,20.4a3.529,3.529,0,0,0,.08,2.725c.289.638,6.961,15.766-3.973,28.584a27.352,27.352,0,0,0-5.619,10.992,28.724,28.724,0,0,1-5.894,11.6c-6.106.205-13.165.427-21.009.648,8.728-8.482,17.043-20.8,18.215-37.48,4.751-3.173,16.6-13.346,13.508-34.347a19.715,19.715,0,0,1,1.469-10.746c3.454-7.938,6.915-23.072-8.707-35.252-11.073-8.633-23.606-6.593-34.386,5.6A12.612,12.612,0,0,1,262,94.044c-7.731,1.169-21.4,6.485-26.084,28.956a17.675,17.675,0,0,1-9.067,11.823c-6.206,3.358-13.84,11.135-14.964,29.116a19.332,19.332,0,0,1-7.067,13.708c-1.34,1.1-2.62,2.108-3.846,3.05a14.279,14.279,0,0,0-2.009-7.692A13.525,13.525,0,0,0,200.6,160.93a10,10,0,0,0-7.444-6.5q.225-17.851-.3-39.033a41.676,41.676,0,0,1,36.377-2.87,3.5,3.5,0,1,0,2.568-6.512,48.741,48.741,0,0,0-39.164,1.546c-.752-24.5-2.213-52.026-4.386-82.39a9.937,9.937,0,0,0-9.881-9.191h-7.635a9.937,9.937,0,0,0-9.881,9.19c-2.938,41.073-4.584,76.98-4.917,107.157a49.166,49.166,0,0,0-5.414-.311,48.305,48.305,0,0,0-31.029,11.193c-5.162-10.38-12.157-15.952-19.337-18.152-.771-8.337-.7-17.088-.624-26.333.091-10.5.186-21.362-1.079-31.617C97.022,55.5,91.481,48.985,87.085,45.567A17.245,17.245,0,0,0,73.9,42.12a16.4,16.4,0,0,0-11.117,7c-5.527,8.066-3.975,17.944-1.7,24.81a20.231,20.231,0,0,1,.852,9.408c-1.765,11.4.655,20.462,6.818,25.506,4.089,3.347,8.064,9.794,11.3,18.274a24.486,24.486,0,0,0-5.912,4.679,30.244,30.244,0,0,0-21.007-5.616,57.342,57.342,0,0,0-2.751-23.672A31.462,31.462,0,0,1,49.8,83.482c8.125-28.538-5.3-43.033-14.031-49.133a14.778,14.778,0,0,0-19.035,1.686C4.3,48.634,7.7,70.432,10.828,82.3a21.341,21.341,0,0,1,.5,8.893q-.087.538-.152,1.076a28.082,28.082,0,0,0,8.887,23.584c6.743,6.338,11.435,15.456,13.872,21-.117.146-.241.281-.355.43a31.539,31.539,0,0,0-6.211,20.621c.26,5.933,1.719,14.637,7.19,22.416,3.493,4.966,7.422,10.116,11.675,15.306a3.5,3.5,0,0,0,5.414-4.438c-4.145-5.057-7.969-10.069-11.363-14.9-4.5-6.394-5.7-13.695-5.923-18.695a24.53,24.53,0,0,1,4.77-16.05,21.475,21.475,0,0,1,10.2-7.39c8.676-2.976,18.469-.18,24.954,7.124.7.788,1.388,1.615,2.071,2.46-10.923.62-18.33,8.1-18.7,8.476a3.5,3.5,0,0,0,5.011,4.888c.081-.082,8.214-8.174,18.8-6.035.075.015.149.012.225.023,1.515,2.3,2.978,4.718,4.386,7.192a31.34,31.34,0,0,0-10.806,4.224,3.5,3.5,0,1,0,3.791,5.884c1.642-1.057,6.552-3.567,10.647-3.368,1.52,2.975,2.955,5.983,4.3,8.96a14.758,14.758,0,0,0-5.542,2.259,3.5,3.5,0,0,0,4.106,5.67A8.927,8.927,0,0,1,96.95,180.7c3.722,8.868,6.571,16.952,8.343,22.311C71.236,202.351,44.013,201.385,31.257,200.887Zm-6.4-90.131A21.059,21.059,0,0,1,18.126,93.1c.032-.264.068-.527.111-.791a28.3,28.3,0,0,0-.64-11.8c-2.215-8.4-6.249-29.061,4.119-39.565a7.8,7.8,0,0,1,10.044-.867c8.8,6.148,17.9,18.335,11.309,41.479a38.511,38.511,0,0,0,.726,23.3c2.374,6.655,3.078,14.431,2.137,23.11a28.609,28.609,0,0,0-3.739,1.776c-14.452-31.111-8.841-62.971-8.78-63.3a3.5,3.5,0,0,0-6.883-1.276,123.042,123.042,0,0,0,3.189,50.9A50.955,50.955,0,0,0,24.856,110.756Zm-.85,106.835V214.6a6.718,6.718,0,0,1,6.978-6.72c17.95.7,64.488,2.325,118.432,2.738-.129.393-.243.794-.339,1.2A65.437,65.437,0,0,0,147.9,232.2c-9.982-.116-21.947-.316-34.522-.663h-.018c-30.557-.842-64.709-2.544-82.737-5.98A8.132,8.132,0,0,1,24.006,217.591ZM173.5,178.87a100.513,100.513,0,0,0,19.635-1.972c.95,1.716,1.734,4.827-1.175,8.967a3.534,3.534,0,0,0,.348,4.445A9.3,9.3,0,0,1,193.4,191.8a7.509,7.509,0,0,1,.859,5.833,8.138,8.138,0,0,1-2.749,4.265,14.2,14.2,0,0,0-5.285-1.025H162.881a14.191,14.191,0,0,0-5.672,1.18,7.847,7.847,0,0,1-2.086-10.252l.025-.039a124.547,124.547,0,0,0,22.982,1.875,3.5,3.5,0,0,0,0-7,115.979,115.979,0,0,1-22.271-1.871c-2.028-3.529-1.368-6.212-.536-7.777A83.263,83.263,0,0,0,173.5,178.87Zm11.489,36.615a3.5,3.5,0,1,0-6.977.561c.559,6.959.849,16.478-.777,23.343-2.727.015-5.6.007-8.167-.024-2.756-11.462-.764-26.595.01-31.488h17.14a7.161,7.161,0,0,1,6.991,5.55,59.47,59.47,0,0,1,.926,19.272,7.18,7.18,0,0,1-6.357,6.406c-.658.071-1.846.129-3.366.174C185.837,231.749,185.547,222.405,184.991,215.485Zm-29.1-2.058a7.15,7.15,0,0,1,6.09-5.474c-.885,5.94-2.429,19.585-.125,31.2-.2-.015-.385-.03-.534-.046a7.181,7.181,0,0,1-6.357-6.406A59.526,59.526,0,0,1,155.89,213.427ZM98.305,273.164c-29.041,5.824-51.012-.775-55.412-2.27-1.653-5.863-3.092-11.563-4.31-16.78a152.064,152.064,0,0,0,39.848,5.219c.365,0,.731,0,1.1-.005a3.5,3.5,0,0,0-.048-7,142.925,142.925,0,0,1-42.651-6.049c-1.153-5.388-2.012-9.891-2.574-13,15.008,2.3,37.421,3.737,59.987,4.627C94.683,244,95.859,257.911,98.305,273.164ZM71.6,310.225a3.536,3.536,0,0,0-.781-.088,20.343,20.343,0,0,1-17.957-10.6,162.355,162.355,0,0,0,24.838,1.931c2.613,0,5.325-.068,8.108-.221a3.5,3.5,0,1,0-.379-7,154.944,154.944,0,0,1-35.749-2.385c-1.584-4.241-3.05-8.593-4.4-12.936a113.542,113.542,0,0,0,29.138,3.641,128.248,128.248,0,0,0,25.074-2.512c2.12,11.589,4.994,23.381,8.845,32.68A126.445,126.445,0,0,1,71.6,310.225Zm45.16,4.13c-10.508-20.738-14.472-63.233-15.464-76.192q4.3.148,8.552.274c.083,11.647,1.028,49.946,9.539,78.239A4.874,4.874,0,0,1,116.755,314.355Zm13.627.965A4.954,4.954,0,0,1,126.817,317c-8.747-27.029-9.839-66.434-9.963-78.37,12.171.313,23.608.491,33.079.592a14.214,14.214,0,0,0,10.634,6.841c2.025.22,8,.33,13.984.33s11.958-.11,13.984-.33a14.217,14.217,0,0,0,10.634-6.841c5.069-.054,10.677-.13,16.663-.236a352.714,352.714,0,0,1-1.485,35.607c-38.257,6.807-72.2,1.41-79.6.054-.372-4.488-.7-9.03-.96-13.488a233.746,233.746,0,0,0,40.957,3.546,225.2,225.2,0,0,0,22.784-1.144,3.5,3.5,0,1,0-.673-6.969,232.084,232.084,0,0,1-63.421-2.636c-.063-1.611-.116-3.2-.153-4.762a3.5,3.5,0,0,0-7,.168c.51,21.281,3.548,47.984,5.314,62.006A4.961,4.961,0,0,1,130.382,315.32Zm5-33.437a237,237,0,0,0,39.161,3.134,236.217,236.217,0,0,0,39.165-3.217c-.338,3.622-.69,7.132-1.042,10.45-35.7,6.824-71.259.9-76.247,0C136.071,288.934,135.721,285.453,135.387,281.883Zm3.246,29.867a11.784,11.784,0,0,0-.09-1.255c-.391-3.105-.845-6.84-1.32-11a242.272,242.272,0,0,0,38.522,3.043,207.5,207.5,0,0,0,36.13-3.04c-.492,4.315-.949,8.075-1.317,10.993a12.179,12.179,0,0,0-.079,1.661C185.206,315.3,161.068,315.161,138.633,311.75Zm78.871-.381c2.277-18.088,5.882-50.774,5.328-72.518,3.093-.065,6.259-.139,9.473-.221-.116,11.524-1.172,51.213-9.965,78.376a5,5,0,0,1-4.836-5.637Zm12.269,5.288c8.432-28.046,9.443-65.882,9.537-78.22q4.222-.126,8.5-.273c-.993,12.961-4.957,55.454-15.464,76.191A4.877,4.877,0,0,1,229.773,316.657Zm82.54-70.6c-.033.014-.068.019-.1.034-20.655,9.269-51.491,7.092-58.677,6.426.681-6.335,1.1-11.494,1.322-14.61,22.579-.89,44.979-2.323,59.984-4.628C314.282,236.364,313.439,240.778,312.313,246.052Zm-34.026,64.085H241.8c1.286-3.406,2.455-7.086,3.517-10.927,4.024.4,15.346,1.393,28.794,1.393a217.818,217.818,0,0,0,22.128-1.052A20.343,20.343,0,0,1,278.287,310.137Zm21.035-17.988c-20.725,2.694-44.608.895-52.253.191a317.523,317.523,0,0,0,5.663-32.866c2.808.274,9.046.78,16.954.78,11.878,0,27.485-1.154,40.78-5.94-1.189,5.079-2.583,10.6-4.178,16.286-12.261,3.194-27.092,3.676-39.081,3.326a3.5,3.5,0,0,0-.222,7c2.16.063,4.411.1,6.726.1a151.739,151.739,0,0,0,30.3-2.7C302.581,282.964,301.019,287.623,299.322,292.149Zm18.8-84.267a6.718,6.718,0,0,1,6.979,6.72v2.989a8.132,8.132,0,0,1-6.621,7.967C293.05,230.4,235.62,231.8,201.2,232.2c.629-7.5-.177-17.238-1.513-21.58C202.678,210.6,301.2,208.542,318.117,207.882ZM209.249,183.068a26.35,26.35,0,0,0,9.624-18.692c.732-11.7,4.642-19.79,11.309-23.4a24.654,24.654,0,0,0,12.589-16.55c3.629-17.408,13.03-22.367,20.278-23.463a19.629,19.629,0,0,0,11.747-6.4c8.363-9.456,16.719-11.041,24.838-4.711,11.3,8.811,9.823,19.513,6.592,26.938a26.718,26.718,0,0,0-1.975,14.56c3.052,20.713-10.911,27.852-11.488,28.137a3.5,3.5,0,0,0-1.989,3.029c-.709,19.351-12.534,32.392-22.356,39.937-13.79.352-29.424.681-46.176.915,17.856-11.983,31.736-30.037,40.81-44.313a3.5,3.5,0,1,0-5.907-3.755c-10.433,16.413-27.427,38.018-49.337,48.241q-4.273.042-8.611.076a15.058,15.058,0,0,0,1.836-4.242,14.5,14.5,0,0,0-.781-9.5C202.922,188.057,205.934,185.776,209.249,183.068ZM193.981,163.2c.755,2.2.311,4.393-1.347,6.662-18.641,3.893-32.909,1.01-36.685.08-1.707-2.3-2.174-4.511-1.41-6.742a3.063,3.063,0,0,1,2.944-2h33.554A3.065,3.065,0,0,1,193.981,163.2ZM167.835,25.667a2.911,2.911,0,0,1,2.9-2.69h7.635a2.912,2.912,0,0,1,2.9,2.69c3.674,51.353,5.316,94.566,4.9,128.534H162.935C162.513,120.242,164.16,77.023,167.835,25.667ZM150.521,139.013a42.387,42.387,0,0,1,5.359.345q-.033,7.752.056,14.961a10.014,10.014,0,0,0-8.019,6.611,13.521,13.521,0,0,0,1.637,12.075,14.54,14.54,0,0,0-.095,14.656q-.171.263-.346.555a14.794,14.794,0,0,0,.205,15.4q-7.668-.058-15.119-.149c-2.544-18.625-9.5-45.48-9.8-46.625-.615-2.439-1.307-4.708-2.059-6.837A41.375,41.375,0,0,1,150.521,139.013ZM73.189,103.429c-5.62-4.6-5.127-13.89-4.334-19.017a27.263,27.263,0,0,0-1.124-12.683c-1.777-5.362-3.076-12.951.83-18.651a9.473,9.473,0,0,1,6.42-4.042,10.217,10.217,0,0,1,7.807,2.057c4.871,3.787,7.8,9.463,8.717,16.868,1.208,9.8,1.115,20.423,1.026,30.7-.073,8.405-.145,17.063.5,25.265a26.436,26.436,0,0,0-3.363.157C79.571,97.819,82.468,70.422,82.5,70.14a3.5,3.5,0,0,0-6.956-.782,136.82,136.82,0,0,0,2.286,38.9A30.508,30.508,0,0,0,73.189,103.429Zm6.332,33.209c-.052-.059-.108-.111-.161-.168a17.106,17.106,0,0,1,8.858-5.071c8.625-1.917,16.258,1.636,21.945,9.766a25.211,25.211,0,0,0-9.506,1.723,3.5,3.5,0,0,0,2.84,6.4,20.488,20.488,0,0,1,10.742-.759,63.523,63.523,0,0,1,3.225,9.458,41.662,41.662,0,0,0-4.509.184,3.5,3.5,0,0,0,.383,6.979,3.455,3.455,0,0,0,.391-.022,36.27,36.27,0,0,1,5.51-.077c2.2,9,6.055,25.623,7.876,38.329q-7.359-.1-14.415-.227C107.963,188.356,96.1,155.314,79.521,136.638Z"></path><path fill="#3e3e54" d="M266.728,146.044a3.5,3.5,0,0,0,4.711-1.517c.573-1.117.866-1.731.866-1.731a3.5,3.5,0,0,0-6.317-3.017c-.012.026-.275.575-.777,1.554A3.5,3.5,0,0,0,266.728,146.044Z"></path></svg>