<svg id="Capa_1" enable-background="new 0 0 512 512" height="512" viewBox="0 0 512 512" width="512" xmlns="http://www.w3.org/2000/svg"><g><path d="m15 315v-270c0-16.542 13.458-30 30-30h422c16.542 0 30 13.458 30 30v270z" fill="#7ed8f7"/><path d="m467 15h-211v300h241v-270c0-16.542-13.458-30-30-30z" fill="#6aa9ff"/><path d="m321 452h-130v-77c0-8.284 6.716-15 15-15h100c8.284 0 15 6.716 15 15z" fill="#453d83"/><path d="m306 360h-50v92h65v-77c0-8.284-6.716-15-15-15z" fill="#2d2755"/><path d="m467 0h-422c-24.813 0-45 20.187-45 45v300c0 24.813 20.187 45 45 45h422c24.813 0 45-20.187 45-45v-300c0-24.813-20.187-45-45-45zm15 300h-452v-255c0-8.271 6.729-15 15-15h422c8.271 0 15 6.729 15 15z" fill="#5f55af"/><path d="m467 0h-211v30h211c8.271 0 15 6.729 15 15v255h-226v90h211c24.813 0 45-20.187 45-45v-300c0-24.813-20.187-45-45-45z" fill="#453d83"/><path d="m380.23 492.257-15-45c-2.041-6.126-7.773-10.257-14.23-10.257h-190c-6.456 0-12.189 4.131-14.23 10.257l-15 45c-3.238 9.713 3.992 19.743 14.23 19.743h220c10.238 0 17.468-10.03 14.23-19.743z" fill="#5f55af"/><path d="m256 512h110c10.238 0 17.468-10.031 14.23-19.743l-15-45c-2.041-6.126-7.773-10.257-14.23-10.257h-95z" fill="#453d83"/><path d="m96 0c-8.284 0-15 6.716-15 15v60l115 21-20-96z" fill="#fff36c"/><path d="m416 0h-240v85.857l80 9.143 175-20v-60c0-8.284-6.716-15-15-15z" fill="#ff9100"/><path d="m416 0h-160v95l175-20v-60c0-8.284-6.716-15-15-15z" fill="#ff4c04"/><path d="m81 75h350v225h-350z" fill="#f9f9f9"/><path d="m256 75h175v225h-175z" fill="#e2dff4"/><path d="m356 120h-100c-8.284 0-15 6.716-15 15v120c0 8.284 6.716 15 15 15h100c8.284 0 15-6.716 15-15v-120c0-8.284-6.716-15-15-15zm-15 93.569-52.974-63.569h52.974zm-70-37.138 52.974 63.569h-52.974z" fill="#ff9100"/><path d="m356 120h-100v150h100c8.284 0 15-6.716 15-15v-120c0-8.284-6.716-15-15-15zm-85 120v-63.569l52.974 63.569zm70-26.431-52.974-63.569h52.974z" fill="#ff4c04"/><g fill="#5f55af"><path d="m196 150h-40c-8.284 0-15-6.716-15-15s6.716-15 15-15h40c8.284 0 15 6.716 15 15s-6.716 15-15 15z"/><path d="m196 210h-40c-8.284 0-15-6.716-15-15s6.716-15 15-15h40c8.284 0 15 6.716 15 15s-6.716 15-15 15z"/><path d="m196 270h-40c-8.284 0-15-6.716-15-15s6.716-15 15-15h40c8.284 0 15 6.716 15 15s-6.716 15-15 15z"/></g></g></svg>