<svg id="Capa_1" enable-background="new 0 0 512 512" height="512" viewBox="0 0 512 512" width="512" xmlns="http://www.w3.org/2000/svg"><g><g><g fill="#eeaa97"><path d="m447.61 421.636-191.61 41.432-191.61-41.432v-82.865l191.61-41.432 191.61 41.432z"/><path d="m48.55 54.108v106.578h57.246v-106.578l-28.623-23.304z"/><path d="m64.39 255.907v-64.894l191.61-144.168 191.61 144.168v64.894l-191.61 23.166z"/></g><path d="m64.39 255.907h383.22v82.864h-383.22z" fill="#e5866e"/><circle cx="447.61" cy="297.339" fill="#eeaa97" r="41.432"/><circle cx="447.61" cy="380.203" fill="#e5866e" r="41.432"/><path d="m64.39 421.635v82.865h123.307l68.303-14.695 68.304 14.695h-.001 123.307v-82.865z" fill="#e5866e"/><circle cx="447.61" cy="463.068" fill="#eeaa97" r="41.432"/><circle cx="64.39" cy="297.339" fill="#eeaa97" r="41.432"/><circle cx="64.39" cy="380.203" fill="#e5866e" r="41.432"/><circle cx="64.39" cy="463.068" fill="#eeaa97" r="41.432"/><path d="m290.18 297.339h-68.36c-18.846 0-34.123 15.278-34.123 34.123v173.038h136.607v-173.038c0-18.845-15.278-34.123-34.124-34.123z" fill="#77e4d3"/><path d="m226.667 336.308h58.667v168.192h-58.667z" fill="#e5866e"/><path d="m64.39 191.013v57.996c3.12-1.268 6.117-2.871 8.942-4.807l182.668-125.208 182.667 125.208c2.825 1.937 5.822 3.54 8.942 4.807v-57.996l-191.609-144.168z" fill="#e5866e"/><path d="m494.186 163.207-218.07-149.475c-12.123-8.31-28.109-8.31-40.232 0l-218.07 149.475c-7.806 5.351-9.797 16.016-4.446 23.822l19.18 27.983c5.351 7.806 16.016 9.797 23.822 4.446l199.63-136.835 199.629 136.835c7.806 5.351 18.472 3.36 23.822-4.446l19.18-27.983c5.352-7.806 3.361-18.472-4.445-23.822z" fill="#77e4d3"/><g><g><g><ellipse cx="167.968" cy="215.152" fill="#e2e2e2" rx="32.482" ry="25.867"/></g><g><ellipse cx="344.033" cy="215.152" fill="#e2e2e2" rx="32.482" ry="25.867"/></g></g></g><path d="m48.55 54.108v30h57.246v-30l-28.623-23.304z" fill="#e5866e"/><path d="m105.796 7.5h-57.246c-9.484 0-17.172 7.688-17.172 17.172v12.264c0 9.484 7.688 17.172 17.172 17.172h57.246c9.484 0 17.172-7.688 17.172-17.172v-12.264c.001-9.484-7.688-17.172-17.172-17.172z" fill="#77e4d3"/></g><g><path d="m179.391 176.973v13.278c0 4.143 3.358 7.5 7.5 7.5s7.5-3.357 7.5-7.5v-13.278c0-4.142-3.358-7.5-7.5-7.5s-7.5 3.358-7.5 7.5z"/><path d="m317.595 176.973v13.278c0 4.143 3.358 7.5 7.5 7.5s7.5-3.357 7.5-7.5v-13.278c0-4.142-3.358-7.5-7.5-7.5s-7.5 3.358-7.5 7.5z"/><path d="m268.557 184.929c-6.642 7.622-18.467 7.643-25.128 0-2.722-3.123-7.459-3.448-10.582-.727-3.123 2.722-3.448 7.459-.727 10.582 12.634 14.497 35.125 14.481 47.745 0 2.721-3.123 2.396-7.86-.727-10.582-3.122-2.721-7.86-2.396-10.581.727z"/><path d="m26.354 219.252c6.768 9.875 19.669 13.433 30.529 8.48v21.25c-23.434 3.62-41.432 23.926-41.432 48.357 0 17.438 9.176 32.764 22.946 41.432-13.77 8.667-22.946 23.994-22.946 41.432s9.176 32.764 22.946 41.432c-13.77 8.667-22.946 23.994-22.946 41.432 0 26.98 21.95 48.931 48.93 48.932h.002 383.219.002c26.98-.001 48.93-21.952 48.93-48.932 0-17.438-9.176-32.765-22.946-41.432 13.77-8.668 22.946-23.995 22.946-41.432 0-17.438-9.176-32.765-22.946-41.432 13.77-8.668 22.946-23.995 22.946-41.432 0-24.432-17.998-44.737-41.432-48.357v-21.249c10.846 4.947 23.753 1.403 30.527-8.481l19.181-27.982c7.698-11.23 4.84-26.55-6.392-34.249l-218.069-149.475c-14.568-9.986-34.145-9.986-48.712 0l-62.564 42.884c-3.417 2.342-4.288 7.01-1.946 10.426 2.342 3.417 7.01 4.288 10.427 1.946l62.564-42.884c9.496-6.509 22.255-6.509 31.751 0l218.07 149.475c4.392 3.011 5.512 9.002 2.5 13.396l-19.181 27.982c-3.003 4.382-9.012 5.504-13.396 2.5l-48.723-33.397c-3.416-2.342-8.085-1.471-10.426 1.946-2.328 3.395-1.493 8.07 1.946 10.427l37.444 25.666v30.494h-368.22v-30.494l184.11-126.197 122.036 83.649c3.418 2.342 8.085 1.47 10.426-1.946 2.342-3.417 1.471-8.084-1.946-10.427l-126.276-86.555c-2.556-1.752-5.925-1.752-8.48 0l-199.63 136.834c-4.382 3.004-10.392 1.883-13.396-2.5l-19.18-27.982c-3.011-4.393-1.893-10.384 2.5-13.396 11.184-7.666 131.179-89.916 131.179-89.916 3.417-2.342 4.288-7.01 1.946-10.426-2.341-3.417-7.009-4.288-10.426-1.946l-31.456 21.562v-28.229c9.948-3.182 17.172-12.513 17.172-23.503v-12.263c-.001-13.604-11.069-24.672-24.673-24.672h-57.246c-13.605 0-24.673 11.068-24.673 24.672v12.264c0 10.99 7.224 20.321 17.172 23.503v77.749l-27.477 18.834c-11.205 7.68-14.072 23.044-6.392 34.249zm195.458 85.587h68.36c14.71 0 26.623 11.966 26.623 26.623v165.538h-23.97v-160.692c0-4.142-3.358-7.5-7.5-7.5h-58.667c-4.142 0-7.5 3.358-7.5 7.5v160.692h-23.97v-165.538c0-8.422 3.935-15.938 10.059-20.82 4.551-3.627 10.308-5.803 16.565-5.803zm176.858 75.365c0 12.742 5.03 24.924 13.708 33.932h-80.583v-67.864h80.583c-8.585 8.924-13.529 20.279-13.708 33.932zm-120.844 116.796h-43.667v-153.192h43.667zm-97.637-82.864h-80.582c18.266-18.977 18.276-48.892 0-67.864h80.582zm-149.738-116.797c0-18.71 15.222-33.933 33.932-33.933s33.932 15.222 33.932 33.933c0 18.71-15.222 33.932-33.932 33.932s-33.932-15.222-33.932-33.932zm0 82.865c0-18.709 15.221-33.931 33.93-33.932h.002c18.672 0 33.932 15.184 33.932 33.932 0 18.71-15.222 33.932-33.932 33.932s-33.932-15.222-33.932-33.932zm0 82.864c0-18.71 15.221-33.932 33.931-33.932h.002c18.707 0 33.932 15.219 33.932 33.932 0 18.71-15.222 33.932-33.932 33.932s-33.933-15.222-33.933-33.932zm149.738 33.932h-80.582c18.253-18.965 18.291-48.878 0-67.864h80.582zm151.607 0v-67.864h80.583c-9.66 10.028-13.111 20.409-13.708 33.932 0 12.634 4.916 24.791 13.708 33.932zm115.806 0c-19.977 0-35.803-17.306-33.757-37.396 1.562-15.334 13.554-28.433 30.289-30.292 19.994-2.04 37.4 13.684 37.4 33.756.001 18.71-15.221 33.932-33.932 33.932zm0-82.864c-20.07 0-35.798-17.4-33.757-37.396 1.74-17.086 16.213-30.465 33.751-30.468h.008c18.709.001 33.93 15.223 33.93 33.932.001 18.71-15.221 33.932-33.932 33.932zm33.933-116.797c0 18.71-15.222 33.932-33.932 33.932-27.132 0-43.301-30.458-28.129-52.891 6.104-9.027 16.435-14.974 28.129-14.974 18.71.001 33.932 15.223 33.932 33.933zm-69.156-33.932c-8.875 9.207-13.535 20.665-13.708 33.933 0 12.482 4.84 24.727 13.708 33.932h-80.583c-.101-22.886-18.783-41.432-41.623-41.432-72.341.072-70.23-.343-75.87.691-19.32 3.546-34.02 20.415-34.114 40.741h-80.582c18.113-18.79 18.439-48.729 0-67.865zm-373.509-238.735c0-5.333 4.339-9.672 9.672-9.672h57.246c5.333 0 9.672 4.339 9.672 9.672v12.264c0 5.333-4.339 9.672-9.672 9.672h-57.245c-5.333 0-9.672-4.339-9.672-9.672v-12.264zm17.173 36.936h42.246v37.34l-42.246 28.958z"/></g></g></svg>