<svg id="Capa_1" enable-background="new 0 0 512 512" height="512" viewBox="0 0 512 512" width="512" xmlns="http://www.w3.org/2000/svg"><g><g><g><path d="m452.08 512h-76.648c-5.523 0-10-4.477-10-10v-161.383c0-5.523 4.477-10 10-10s10 4.477 10 10v151.383h56.648v-151.383c0-5.523 4.477-10 10-10s10 4.477 10 10v161.383c0 5.523-4.477 10-10 10z" fill="#020288"/></g><g><g><path d="m59.291 10h76.648v49.531h-76.648z" fill="#a4fcc4"/></g><g><path d="m135.939 375.792v-239.584h-76.648v292.447c0 13.153 10.662 23.815 23.815 23.815h418.486v-76.677h-365.653z" fill="#a4fcc4"/></g></g></g><g><g><g><g><path d="m354.845 311.386.013.013z" fill="#a4fcc4"/></g></g></g><g fill="#020288"><path d="m428.265 49.531h-417.856c-5.523 0-10 4.477-10 10v76.677c0 5.523 4.477 10 10 10h355.023v194.409c0 5.523 4.477 10 10 10s10-4.477 10-10v-204.409c0-5.523-4.477-10-10-10h-355.023v-56.677h407.856c7.618 0 13.815 6.197 13.815 13.815v257.271c0 5.523 4.477 10 10 10s10-4.477 10-10v-257.271c0-18.646-15.17-33.815-33.815-33.815z"/><path d="m509.071 2.929c-3.905-3.905-10.237-3.905-14.143 0l-21.31 21.31c-3.905 3.905-3.905 10.237 0 14.143 1.953 1.953 4.512 2.929 7.071 2.929s5.119-.976 7.071-2.929l21.31-21.31c3.906-3.906 3.906-10.238.001-14.143z"/><path d="m416.481 81.377-21.31 21.31c-3.905 3.905-3.905 10.237 0 14.143 1.953 1.953 4.512 2.929 7.071 2.929s5.119-.976 7.071-2.929l21.31-21.31c3.905-3.905 3.905-10.237 0-14.143-3.905-3.905-10.237-3.905-14.142 0z"/><path d="m338.032 159.826-21.31 21.31c-3.905 3.905-3.905 10.237 0 14.143 1.953 1.953 4.512 2.929 7.071 2.929s5.119-.976 7.071-2.929l21.31-21.31c3.905-3.905 3.905-10.237 0-14.143-3.905-3.905-10.237-3.905-14.142 0z"/><path d="m259.584 238.274-21.31 21.31c-3.905 3.905-3.905 10.237 0 14.143 1.953 1.953 4.512 2.929 7.071 2.929s5.119-.976 7.071-2.929l21.31-21.31c3.905-3.905 3.905-10.237 0-14.143-3.905-3.905-10.237-3.905-14.142 0z"/><path d="m181.135 316.722-21.31 21.31c-3.905 3.905-3.905 10.237 0 14.143 1.953 1.953 4.512 2.929 7.071 2.929s5.119-.976 7.071-2.929l21.31-21.31c3.905-3.905 3.905-10.237 0-14.143-3.904-3.905-10.236-3.905-14.142 0z"/><path d="m102.687 395.171-21.31 21.31c-3.905 3.905-3.905 10.237 0 14.143 1.953 1.953 4.512 2.929 7.071 2.929s5.119-.976 7.071-2.929l21.31-21.31c3.905-3.905 3.905-10.237 0-14.143-3.905-3.905-10.237-3.905-14.142 0z"/><path d="m24.238 473.619-21.31 21.31c-3.905 3.905-3.905 10.237 0 14.143 1.953 1.952 4.513 2.928 7.072 2.928s5.119-.976 7.071-2.929l21.31-21.31c3.905-3.905 3.905-10.237 0-14.143-3.905-3.904-10.237-3.904-14.143.001z"/></g></g></g></svg>