<svg id="Capa_1" enable-background="new 0 0 512 512" height="512" viewBox="0 0 512 512" width="512" xmlns="http://www.w3.org/2000/svg"><g><path d="m330.099 476.199h-148.198l30-90h88.198z" fill="#cce6ff"/><path d="m330.099 476.199h-74.099v-90h44.099z" fill="#b3ceff"/><path d="m512 31v315l-41.7 30h-433.999l-36.301-30v-315c0-8.401 6.599-15 15-15h482c8.401 0 15 6.599 15 15z" fill="#3d6dcc"/><path d="m512 31v315l-41.7 30h-214.3v-360h241c8.401 0 15 6.599 15 15z" fill="#2e3e99"/><path d="m241 316h-211v-270h211" fill="#e6f3ff"/><path d="m136 256c-8.291 0-15-6.709-15-15v-90c0-8.291 6.709-15 15-15s15 6.709 15 15v90c0 8.291-6.709 15-15 15z" fill="#7bcc29"/><g fill="#cce6ff"><path d="m376 166c-3.838 0-7.676-1.465-10.605-4.395l-19.395-19.394-19.395 19.395c-5.859 5.859-15.352 5.859-21.211 0s-5.859-15.352 0-21.211l30-30c5.859-5.859 15.352-5.859 21.211 0l19.395 19.394 49.395-49.395c5.859-5.859 15.352-5.859 21.211 0s5.859 15.352 0 21.211l-60 60c-2.93 2.93-6.768 4.395-10.606 4.395z"/><circle cx="316" cy="211" r="15"/><path d="m436 226h-60c-8.291 0-15-6.709-15-15s6.709-15 15-15h60c8.291 0 15 6.709 15 15s-6.709 15-15 15z"/><circle cx="316" cy="271" r="15"/><path d="m436 286h-60c-8.291 0-15-6.709-15-15s6.709-15 15-15h60c8.291 0 15 6.709 15 15s-6.709 15-15 15z"/></g><path d="m136 166c-24.814 0-45-20.186-45-45s20.186-45 45-45 45 20.186 45 45-20.186 45-45 45z" fill="#fd3"/><path d="m196 166c-24.626 0-46.32 12.081-60 30.458-13.68-18.377-35.374-30.458-60-30.458-8.291 0-15 6.709-15 15v30c0 41.353 33.633 75 75 75s75-33.647 75-75v-30c0-8.291-6.709-15-15-15z" fill="#b8e65c"/><path d="m0 346v45c0 8.399 6.599 15 15 15h482c8.401 0 15-6.601 15-15v-45z" fill="#e6f3ff"/><path d="m512 346v45c0 8.399-6.599 15-15 15h-241v-60z" fill="#cce6ff"/><path d="m391 481c0 8.399-6.599 15-15 15h-240c-8.401 0-15-6.601-15-15 0-8.401 6.599-15 15-15h240c8.401 0 15 6.599 15 15z" fill="#e6f3ff"/><path d="m391 481c0 8.399-6.599 15-15 15h-120v-30h120c8.401 0 15 6.599 15 15z" fill="#cce6ff"/></g></svg>