<svg enable-background="new 0 0 512 512" height="512" viewBox="0 0 512 512" width="512" xmlns="http://www.w3.org/2000/svg"><g><path d="m124.94 0c-26.62 0-48.28 21.66-48.28 48.28v262.95c0 26.63 21.66 48.29 48.28 48.29h94.86l36.2-137.242-36.2-222.278z" fill="#85c882"/><path d="m459.45 0h-239.65v359.52h239.65c26.63 0 48.29-21.66 48.29-48.29v-262.95c0-26.62-21.66-48.28-48.29-48.28z" fill="#00baa0"/><path d="m219.8 73.92 27.2 153.675-27.2 205.845h-46.72l-20.97 57.02c-4.81 13.08-16.93 21.54-30.87 21.54s-26.06-8.45-30.87-21.54l-20.96-57.02h-16.86c-26.62 0-48.29-21.66-48.29-48.29v-262.95c0-26.62 21.67-48.28 48.29-48.28z" fill="#f7f9fa"/><path d="m435.34 122.2v262.95c0 26.63-21.66 48.29-48.28 48.29h-167.26v-359.52h167.26c26.62 0 48.28 21.66 48.28 48.28z" fill="#d1cff1"/><path d="m219.8 208.13 19.2 63.537-19.2 63.743-3.83 3.83c-20.31 20.31-54.134 16.613-69.64-7.43l-36.16-56.06c-21.49-33.29 7.891-76.906 47.3-68.38 11.75 2.53 21.81 9.49 28.33 19.59l5.95 9.22z" fill="#85c882"/><path d="m323.45 231.76-103.65 103.65v-127.28l40.01-40.01c8.5-8.5 19.8-13.18 31.82-13.18 39.79 0 60.176 48.447 31.82 76.82z" fill="#00baa0"/></g></svg>