<svg enable-background="new 0 0 512 512" height="512" viewBox="0 0 512 512" width="512" xmlns="http://www.w3.org/2000/svg"><g><path d="m256 0 52.657 257.991-52.657 254.009c-68.38 0-132.67-26.63-181.02-74.98-48.35-48.35-74.98-112.64-74.98-181.02s26.63-132.67 74.98-181.02 112.64-74.98 181.02-74.98z" fill="#7ed8f6"/><path d="m512 256c0 68.38-26.63 132.67-74.98 181.02s-112.64 74.98-181.02 74.98v-512c68.38 0 132.67 26.63 181.02 74.98s74.98 112.64 74.98 181.02z" fill="#6aa9ff"/><path d="m256 63.61 34.589 199.573-34.589 185.207c-106.08 0-192.39-86.31-192.39-192.39s86.31-192.39 192.39-192.39z" fill="#ffffff"/><path d="m448.39 256c0 106.08-86.31 192.39-192.39 192.39v-384.78c106.08 0 192.39 86.31 192.39 192.39z" fill="#dfe7f4"/><path d="m256 134.45 16.814 114.137-16.814 97.203-.08-.03-48.54 15.65c-16.988 5.488-34.511-6.92-34.89-24.87l-1.06-52.18-29.12-40.95c-10.203-14.381-3.948-34.509 12.6-40.55l48.79-17.83 31.2-40.24c5.1-6.57 12.78-10.34 21.1-10.34z" fill="#ffd944"/><path d="m369.65 243.46-29.23 40.91-.91 52.09c-.314 17.85-17.712 30.449-34.87 24.96l-48.64-15.63v-211.34h.03c8.33.01 16.02 3.8 21.11 10.39l31 40.19 48.92 17.82c16.558 6.029 22.884 26.19 12.59 40.61z" fill="#ff9e22"/></g></svg>