<svg xmlns="http://www.w3.org/2000/svg" viewBox="0 0 480 480"><path d="M 240.00195 0 C 192.45495 0 149.45048 26.312969 127.77148 68.667969 C 125.75748 72.600969 127.31405 77.420594 131.24805 79.433594 C 135.17705 81.447594 140.00362 79.889078 142.01562 75.955078 C 143.06463 73.905078 144.17984 71.907312 145.33984 69.945312 C 158.59484 72.154313 172.96833 73.859969 188.11133 75.042969 C 187.15033 79.062969 189.42383 83.210859 193.42383 84.505859 C 197.61383 85.860859 202.13305 83.574422 203.49805 79.357422 C 203.85205 78.264422 204.23142 77.186469 204.60742 76.105469 C 227.90542 77.300469 252.16977 77.300516 275.38477 76.103516 C 278.81777 86.004516 281.36322 96.376953 282.94922 107.00195 L 50.027344 107.00195 C 30.623344 107.00195 19.235766 128.89064 30.384766 144.80664 C 40.120766 158.70364 56.053953 167 73.001953 167 L 108.00195 167 L 108.00195 200.46094 C 108.00195 216.27994 119.44192 229.49144 134.54492 232.39844 C 141.57192 298.49144 207.15873 342.5972 271.05273 322.9082 C 275.08173 344.6182 290.47867 362.93736 311.88867 370.31836 L 340 380.01172 L 340 427 L 175.19336 427 C 170.77536 427 167.19336 430.582 167.19336 435 C 167.19336 439.418 170.77536 443 175.19336 443 L 340.00195 443 L 340.00195 472 C 340.00195 476.418 343.58395 480 348.00195 480 C 352.41995 480 356.00195 476.418 356.00195 472 L 356.00195 385.55469 C 373.99295 392.27169 386.00195 409.48744 386.00195 428.77344 L 386.00195 472 C 386.00195 476.418 389.58395 480 394.00195 480 C 398.41995 480 402.00195 476.418 402.00195 472 L 402.00195 428.77344 C 402.00195 402.30444 385.20713 378.71969 360.20312 370.05469 L 317.10352 355.19336 C 298.92652 348.92636 286.58434 332.04497 286.02734 312.91797 C 286.22934 311.46497 286.04583 310.01666 285.42383 308.59766 C 283.45383 303.68266 277.42033 302.0423 273.23633 305.1543 C 214.13233 328.8043 149.99908 284.80427 149.95508 221.07227 L 149.95508 191.75195 C 149.96108 187.33295 146.40237 183.74323 141.98438 183.74023 C 137.53637 183.73723 133.96498 187.33647 133.95898 191.73047 L 133.95898 215.54492 C 128.10798 212.95592 124.00195 207.17494 124.00195 200.46094 L 124.00195 167 L 297.00195 167 C 301.41995 167 305.00195 163.418 305.00195 159 C 305.00195 154.582 301.41995 151 297.00195 151 L 73.001953 151 C 61.267953 151 50.234234 145.252 43.490234 135.625 C 39.763234 130.304 43.526344 123 50.027344 123 L 429.9707 123 C 436.4527 123 440.24563 130.28523 436.51562 135.61523 C 429.77463 145.24923 418.74195 151 407.00195 151 L 338.00195 151 C 333.58395 151 330.00195 154.582 330.00195 159 L 330.00195 221.24805 C 329.98795 241.69105 323.3413 260.96909 310.7793 276.99609 C 306.6353 282.28309 310.49231 289.93164 317.07031 289.93164 C 319.44431 289.93164 321.79505 288.88019 323.37305 286.86719 C 335.85905 270.93419 343.35725 252.27509 345.40625 232.37109 C 360.54625 229.38009 372.00195 216.005 372.00195 200 L 372.00195 195 C 372.00195 190.582 368.41995 187 364.00195 187 C 359.58395 187 356.00195 190.582 356.00195 195 L 356.00195 200 C 356.00195 206.877 351.88995 212.80061 346.00195 215.47461 L 346.00195 167 L 407.00195 167 C 423.95895 167 439.893 158.69706 449.625 144.78906 C 460.749 128.89206 449.38966 107 429.97266 107 L 364.56836 107 C 355.28436 45.677 302.38795 0 240.00195 0 z M 243.08203 16.046875 C 295.92103 17.474875 339.52014 55.541 348.36914 107 L 299.09961 107 C 297.60361 96.059 295.18081 85.335344 291.88281 75.027344 C 293.37881 74.910344 294.87928 74.796922 296.36328 74.669922 C 300.76428 74.291922 304.02644 70.415672 303.64844 66.013672 C 303.27244 61.613672 299.43114 58.364516 294.99414 58.728516 C 292.05014 58.981516 289.07017 59.205016 286.07617 59.416016 C 283.35917 53.033016 280.30444 46.862562 276.89844 40.976562 C 274.68544 37.151562 269.7908 35.844641 265.9668 38.056641 C 262.1428 40.269641 260.83683 45.163281 263.04883 48.988281 C 265.17983 52.671281 267.16495 56.475766 269.00195 60.384766 C 249.87295 61.204766 230.31977 61.208672 211.00977 60.388672 C 219.02877 43.419672 229.90903 28.358875 243.08203 16.046875 z M 219.26367 17.960938 C 208.97067 30.229937 200.4153 44.209641 193.9043 59.431641 C 180.4603 58.487641 167.63253 57.120422 155.64453 55.357422 C 171.88353 35.906422 194.29667 22.702937 219.26367 17.960938 z M 215.00195 187 C 210.58395 187 207.00195 190.582 207.00195 195 L 207.00195 209 C 207.00195 213.418 210.58395 217 215.00195 217 C 219.41995 217 223.00195 213.418 223.00195 209 L 223.00195 195 C 223.00195 190.582 219.41995 187 215.00195 187 z M 265.00195 187 C 260.58395 187 257.00195 190.582 257.00195 195 L 257.00195 209 C 257.00195 213.418 260.58395 217 265.00195 217 C 269.41995 217 273.00195 213.418 273.00195 209 L 273.00195 195 C 273.00195 190.582 269.41995 187 265.00195 187 z M 190.41992 336.72461 C 188.11564 336.79673 185.86084 337.85884 184.33984 339.82422 C 178.83084 346.94022 171.41448 352.25536 162.89648 355.19336 L 119.79688 370.05469 C 94.792875 378.71969 78.001953 402.30444 78.001953 428.77344 L 78.001953 472 C 78.001953 476.418 81.583953 480 86.001953 480 C 90.419953 480 94.001953 476.418 94.001953 472 L 94.001953 428.77344 C 94.001953 409.48744 106.01095 392.27169 124.00195 385.55469 L 124.00195 472 C 124.00195 476.418 127.58395 480 132.00195 480 C 136.41995 480 140.00195 476.418 140.00195 472 L 140.00195 380.01367 C 171.70395 369.08267 167.95627 370.38503 169.44727 369.83203 C 193.28927 411.96303 249.07898 424.37234 288.58398 394.77734 C 292.11998 392.12934 292.83945 387.11608 290.18945 383.58008 C 287.54045 380.04208 282.52519 379.32261 278.99219 381.97461 C 247.55419 405.52261 203.00719 396.04753 183.61719 362.39453 C 188.65719 358.84953 193.16719 354.55819 196.99219 349.61719 C 199.69619 346.12419 199.0565 341.09853 195.5625 338.39453 C 194.03431 337.21153 192.21214 336.66852 190.41992 336.72461 z" style="fill: #659D77;"/></svg>