<svg id="Capa_1" enable-background="new 0 0 512 512" height="512" viewBox="0 0 512 512" width="512" xmlns="http://www.w3.org/2000/svg"><g><g><path d="m84.66 191.016h342.681v189.099h-342.681z" fill="#ffbdbc"/></g><g fill="#020288"><path d="m476.566 44.91h-441.132c-19.538 0-35.434 16.009-35.434 35.688v350.804c0 19.679 15.896 35.688 35.434 35.688h441.132c19.539 0 35.434-16.01 35.434-35.688v-350.804c0-19.679-15.896-35.688-35.434-35.688zm-456.566 35.688c0-8.651 6.924-15.688 15.434-15.688h441.132c8.51 0 15.434 7.038 15.434 15.688v39.765h-472zm472 350.804c0 8.65-6.924 15.688-15.434 15.688h-441.132c-8.51 0-15.434-7.038-15.434-15.688v-291.039h472z"/><path d="m82.894 82.637h-13.788c-5.523 0-10 4.477-10 10s4.477 10 10 10h13.787c5.523 0 10-4.477 10-10 .001-5.523-4.477-10-9.999-10z"/><path d="m139.958 82.637h-13.788c-5.523 0-10 4.477-10 10s4.477 10 10 10h13.787c5.523 0 10-4.477 10-10 .001-5.523-4.477-10-9.999-10z"/><path d="m197.021 82.637h-13.788c-5.523 0-10 4.477-10 10s4.477 10 10 10h13.788c5.523 0 10-4.477 10-10s-4.477-10-10-10z"/><path d="m442.894 82.637h-48.936c-5.523 0-10 4.477-10 10s4.477 10 10 10h48.936c5.523 0 10-4.477 10-10s-4.477-10-10-10z"/><path d="m160.519 317.325h27.69c-.032 4.311-.065 8.437-.098 12.199-.048 5.522 4.391 10.038 9.914 10.085.029.001.058.001.088.001 5.482-.001 9.95-4.421 9.998-9.914.026-2.997.062-7.32.101-12.375 5.395-.147 9.723-4.566 9.723-9.996 0-5.385-4.257-9.776-9.589-9.992.102-17.898.144-36.143-.08-38.826-.553-6.63-4.581-12.051-10.263-13.811-5.661-1.753-11.637.386-15.987 5.723-4.372 5.364-24.26 41.214-30.251 52.074-1.709 3.098-1.654 6.868.145 9.915 1.796 3.047 5.071 4.917 8.609 4.917zm27.903-39.211c-.014 5.729-.043 12.358-.082 19.21h-10.818c3.894-6.947 7.674-13.614 10.9-19.21z"/><path d="m304.066 317.325h27.689c-.032 4.311-.065 8.437-.098 12.198-.048 5.523 4.391 10.039 9.913 10.086.03.001.059.001.088.001 5.482-.001 9.95-4.421 9.998-9.914.026-2.998.062-7.32.101-12.375 5.395-.147 9.723-4.566 9.723-9.996 0-5.385-4.256-9.776-9.589-9.992.101-17.898.144-36.143-.08-38.825-.552-6.63-4.58-12.051-10.262-13.811-5.663-1.753-11.638.386-15.989 5.723-4.372 5.364-24.26 41.214-30.251 52.074-1.709 3.098-1.654 6.868.145 9.915 1.8 3.046 5.074 4.916 8.612 4.916zm27.903-39.211c-.014 5.73-.043 12.358-.082 19.21h-10.818c3.893-6.946 7.675-13.614 10.9-19.21z"/><path d="m257.577 343.349c17.553 0 31.834-14.281 31.834-31.835v-34.918c0-17.554-14.281-31.835-31.834-31.835-17.554 0-31.834 14.281-31.834 31.835v34.918c-.001 17.554 14.28 31.835 31.834 31.835zm-11.835-66.752c0-6.525 5.309-11.835 11.834-11.835s11.834 5.309 11.834 11.835v34.918c0 6.525-5.309 11.835-11.834 11.835s-11.834-5.309-11.834-11.835z"/></g></g></svg>