<svg id="Capa_1" enable-background="new 0 0 512 512" height="512" viewBox="0 0 512 512" width="512" xmlns="http://www.w3.org/2000/svg"><g><path d="m403.5 87v425h-383c-8.28 0-15-6.72-15-15v-410c0-8.28 6.72-15 15-15h368c8.28 0 15 6.72 15 15z" fill="#5f55af"/><path d="m388.5 72h-184v440h199v-425c0-8.28-6.72-15-15-15z" fill="#453d83"/><path d="m300.5 40h-49.52c-3.391-22.606-22.943-40-46.48-40s-43.089 17.394-46.48 40h-49.52c-8.284 0-15 6.716-15 15v64c0 8.284 6.716 15 15 15h192c8.284 0 15-6.716 15-15v-64c0-8.284-6.716-15-15-15z" fill="#edf5ff"/><path d="m148.5 193h-64c-8.284 0-15 6.716-15 15v64c0 8.284 6.716 15 15 15h64c8.284 0 15-6.716 15-15v-64c0-8.284-6.716-15-15-15z" fill="#97de3d"/><g><g><path d="m323.5 255h-95c-8.284 0-15-6.716-15-15s6.716-15 15-15h95c8.284 0 15 6.716 15 15s-6.716 15-15 15z" fill="#d5e8fe"/></g></g><path d="m148.5 337h-64c-8.284 0-15 6.716-15 15v64c0 8.284 6.716 15 15 15h64c8.284 0 15-6.716 15-15v-64c0-8.284-6.716-15-15-15z" fill="#ff7b4a"/><g><g><path d="m304.11 399h-75.61c-8.284 0-15-6.716-15-15s6.716-15 15-15h75.61c8.284 0 15 6.716 15 15s-6.716 15-15 15z" fill="#d5e8fe"/></g></g><circle cx="403.5" cy="409" fill="#fed843" r="103"/><path d="m506.5 409c0-56.794-46.206-103-103-103v206c56.794 0 103-46.206 103-103z" fill="#ff9100"/><g><g><path d="m391.5 455c-3.924 0-7.695-1.538-10.501-4.289l-24-23.529c-5.916-5.8-6.01-15.297-.21-21.212 5.799-5.915 15.296-6.01 21.212-.21l13.176 12.917 37.502-39.064c5.737-5.977 15.232-6.169 21.209-.434 5.976 5.737 6.17 15.233.433 21.209l-48 50c-2.774 2.89-6.588 4.55-10.593 4.61-.077.001-.152.002-.228.002z" fill="#97de3d"/></g></g><path d="m300.5 134c8.284 0 15-6.716 15-15v-64c0-8.284-6.716-15-15-15h-49.52c-3.391-22.606-22.943-40-46.48-40v134z" fill="#d5e8fe"/><path d="m428.679 379.612-25.179 26.228v43.319l46.821-48.771c5.737-5.976 5.543-15.472-.433-21.209-5.976-5.736-15.471-5.543-21.209.433z" fill="#59c36a"/></g></svg>