<svg version="1.1" xmlns="http://www.w3.org/2000/svg" xmlns:xlink="http://www.w3.org/1999/xlink" x="0px" y="0px" viewBox="0 0 392.517 392.517" style="enable-background:new 0 0 392.517 392.517;" xml:space="preserve"><path d="M70.359,147.507c6.012,0,10.925-4.848,10.925-10.925V71.03l22.885,8.145v72.081c0,6.012,4.848,10.925,10.925,10.925h1.099c5.301,39.564,39.24,70.141,80.226,70.141s74.861-30.578,80.226-70.141h0.84c6.012,0,10.925-4.848,10.925-10.925V79.176l37.495-13.317c10.214-3.879,9.051-17.907,0-20.558L199.846,0.63c-2.392-0.84-4.913-0.84-7.24,0L66.739,45.301c-4.331,1.552-7.24,5.624-7.24,10.279v80.873C59.434,142.594,64.283,147.507,70.359,147.507z M196.291,210.537c-28.897,0-53.01-20.881-58.182-48.291h116.364C249.365,189.657,225.252,210.537,196.291,210.537z M266.432,140.396H125.955V86.933l66.586,23.661c2.392,0.84,4.848,0.84,7.24,0l66.586-23.661v53.463H266.432z M196.226,22.545l93.285,33.099l-93.285,33.099l-93.285-33.099L196.226,22.545z" fill="#4175df"/><path d="M322.868,287.984c-38.659-20.881-82.295-32.323-126.836-33.164c-44.024,0.84-87.725,12.283-126.319,33.164c-14.287,7.758-23.273,22.497-23.273,38.529v33.293c0,18.036,14.675,32.711,32.711,32.711h234.214c17.842,0,32.711-14.352,32.711-32.711v-33.293C346.141,310.545,337.22,295.677,322.868,287.984z M324.355,359.871c0.129,5.301-3.879,10.667-10.925,10.796h-24.954v-17.519c0-6.012-4.848-10.925-10.925-10.925c-6.077,0-10.99,4.848-10.99,10.925v17.648H125.955v-17.648c0-6.012-4.848-10.925-10.925-10.925c-6.077,0-10.925,4.848-10.925,10.925v17.648H79.151c-6.012,0-10.925-4.848-10.925-10.925v-33.293c0-8.016,4.461-15.451,11.766-19.394c35.556-19.265,75.83-29.737,115.976-30.513c40.663,0.776,80.873,11.378,116.428,30.513c7.24,3.943,11.766,11.378,11.766,19.394v33.293H324.355z" fill="#4175df"/></svg>