<svg xmlns="http://www.w3.org/2000/svg" viewBox="0 0 25 25"><path d="M17.5,23c-3.033,0-5.5-2.467-5.5-5.5s2.467-5.5,5.5-5.5s5.5,2.467,5.5,5.5S20.533,23,17.5,23z M17.5,14 c-1.93,0-3.5,1.57-3.5,3.5s1.57,3.5,3.5,3.5s3.5-1.57,3.5-3.5S19.43,14,17.5,14z" fill="#4086f4"/><rect width="2" height="5.046" x="21.466" y="19.943" transform="rotate(-45.001 22.466 22.466)" fill="#4175df"/><path d="M10,21H1c-0.552,0-1-0.448-1-1v-4c0-2.206,1.794-4,4-4h7v2H4c-1.103,0-2,0.897-2,2v3h8V21z" fill="#4175df"/><path d="M8.5,11c-2.757,0-5-2.243-5-5s2.243-5,5-5s5,2.243,5,5S11.257,11,8.5,11z M8.5,3c-1.654,0-3,1.346-3,3 s1.346,3,3,3s3-1.346,3-3S10.154,3,8.5,3z" fill="#4175df"/><path d="M11.398,6.576c-1.161,0-2.021-0.694-2.527-1.255C6.984,6.659,4.85,6.588,4.19,6.526l0.14-1.493 c0.582,0.054,2.602,0.12,4.159-1.332c0.167-0.156,0.393-0.226,0.623-0.193C9.338,3.542,9.536,3.678,9.65,3.876 c0.006,0.01,0.812,1.355,1.977,1.182l0.227,1.482C11.697,6.565,11.545,6.576,11.398,6.576z" fill="#4086f4"/></svg>