<svg xmlns="http://www.w3.org/2000/svg" xmlns:xlink="http://www.w3.org/1999/xlink" version="1.1" x="0px" y="0px" viewBox="0 0 512 512" style="enable-background:new 0 0 512 512;" xml:space="preserve"><path d="M456.022,338.48c-10.354,0-301.772,0-315.032,0H68.612H27.527c0,5.203,0,118.446,0,128.833  c0,9.897,8.023,17.92,17.919,17.92h421.108c9.899,0,17.92-8.023,17.92-17.92V338.48H456.022z" fill="#559bfd"/><path d="M140.99,338.48H68.612H27.527v34.023c0,9.896,8.023,17.919,17.919,17.919h421.108  c9.899,0,17.92-8.023,17.92-17.919V338.48h-28.452C445.668,338.48,154.25,338.48,140.99,338.48z" fill="#4175df"/><path d="M487.323,121.928H24.676c-9.404,0-17.03,7.624-17.03,17.029v184.49c0,9.405,7.626,17.03,17.03,17.03  h43.934v-19.117c0-2.384,1.932-4.315,4.314-4.315h63.749c2.382,0,4.316,1.932,4.316,4.315v19.117h230.021v-19.117  c0-2.384,1.932-4.315,4.315-4.315h63.748c2.382,0,4.316,1.932,4.316,4.315v19.117h43.932c9.406,0,17.03-7.625,17.03-17.03V138.956  C504.353,129.553,496.728,121.928,487.323,121.928z" fill="#4175df"/><path d="M487.323,121.928H136.064c-3.96,17.553-6.061,35.809-6.061,54.558  c0,62.951,23.574,120.385,62.36,163.991h178.65v-19.117c0-2.384,1.932-4.315,4.315-4.315h63.748c2.382,0,4.316,1.932,4.316,4.315  v19.117h43.932c9.406,0,17.03-7.625,17.03-17.03V138.956C504.353,129.553,496.728,121.928,487.323,121.928z" fill="#559bfd"/><path d="M299.284,301.536c0,1.912-1.549,3.463-3.462,3.463h-79.645c-1.913,0-3.462-1.551-3.462-3.463v-27.701  c0-1.914,1.549-3.464,3.462-3.464h79.645c1.913,0,3.462,1.551,3.462,3.464V301.536z" fill="#559bfd"/><path d="M295.823,287.685h-79.645c-1.913,0-3.462-1.551-3.462-3.463v17.314c0,1.912,1.549,3.463,3.462,3.463  h79.645c1.913,0,3.462-1.551,3.462-3.463v-17.314C299.284,286.134,297.735,287.685,295.823,287.685z" fill="#4175df"/><path d="M399.571,70.477h-15.61c-2.502,0-4.537-2.037-4.537-4.537c0-5.721,0.04-5.7-0.136-6.953  c2.13-15.104-10.692-32.221-29.387-32.221c-6.588,0-171.212,0-187.801,0c-18.665,0-31.497,17.087-29.387,32.221  c-0.177,1.266-0.136,1.218-0.136,6.953c0,2.5-2.035,4.537-4.537,4.537h-15.611c-6.899,0-12.494,5.592-12.494,12.494  c0,6.898,5.594,12.494,12.494,12.494h15.611c17.458,0,32.382-15.248,29.387-36.476c0.159-1.13,0.136-1.61,0.136-2.697  c0-2.501,2.035-4.536,4.536-4.536c2.129,0,182.611,0,187.801,0c2.502,0,4.537,2.035,4.537,4.536c0,1.089-0.023,1.566,0.136,2.697  c-0.176,1.252-0.136,1.233-0.136,6.953c0,16.279,13.244,29.524,29.524,29.524h15.61c6.899,0,12.494-5.595,12.494-12.494  C412.063,76.07,406.47,70.477,399.571,70.477z" fill="#559bfd"/><path d="M265.899,51.486h-3.55c-6.899,0-12.494-5.594-12.494-12.494c0-6.019,4.259-11.043,9.927-12.227  h-97.683c-18.665,0-31.497,17.087-29.387,32.221c-0.177,1.266-0.136,1.218-0.136,6.953c0,2.5-2.035,4.537-4.537,4.537h-15.611  c-6.899,0-12.494,5.592-12.494,12.494c0,6.898,5.594,12.494,12.494,12.494h15.611c17.458,0,32.382-15.248,29.387-36.476  c0.159-1.13,0.136-1.61,0.136-2.697c0-2.501,2.035-4.536,4.536-4.536h103.8v-0.269H265.899z" fill="#4175df"/>
<path d="M140.99,359.595c0,2.383-1.933,4.316-4.316,4.316H72.925c-2.382,0-4.314-1.933-4.314-4.316v-38.234   c0-2.384,1.932-4.315,4.314-4.315h63.749c2.382,0,4.316,1.932,4.316,4.315V359.595z" fill="#ffffff"/><path d="M443.39,359.595c0,2.383-1.935,4.316-4.316,4.316h-63.748c-2.383,0-4.315-1.933-4.315-4.316v-38.234   c0-2.384,1.932-4.315,4.315-4.315h63.748c2.382,0,4.316,1.932,4.316,4.315V359.595z" fill="#ffffff"/><path d="M136.674,340.478H72.925c-2.382,0-4.314-1.933-4.314-4.316v23.432c0,2.383,1.932,4.316,4.314,4.316   h63.749c2.382,0,4.316-1.933,4.316-4.316v-23.432C140.99,338.546,139.056,340.478,136.674,340.478z" fill="#DDDDDD"/><path d="M439.074,340.478h-63.748c-2.383,0-4.315-1.933-4.315-4.316v23.432c0,2.383,1.932,4.316,4.315,4.316   h63.748c2.382,0,4.316-1.933,4.316-4.316v-23.432C443.39,338.546,441.456,340.478,439.074,340.478z" fill="#DDDDDD"/><path d="M216.155,262.878c-6.045,0-10.965,4.919-10.965,10.967v27.718c0,6.046,4.918,10.966,10.965,10.966h79.692  c6.046,0,10.965-4.919,10.965-10.966v-27.718c0-6.047-4.918-10.967-10.965-10.967L216.155,262.878L216.155,262.878z M291.81,297.527  h-71.618V277.88h71.618V297.527z"/><path d="M112.344,102.869h15.62c20.038,0,39.237-16.163,36.979-43.735h182.114c-2.21,26.991,16.451,43.735,36.979,43.735h15.62  c11.029,0,20.001-8.973,20.001-20.001s-8.973-20.001-20.001-20.001h-12.659V57.12c0-22.64-17.549-37.988-37.041-37.988h-16.589  c-4.143,0-7.5,3.357-7.5,7.5s3.357,7.5,7.5,7.5h16.589c11.197,0,22.04,8.599,22.04,22.987c0,0,0,8.707,0,8.708  c0,6.639,5.4,12.04,12.04,12.04h15.62c2.757,0,5,2.243,5,5s-2.243,5-5,5h-15.62c-12.153,0-22.04-9.888-22.04-22.04v-5.206  c0-1,0.281-1.249,0.063-2.799c-0.085-0.592-0.063-0.65-0.063-1.65c0-6.639-5.4-12.04-12.04-12.04H162.046  c-6.638,0-12.04,5.4-12.04,12.04c0,1,0.021,1.056-0.063,1.65c-0.218,1.545,0.063,1.799,0.063,2.799v5.206  c0,12.153-9.888,22.04-22.04,22.04h-15.62c-2.757,0-5-2.243-5-5s2.243-5,5-5h15.62c6.638,0,12.04-5.4,12.04-12.04  c0-0.001,0-8.707,0-8.707c0-14.148,10.628-22.988,22.04-22.988h144.365c4.143,0,7.5-3.357,7.5-7.5s-3.357-7.5-7.5-7.5H162.044  c-20.424,0-37.041,16.616-37.041,37.041c0,0.125,0,6.694,0,6.694h-12.659c-11.029,0-20.001,8.973-20.001,20.001  S101.316,102.869,112.344,102.869z"/><path d="M504.5,171.814c4.143,0,7.5-3.357,7.5-7.5v-25.425c0-13.531-11.009-24.539-24.54-24.539H24.54  C11.009,114.349,0,125.358,0,138.888v184.599c0,11.943,8.576,21.914,19.892,24.093v119.857c0,14.022,11.408,25.43,25.43,25.43h32.03  c4.142,0,7.5-3.357,7.5-7.5c0-4.143-3.358-7.5-7.5-7.5H45.322c-5.75,0-10.43-4.679-10.43-10.43v-119.41h26.107v11.628  c0,6.517,5.301,11.819,11.817,11.819h63.786c6.517,0,11.819-5.302,11.819-11.819v-11.628h215.156v11.628  c0,6.517,5.301,11.819,11.818,11.819h63.786c6.517,0,11.819-5.302,11.819-11.819v-11.628h26.106v119.409  c0,5.75-4.679,10.43-10.431,10.43H104.354c-4.142,0-7.5,3.357-7.5,7.5c0,4.143,3.358,7.5,7.5,7.5h362.324  c14.022,0,25.431-11.408,25.431-25.43V347.58C503.424,345.401,512,335.43,512,323.487V190.308c0-4.143-3.357-7.5-7.5-7.5  s-7.5,3.357-7.5,7.5v133.18c0,5.26-4.279,9.54-9.54,9.54h-2.851h-33.607V321.4c0-6.517-5.302-11.819-11.819-11.819h-63.786  c-6.517,0-11.818,5.302-11.818,11.819v11.628H148.422V321.4c0-6.517-5.302-11.819-11.819-11.819H72.817  C66.301,309.581,61,314.883,61,321.4v11.628c-12.76,0-23.641,0-36.46,0c-5.26,0-9.54-4.279-9.54-9.54V138.888  c0-5.26,4.279-9.539,9.54-9.539H487.46c5.26,0,9.54,4.278,9.54,9.539v25.425C496.999,168.456,500.356,171.814,504.5,171.814z   M378.579,324.581h57.421c0,11.541,0,20.352,0,31.893h-57.421C378.579,344.933,378.579,336.122,378.579,324.581z M76.001,324.581  h57.42c0,11.541,0,20.352,0,31.893h-57.42C76.001,344.933,76.001,336.122,76.001,324.581z"/>
</svg>