<svg enable-background="new 0 0 512 512" height="512" viewBox="0 0 512 512" width="512" xmlns="http://www.w3.org/2000/svg"><g><g><path d="m37.812 56.835h436.375v313.741h-436.375z" fill="#e6f7ff"/><path d="m255.834 56.835h218.353v313.741h-218.353z" fill="#c3e9fb"/><path d="m474.188 386.509h-436.376c-8.8 0-15.934-7.134-15.934-15.934v-313.74c0-8.8 7.134-15.934 15.934-15.934h436.376c8.8 0 15.934 7.134 15.934 15.934v313.74c0 8.8-7.134 15.934-15.934 15.934zm-420.442-31.868h404.507v-281.872h-404.507z" fill="#0089ff"/><path d="m469.672 471.099h-427.344c-23.377 0-42.328-18.95-42.328-42.328v-63.858c0-6.107 4.951-11.058 11.058-11.058h489.884c6.107 0 11.058 4.951 11.058 11.058v63.858c0 23.378-18.951 42.328-42.328 42.328z" fill="#004db6"/><path d="m474.188 40.901h-218.354v31.868h202.419v281.872h-202.419v31.868h218.353c8.8 0 15.934-7.134 15.934-15.934v-313.74c.001-8.8-7.133-15.934-15.933-15.934z" fill="#295fcc"/><path d="m255.834 471.099h213.837c23.377 0 42.328-18.951 42.328-42.328v-63.858c0-6.107-4.951-11.058-11.058-11.058h-245.107z" fill="#192b80"/><g><path d="m277.784 132.478h-43.569c-8.8 0-15.934-7.134-15.934-15.934s7.134-15.934 15.934-15.934h43.569c8.8 0 15.934 7.134 15.934 15.934s-7.133 15.934-15.934 15.934z" fill="#004db6"/></g><path d="m277.784 100.609h-21.95v31.868h21.95c8.8 0 15.934-7.134 15.934-15.934.001-8.8-7.133-15.934-15.934-15.934z" fill="#192b80"/><path d="m309.154 411.333h-106.64c-10.968 0-19.86-8.892-19.86-19.86v-37.618h146.36v37.618c0 10.968-8.891 19.86-19.86 19.86z" fill="#00aeee"/><path d="m255.834 411.333h53.32c10.968 0 19.86-8.891 19.86-19.86v-37.617h-73.18z" fill="#0089ff"/></g><path d="m273.582 306.815c5.996 4.16 14.056 3.698 19.539-1.117l81.642-71.697-.919 8.84c-.908 8.728 5.432 16.539 14.16 17.448.558.058 1.113.086 1.663.086 8.036 0 14.934-6.077 15.783-14.245l5.117-49.192c1.932-17.401-10.829-17.601-15.806-17.53h-54.514c-8.775 0-15.888 7.114-15.888 15.888s7.114 15.888 15.888 15.888h12.348l-71.107 62.445-87.038-60.369c-6.54-4.537-15.423-3.534-20.787 2.341l-76.693 83.98c-5.917 6.479-5.461 16.529 1.018 22.446 3.047 2.784 6.884 4.156 10.71 4.156 4.308 0 8.603-1.742 11.737-5.174l67.323-73.721z" fill="#ff9100"/><path d="m410.567 196.937-5.12 49.19c-.85 8.17-7.75 14.25-15.78 14.25-.55 0-1.11-.03-1.67-.09-8.72-.91-15.06-8.72-14.16-17.45l.92-8.84-81.64 71.7c-5.48 4.81-13.54 5.28-19.54 1.12l-17.75-12.31v-38.68l25.66 17.8 71.11-62.45h-12.35c-8.78 0-15.89-7.11-15.89-15.88 0-8.78 7.11-15.89 15.89-15.89h54.51c4.98-.07 17.74.13 15.81 17.53z" fill="#ff5e00"/></g></svg>