<svg enable-background="new 0 0 512 512" height="512" viewBox="0 0 512 512" width="512" xmlns="http://www.w3.org/2000/svg"><g><path d="m256 373.5 29.667 89.54-29.667 48.96h-123.03c-8.28 0-15-6.72-15-15s6.72-15 15-15h46.64l14.47-78.5 3.27-17.72c1.31-7.11 7.51-12.28 14.75-12.28z" fill="#5f55ae"/><path d="m394.03 497c0 8.28-6.72 15-15 15h-123.03v-138.5h43.9c7.24 0 13.44 5.17 14.75 12.28l3.27 17.72 14.47 78.5h46.64c8.28 0 15 6.72 15 15z" fill="#3b3b72"/><path d="m256 56.48 85.667 171.895-85.667 129.095-255.99-31.07c-.01-.17-.01-.35-.01-.53v-238.89c0-16.82 13.68-30.5 30.5-30.5z" fill="#f7f9fa"/><path d="m512 86.98v238.89c0 .18 0 .36-.01.53l-255.99 31.07v-300.99h225.5c16.82 0 30.5 13.68 30.5 30.5z" fill="#d1cff1"/><path d="m256 0 51 116.131-51 163.169c-11.04 0-20.64-6.7-24.46-17.06l-11.57-31.49h-92.34c-19.61 0-35.57-15.96-35.57-35.57v-159.61c0-19.61 15.96-35.57 35.57-35.57z" fill="#85c882"/><path d="m419.94 35.57v159.61c0 19.61-15.96 35.57-35.57 35.57h-92.34l-11.57 31.49c-3.82 10.36-13.42 17.06-24.46 17.06v-279.3h128.37c19.61 0 35.57 15.96 35.57 35.57z" fill="#00baa0"/><path d="m256 60.18 25 60.153-25 45.217-.03-.01-17.36 5.59c-12.6 4.073-25.633-5.167-25.91-18.47l-.39-18.85-10.46-14.71c-7.578-10.685-2.935-25.63 9.36-30.12l17.78-6.5 11.34-14.62c3.78-4.88 9.49-7.68 15.67-7.68z" fill="#ffd944"/><path d="m310.12 119.14-10.49 14.67-.33 18.79c-.233 13.245-13.18 22.608-25.9 18.54l-17.4-5.59v-105.37c6.163 0 11.91 2.794 15.7 7.72l11.25 14.58 17.82 6.49c12.319 4.491 16.974 19.48 9.35 30.17z" fill="#ff9e22"/><path d="m256 326.4 25 38.55-25 38.55h-225.5c-16.84 0-30.5-13.66-30.5-30.5v-46.6z" fill="#8078be"/><path d="m512 326.4v46.6c0 16.84-13.66 30.5-30.5 30.5h-225.5v-77.1z" fill="#5f55ae"/></g></svg>