<svg enable-background="new 0 0 512 512" height="512" viewBox="0 0 512 512" width="512" xmlns="http://www.w3.org/2000/svg"><g><path d="m256 0 52.657 257.991-52.657 254.009c-68.38 0-132.67-26.63-181.02-74.98-48.35-48.35-74.98-112.64-74.98-181.02s26.63-132.67 74.98-181.02 112.64-74.98 181.02-74.98z" fill="#fff26c"/><path d="m512 256c0 68.38-26.63 132.67-74.98 181.02s-112.64 74.98-181.02 74.98v-512c68.38 0 132.67 26.63 181.02 74.98s74.98 112.64 74.98 181.02z" fill="#ffd944"/><path d="m256 96.49 16 169.362-16 124.648-.12-.04-72.86 23.49c-9.75 3.15-20.11 1.54-28.45-4.4-8.33-5.94-13.23-15.22-13.44-25.45l-1.6-78.18-43.67-61.44c-5.84-8.22-7.47-18.45-4.48-28.08s10.14-17.14 19.61-20.6l72.98-26.67 46.7-60.23c6.11-7.89 15.35-12.41 25.33-12.41z" fill="#ffd944"/><path d="m416.09 244.55-43.85 61.37-1.36 78.08c-.18 10.25-5.07 19.55-13.4 25.51-5.55 3.97-12 6.02-18.57 6.02-3.3 0-6.63-.52-9.9-1.57l-73.01-23.46v-294.01h.04c10 .01 19.24 4.56 25.34 12.47l46.41 60.17 73.19 26.66c9.5 3.46 16.66 10.98 19.65 20.63s1.34 19.9-4.54 28.13z" fill="#ff9e22"/><path d="m256 209.89 7.333 56.11-7.333 56.11c-8.28 0-15-6.71-15-15v-26.11h-26.11c-8.29 0-15-6.72-15-15s6.71-15 15-15h26.11v-26.11c0-8.29 6.72-15 15-15z" fill="#85c882"/><path d="m312.11 266c0 8.28-6.71 15-15 15h-26.11v26.11c0 8.29-6.72 15-15 15v-112.22c8.28 0 15 6.71 15 15v26.11h26.11c8.29 0 15 6.72 15 15z" fill="#00baa0"/></g></svg>