<svg id="Capa_1" enable-background="new 0 0 512 512" height="512" viewBox="0 0 512 512" width="512" xmlns="http://www.w3.org/2000/svg"><g><g><g><g><g><g><g><path d="m467 371h-422c-8.284 0-15-6.716-15-15v-250c0-24.813 20.187-45 45-45h362c24.813 0 45 20.187 45 45v250c0 8.284-6.716 15-15 15z" fill="#55696e"/><path d="m437 61h-181v310h211c8.284 0 15-6.716 15-15v-250c0-24.813-20.187-45-45-45z" fill="#3f4a4a"/><g><path d="m60 371h392v-265c0-8.271-6.729-15-15-15h-362c-8.271 0-15 6.729-15 15z" fill="#beebfa"/></g><path d="m437 91h-181v280h196v-265c0-8.271-6.729-15-15-15z" fill="#7ed8f7"/></g><g><path d="m30 353.28-29.045 77.453c-.632 1.684-.955 3.468-.955 5.267 0 8.284 6.716 15 15 15h482c8.284 0 15-6.716 15-15 0-1.799-.323-3.583-.955-5.267l-29.045-77.453z" fill="#738c96"/></g><path d="m482 353.28h-226v97.72h241c8.284 0 15-6.716 15-15 0-1.799-.323-3.583-.955-5.267z" fill="#55696e"/><path d="m0 466c0 24.813 20.187 45 45 45h422c24.813 0 45-20.187 45-45v-30h-512z" fill="#55696e"/><path d="m256 511h211c24.813 0 45-20.187 45-45v-30h-256z" fill="#3f4a4a"/></g></g></g></g></g><g><g><path d="m375.999 201c-1.378 0-2.764-.19-4.12-.577l-64.452-18.415c-6.541-1.869-11.005-7.905-10.877-14.707l1.112-58.731c.094-4.991 2.666-9.608 6.859-12.316 4.192-2.708 9.458-3.153 14.047-1.187l17.383 7.45c33.441 14.332 55.049 47.101 55.049 83.483 0 4.707-2.209 9.141-5.967 11.975-2.632 1.986-5.811 3.025-9.034 3.025z" fill="#ebe1dc"/></g><g><path d="m136.001 201c-3.224 0-6.401-1.039-9.034-3.025-3.758-2.834-5.967-7.268-5.967-11.975 0-36.382 21.608-69.151 55.048-83.483l17.383-7.45c4.587-1.967 9.854-1.521 14.047 1.187s6.765 7.325 6.859 12.316l1.112 58.731c.128 6.801-4.336 12.838-10.877 14.707l-64.452 18.415c-1.355.387-2.741.577-4.119.577z" fill="#f5f0eb"/></g><g><path d="m266.006 4.825c-5.696-5.101-14.316-5.101-20.013 0-1.852 1.66-32.806 29.789-51.317 71.175l61.324 32 61.324-32c-18.511-41.386-49.465-69.515-51.318-71.175z" fill="#ff9100"/></g><path d="m317.324 76c-18.511-41.386-49.465-69.515-51.318-71.175-2.848-2.55-6.427-3.825-10.006-3.825v107z" fill="#ff6426"/><g><path d="m256 353.562c-4.89 0-9.484-2.392-12.289-6.398l-21.666-30.951c-11.808-16.869-9.503-39.506 5.479-53.828.931-.89 2.168-1.386 3.455-1.386h50.04c1.287 0 2.524.496 3.455 1.386 14.982 14.321 17.287 36.959 5.479 53.828l-21.666 30.951c-2.803 4.007-7.397 6.398-12.287 6.398z" fill="#fff79f"/></g><path d="m268.289 347.164 21.666-30.951c11.808-16.869 9.503-39.506-5.479-53.828-.931-.89-2.168-1.386-3.455-1.386h-25.021v92.562c4.89.001 9.484-2.39 12.289-6.397z" fill="#ffde55"/><g><path d="m316 281h-120c-4.849 0-9.399-2.344-12.214-6.292s-3.547-9.014-1.967-13.598l20.69-60c2.086-6.05 7.781-10.11 14.181-10.11h78.62c6.399 0 12.094 4.06 14.181 10.11l20.69 60c1.581 4.584.848 9.65-1.967 13.598s-7.365 6.292-12.214 6.292z" fill="#f5f0eb"/></g><path d="m256 281h60c4.849 0 9.399-2.344 12.214-6.292s3.547-9.014 1.967-13.598l-20.69-60c-2.086-6.05-7.781-10.11-14.181-10.11h-39.31z" fill="#ebe1dc"/><path d="m194.676 76c-7.998 17.881-13.676 38.233-13.676 60 0 23.236 6.513 47.224 19.342 71.395h111.316c12.829-24.171 19.342-48.159 19.342-71.395 0-21.767-5.678-42.119-13.676-60z" fill="#fff5f5"/><path d="m256 207.395h55.658c12.829-24.171 19.342-48.159 19.342-71.395 0-21.767-5.678-42.119-13.676-60h-61.324z" fill="#f5f0eb"/><circle cx="256" cy="136" fill="#beebfa" r="15"/><path d="m271 136c0-8.284-6.716-15-15-15v30c8.284 0 15-6.716 15-15z" fill="#7ed8f7"/></g></g></svg>