<svg id="Layer_1" enable-background="new 0 0 512 512" height="512" viewBox="0 0 512 512" width="512" xmlns="http://www.w3.org/2000/svg"><g><path d="m257.755 381.176-126.547-126.547-42.607 42.607c-19.548 19.548-19.548 51.242 0 70.79l55.757 55.757c19.548 19.548 51.242 19.548 70.79 0z" fill="#ffe705"/><path d="m144.256 423.682-27.288-27.288 81.741-81.741 62.785 62.785-46.244 46.244c-19.604 19.604-51.39 19.604-70.994 0z" fill="#ffcb00"/><path d="m15.408 418.41 25.153-25.153c21.965-21.965 57.578-21.965 79.544 0 21.965 21.965 21.965 57.578 0 79.544l-11.026 11.026-63.346-16.198z" fill="#ffcbbc"/><path d="m120.105 393.257c21.965 21.965 21.965 57.578 0 79.544l-18.888 18.888-55.484-24.06z" fill="#ffbca7"/><path d="m94.323 498.583c-17.889 17.889-46.893 17.889-64.782 0l-17.087-17.087c-16.605-16.605-16.605-43.526-.001-60.131l7.397-7.397 81.367 77.72-2.771 2.771z" fill="#854737"/><path d="m29.54 498.583-7.381-7.381 38.374-38.374 40.684 38.86-2.771 2.771-4.124 4.124c-17.889 17.889-46.893 17.889-64.782 0z" fill="#734536"/><path d="m381.176 257.755-126.547-126.547 42.607-42.607c19.548-19.548 51.242-19.548 70.79 0l55.757 55.757c19.548 19.548 19.548 51.242 0 70.79z" fill="#45f6ff"/><path d="m423.682 144.256-27.288-27.288-81.741 81.741 62.785 62.785 46.244-46.244c19.604-19.604 19.604-51.39 0-70.994z" fill="#5ecbf1"/><path d="m418.41 15.408-25.153 25.153c-21.965 21.965-21.965 57.578 0 79.544 21.965 21.965 57.578 21.965 79.544 0l11.026-11.026-16.198-63.346z" fill="#ffcbbc"/><path d="m393.257 120.105c21.965 21.965 57.578 21.965 79.544 0l18.888-18.888-24.06-55.484z" fill="#ffbca7"/><path d="m498.583 94.323c17.889-17.889 17.889-46.893 0-64.782l-17.087-17.087c-16.605-16.605-43.526-16.605-60.131-.001l-7.397 7.397 77.72 81.367 2.771-2.771z" fill="#ff9d21"/><path d="m254.244 379.814 126.548-126.547 42.607 42.607c19.548 19.548 19.548 51.242 0 70.79l-55.757 55.757c-19.548 19.548-51.242 19.548-70.79 0z" fill="#00d16c"/><path d="m496.591 417.047-25.153-25.153c-21.965-21.965-57.578-21.965-79.543 0-21.965 21.965-21.965 57.578 0 79.544l11.026 11.026 63.346-16.198z" fill="#9d5e4a"/><path d="m420.003 499.547c16.605 16.605 43.526 16.605 60.131 0l19.413-19.413c16.605-16.605 16.605-43.526 0-60.131l-2.955-2.955-4.441 1.856c-34.118 14.255-64.608 35.974-89.229 63.561z" fill="#003140"/><path d="m258.778 131.164-126.548 126.547-42.607-42.607c-19.548-19.548-19.548-51.242 0-70.79l55.757-55.757c19.548-19.548 51.242-19.548 70.79 0z" fill="#006180"/><path d="m16.431 93.931 25.153 25.153c21.965 21.965 57.578 21.965 79.544 0 21.965-21.965 21.965-57.578 0-79.544l-11.026-11.026-63.346 16.198z" fill="#ffcbbc"/><path d="m95.345 13.757c-17.889-17.889-46.893-17.889-64.782 0l-17.087 17.087c-16.605 16.605-16.605 43.526 0 60.131l2.955 2.955 93.671-65.417z" fill="#ffe705"/><path d="m155.388 201.573c4.116 4.116 8.96 7.048 14.105 8.801 1.875.639 2.39 3.057.99 4.458l-40.62 40.62 40.443 40.443c1.524 1.524.745 4.141-1.369 4.557-6.691 1.318-13.055 4.553-18.216 9.713-14.004 14.004-13.843 36.87.359 51.072s37.068 14.363 51.072.359c5.161-5.161 8.395-11.525 9.713-18.216.417-2.114 3.034-2.893 4.557-1.369l40.443 40.443 40.177-40.177c1.391-1.391 3.731-.872 4.44.963 1.789 4.632 4.556 8.983 8.303 12.73 14.202 14.202 37.068 14.363 51.072.359s13.843-36.87-.359-51.072c-3.747-3.747-8.098-6.514-12.73-8.303-1.835-.709-2.354-3.049-.963-4.44l36.615-36.615-37.664-37.664c-1.356-1.356-.897-3.622.855-4.403 3.847-1.715 7.446-4.142 10.596-7.292 14.004-14.004 13.843-36.869-.359-51.072-14.202-14.202-37.068-14.363-51.072-.359-3.149 3.149-5.576 6.748-7.292 10.596-.781 1.752-3.047 2.211-4.403.855l-37.664-37.664-37.059 37.059c-1.401 1.401-3.819.885-4.458-.99-1.753-5.145-4.685-9.989-8.801-14.105-14.202-14.202-37.068-14.363-51.072-.359s-13.841 36.87.361 51.072z" fill="#ff6b6b"/><path d="m498.583 29.54-7.381-7.381-38.374 38.374 38.86 40.684 2.771-2.771 4.124-4.124c17.889-17.889 17.889-46.893 0-64.782z" fill="#ff6b6b"/><path d="m202.151 361.596c5.161-5.161 8.395-11.525 9.713-18.216.417-2.114 3.034-2.893 4.557-1.369l40.443 40.443 40.177-40.177c1.391-1.391 3.731-.872 4.44.963 1.789 4.632 4.556 8.983 8.303 12.73 14.202 14.202 37.068 14.363 51.072.359s13.844-36.87-.359-51.072c-3.747-3.747-8.098-6.514-12.73-8.303-1.835-.709-2.354-3.049-.963-4.44l36.615-36.615-37.664-37.664c-1.356-1.356-.897-3.622.855-4.403 3.847-1.715 7.446-4.142 10.595-7.292 13.841-13.841 13.836-36.332.123-50.566l-206.249 205.264c14.202 14.202 37.068 14.363 51.072.358z" fill="#e20059"/></g></svg>