<svg id="Capa_1" enable-background="new 0 0 512 512" height="512" viewBox="0 0 512 512" width="512" xmlns="http://www.w3.org/2000/svg"><g><g fill="#020288"><path d="m239.388 105.008h91.995c5.523 0 10-4.477 10-10s-4.477-10-10-10h-91.995c-5.523 0-10 4.477-10 10s4.477 10 10 10z"/><path d="m273.612 346.81c5.523 0 10-4.477 10-10s-4.477-10-10-10h-91.995c-5.523 0-10 4.477-10 10s4.477 10 10 10z"/><path d="m490.17 417.812v-382.481c0-5.523-4.477-10-10-10h-40.83c-5.523 0-10 4.477-10 10v49.677h-67.66c-5.523 0-10 4.477-10 10s4.477 10 10 10h67.66v100.901h-72.064c-2.987 0-5.668 1.31-7.5 3.386-1.832-2.076-4.513-3.386-7.5-3.386h-82.723c-2.558 0-4.891.961-6.66 2.541-1.768-1.58-4.102-2.541-6.66-2.541h-64.617c-5.523 0-10 4.477-10 10s4.477 10 10 10h64.617c2.558 0 4.891-.961 6.66-2.541 1.768 1.58 4.102 2.541 6.66 2.541h82.723c2.987 0 5.668-1.31 7.5-3.386 1.832 2.076 4.513 3.386 7.5 3.386h72.064v100.901h-72.064c-5.523 0-10 4.477-10 10s4.477 10 10 10h72.064v70.756h-346.68v-70.756h68.66c5.523 0 10-4.477 10-10s-4.477-10-10-10h-68.66v-100.901h68.66c5.523 0 10-4.477 10-10s-4.477-10-10-10h-68.66v-100.901h73.064c5.523 0 10-4.477 10-10s-4.477-10-10-10h-73.064v-49.677c0-5.523-4.477-10-10-10h-40.83c-5.523 0-10 4.477-10 10v382.481c-12.319 1.723-21.83 12.329-21.83 25.115v33.742c0 5.523 4.477 10 10 10h492c5.523 0 10-4.477 10-10v-33.742c0-12.786-9.511-23.392-21.83-25.115zm-40.83-372.481h20.83v372.236h-20.83zm-407.51 0h20.83v372.236h-20.83zm450.17 421.338h-472v-23.742c0-2.956 2.405-5.361 5.361-5.361h461.278c2.956 0 5.361 2.405 5.361 5.361z"/></g><g><g><g><path d="m164.66 135.604c-15.017 0-27.192-12.174-27.192-27.191v-26.809c0-15.017 12.174-27.191 27.191-27.191 15.017 0 27.191 12.174 27.191 27.191v26.809c.001 15.017-12.173 27.191-27.19 27.191z" fill="#e2c4ff"/></g><g><path d="m219.043 135.604c-15.017 0-27.192-12.174-27.192-27.191v-26.809c0-15.017 12.174-27.191 27.191-27.191 15.017 0 27.191 12.174 27.191 27.191v26.809c.001 15.017-12.173 27.191-27.19 27.191z" fill="#e2c4ff"/></g><g><path d="m348.5 135.604c-15.017 0-27.191-12.174-27.191-27.191v-26.809c0-15.017 12.174-27.191 27.191-27.191 15.017 0 27.191 12.174 27.191 27.191v26.809c0 15.017-12.174 27.191-27.191 27.191z" fill="#e2c4ff"/></g></g><g><g><path d="m164.66 256.505c-15.017 0-27.192-12.174-27.192-27.191v-26.809c0-15.017 12.174-27.191 27.191-27.191 15.017 0 27.191 12.174 27.191 27.191v26.809c.001 15.017-12.173 27.191-27.19 27.191z" fill="#e2c4ff"/></g><g><path d="m256.58 256.505c-15.017 0-27.191-12.174-27.191-27.191v-26.809c0-15.017 12.174-27.191 27.191-27.191 15.017 0 27.191 12.174 27.191 27.191v26.809c0 15.017-12.174 27.191-27.191 27.191z" fill="#e2c4ff"/></g><g><path d="m348.5 256.505c-15.017 0-27.191-12.174-27.191-27.191v-26.809c0-15.017 12.174-27.191 27.191-27.191 15.017 0 27.191 12.174 27.191 27.191v26.809c0 15.017-12.174 27.191-27.191 27.191z" fill="#e2c4ff"/></g></g><g><g><path d="m348.5 296.214c15.017 0 27.191 12.174 27.191 27.191v26.809c0 15.017-12.174 27.191-27.191 27.191-15.017 0-27.191-12.174-27.191-27.191v-26.809c-.001-15.017 12.173-27.191 27.191-27.191z" fill="#e2c4ff"/></g><g><path d="m294.117 296.214c15.017 0 27.192 12.174 27.192 27.191v26.809c0 15.017-12.174 27.191-27.191 27.191-15.017 0-27.191-12.174-27.191-27.191v-26.809c-.002-15.017 12.172-27.191 27.19-27.191z" fill="#e2c4ff"/></g><g><path d="m164.66 296.214c15.017 0 27.192 12.174 27.192 27.191v26.809c0 15.017-12.174 27.191-27.191 27.191-15.017 0-27.191-12.174-27.191-27.191v-26.809c-.002-15.017 12.172-27.191 27.19-27.191z" fill="#e2c4ff"/></g></g></g></g></svg>