<svg id="Capa_1" enable-background="new 0 0 512 512" height="512" viewBox="0 0 512 512" width="512" xmlns="http://www.w3.org/2000/svg"><g><g><g><g><path d="m491.558 468.141-61.119-41.659v-130.517l61.119-41.659z" fill="#e2c4ff"/></g></g><g><g><g><path d="m144.502 317.873h193.57v124.783h-193.57z" fill="#e2c4ff"/></g></g></g></g><g fill="#020288"><path d="m159.565 165.437c3.324 1.625 7.274 1.282 10.27-.895 2.994-2.175 4.542-5.825 4.023-9.49l-3.693-26.12 18.341-18.96c2.573-2.66 3.467-6.523 2.323-10.043s-4.138-6.12-7.782-6.76l-25.984-4.559-12.363-23.303c-1.735-3.269-5.133-5.313-8.834-5.313s-7.099 2.044-8.834 5.313l-12.365 23.303-25.984 4.559c-3.645.64-6.639 3.24-7.782 6.76s-.25 7.383 2.323 10.043l18.342 18.96-3.693 26.12c-.519 3.665 1.029 7.315 4.023 9.49 1.74 1.265 3.804 1.91 5.879 1.91 1.496 0 2.998-.335 4.391-1.016l23.699-11.585zm-39.251-26.246 1.739-12.299c.432-3.054-.569-6.137-2.714-8.354l-8.637-8.928 12.235-2.146c3.037-.533 5.659-2.438 7.105-5.162l5.821-10.973 5.821 10.973c1.446 2.724 4.068 4.629 7.105 5.162l12.236 2.146-8.637 8.928c-2.145 2.217-3.146 5.3-2.714 8.354l1.739 12.299-11.16-5.455c-1.386-.677-2.889-1.016-4.392-1.016s-3.006.339-4.392 1.016z"/><path d="m312.41 128.932-3.693 26.12c-.519 3.665 1.029 7.315 4.023 9.49 2.995 2.177 6.945 2.521 10.27.895l23.7-11.585 23.699 11.585c1.393.681 2.895 1.016 4.391 1.016 2.075 0 4.139-.646 5.879-1.91 2.994-2.175 4.542-5.825 4.023-9.49l-3.693-26.12 18.341-18.96c2.573-2.66 3.467-6.523 2.323-10.043s-4.138-6.12-7.782-6.76l-25.982-4.559-12.364-23.303c-1.735-3.269-5.133-5.313-8.834-5.313-3.7 0-7.099 2.044-8.833 5.313l-12.366 23.302-25.983 4.559c-3.645.64-6.639 3.24-7.782 6.76s-.25 7.383 2.323 10.043zm21.372-21.467c3.037-.533 5.659-2.438 7.104-5.162l5.823-10.973 5.821 10.973c1.446 2.724 4.068 4.629 7.105 5.162l12.235 2.146-8.637 8.928c-2.145 2.217-3.146 5.3-2.714 8.354l1.739 12.299-11.159-5.455c-2.771-1.354-6.012-1.354-8.783 0l-11.16 5.455 1.739-12.299c.432-3.054-.569-6.137-2.714-8.354l-8.637-8.928z"/><path d="m411.503 210.535c30.537-20.753 50.629-55.734 50.629-95.312 0-63.534-51.778-115.223-115.422-115.223-46.922 0-87.394 28.096-105.423 68.32-18.028-40.224-58.5-68.32-105.423-68.32-63.644 0-115.422 51.689-115.422 115.224 0 39.578 20.093 74.558 50.63 95.312-16.158 1.209-28.936 14.743-28.936 31.205v238.967c0 17.255 14.038 31.293 31.293 31.293h335.719c17.255 0 31.293-14.038 31.293-31.293v-238.968c-.001-16.462-12.779-29.996-28.938-31.205zm-64.793-190.535c52.616 0 95.422 42.717 95.422 95.224s-42.806 95.224-95.422 95.224-95.423-42.717-95.423-95.224 42.807-95.224 95.423-95.224zm-64.923 190.447h-81c17.596-11.994 31.713-28.716 40.5-48.32 8.787 19.604 22.904 36.327 40.5 48.32zm-241.345-95.223c0-52.507 42.806-95.224 95.422-95.224s95.423 42.717 95.423 95.224-42.807 95.224-95.423 95.224-95.422-42.718-95.422-95.224zm379.998 365.483c0 6.227-5.066 11.293-11.293 11.293h-335.719c-6.227 0-11.293-5.066-11.293-11.293v-238.967c0-6.227 5.066-11.293 11.293-11.293h335.719c6.227 0 11.293 5.066 11.293 11.293z"/></g></g></svg>