<svg id="Capa_1" enable-background="new 0 0 512 512" height="512" viewBox="0 0 512 512" width="512" xmlns="http://www.w3.org/2000/svg"><g><g><g><g><path d="m405.701 219.104h-299.402l40.671-83.187h207.893z" fill="#a4fcc4"/></g></g><g><g><g><path d="m435.057 281.525h66.943v51.342h-66.943z" fill="#a4fcc4"/></g></g></g><g><g><g><path d="m10 281.525h66.943v51.342h-66.943z" fill="#a4fcc4"/></g></g></g></g><g><g fill="#020288"><path d="m453.874 209.113h-42.56l-47.918-78.411c-2.881-4.712-9.034-6.199-13.748-3.318-4.712 2.88-6.198 9.035-3.318 13.747l41.539 67.973h-127.132c-5.522 0-10 4.477-10 10s4.478 10 10 10l193.137.009c21.022 0 38.126 17.133 38.126 38.193v55.561h-53.722c-7.289-12.297-20.676-20.555-35.951-20.555-15.276 0-28.663 8.259-35.952 20.555h-227.499c-7.289-12.297-20.677-20.555-35.952-20.555s-28.662 8.259-35.951 20.555h-46.973v-78.502c0-8.41 6.826-15.251 15.217-15.251l114.154-.009c5.522 0 10-4.477 10-10s-4.478-10-10-10l-114.154.009c-19.419-.001-35.217 15.813-35.217 35.251v88.502c0 5.523 4.478 10 10 10h51.158c-.014.442-.022.886-.022 1.331 0 23.096 18.746 41.887 41.787 41.887 23.042 0 41.788-18.791 41.788-41.887 0-.445-.008-.889-.022-1.331h215.87c-.014.442-.022.886-.022 1.331 0 23.096 18.746 41.887 41.788 41.887 23.041 0 41.787-18.791 41.787-41.887 0-.445-.008-.889-.022-1.331h57.91c5.522 0 10-4.477 10-10v-65.561c0-32.088-26.075-58.193-58.126-58.193zm-350.95 156.972c-12.014 0-21.787-9.818-21.787-21.887 0-12.068 9.773-21.886 21.787-21.886s21.788 9.818 21.788 21.886-9.774 21.887-21.788 21.887zm299.402 0c-12.014 0-21.788-9.818-21.788-21.887 0-12.068 9.774-21.886 21.788-21.886s21.787 9.818 21.787 21.886-9.773 21.887-21.787 21.887z"/><path d="m298.471 260.717v-4.452c0-5.523-4.478-10-10-10s-10 4.477-10 10v4.452c0 5.523 4.478 10 10 10s10-4.477 10-10z"/></g></g></g></svg>