<svg id="Capa_1" enable-background="new 0 0 512 512" height="512" viewBox="0 0 512 512" width="512" xmlns="http://www.w3.org/2000/svg"><g><g><g><path d="m136.766 56.924v66.311h45.951v-45.684h146.565v45.684h45.951v-66.311c0-14.036-11.356-25.414-25.364-25.414h-187.738c-14.009.001-25.365 11.379-25.365 25.414z" fill="#ffbdbc"/></g><g fill="#020288"><path d="m463.611 113.235h-415.222c-26.682 0-48.389 21.708-48.389 48.389v270.438c0 26.703 21.691 48.427 48.353 48.427h415.295c26.662 0 48.353-21.724 48.353-48.427v-270.438c-.001-26.681-21.708-48.389-48.39-48.389zm28.389 318.827c0 15.675-12.719 28.427-28.353 28.427h-415.294c-15.634 0-28.353-12.752-28.353-28.427v-126.384c13.895 15.14 33.837 24.645 55.958 24.645h29.382c5.523 0 10-4.477 10-10s-4.477-10-10-10h-29.382c-30.855.001-55.958-25.102-55.958-55.957v-92.741c0-15.654 12.735-28.389 28.389-28.389h415.222c15.654 0 28.389 12.735 28.389 28.389v92.741c0 30.856-25.103 55.958-55.958 55.958h-35.042c-5.523 0-10 4.477-10 10s4.477 10 10 10h35.042c22.121 0 42.063-9.505 55.958-24.645z"/><path d="m366.021 310.324h-218.808c-5.523 0-10 4.477-10 10s4.477 10 10 10h218.809c5.523 0 10-4.477 10-10s-4.478-10-10.001-10z"/><path d="m374.615 166.724h-237.23c-5.523 0-10 4.477-10 10s4.477 10 10 10h237.229c5.523 0 10-4.477 10-10 .001-5.523-4.476-10-9.999-10z"/></g></g><g><g><path d="m354.413 267.912h60.879v94.824h-60.879z" fill="#ffbdbc"/></g><g><path d="m96.707 267.912h60.879v94.824h-60.879z" fill="#ffbdbc"/></g></g></g></svg>