<svg id="Layer_1" enable-background="new 0 0 512 512" height="512" viewBox="0 0 512 512" width="512" xmlns="http://www.w3.org/2000/svg"><g><path clip-rule="evenodd" d="m256 416c88.125 0 160-71.875 160-160-9.039-212.278-310.994-212.215-320 .001 0 88.124 71.875 159.999 160 159.999z" fill="#a4fbc4" fill-rule="evenodd"/><g fill="#020288"><path d="m493.645 211.136-23.074-3.845c-5.502-24.391-15.033-47.396-28.406-68.568l13.599-19.039c6.368-8.915 5.93-20.028-1.066-27.025l-35.355-35.355c-6.996-6.996-18.107-7.436-27.024-1.066l-19.039 13.599c-21.163-13.372-44.172-22.904-68.568-28.406l-3.846-23.074c-1.804-10.809-9.972-18.357-19.866-18.357h-50c-9.894 0-18.062 7.548-19.864 18.355l-3.845 23.074c-24.396 5.502-47.405 15.034-68.569 28.406l-19.039-13.599c-8.916-6.368-20.029-5.928-27.024 1.066l-35.357 35.357c-6.995 6.996-7.433 18.109-1.066 27.025l13.6 19.039c-13.375 21.172-22.905 44.178-28.407 68.568l-23.074 3.846c-10.808 1.801-18.355 9.97-18.355 19.863v50c0 9.895 7.548 18.062 18.355 19.864l23.074 3.845c5.501 24.389 15.034 47.398 28.406 68.568l-13.599 19.04c-6.368 8.916-5.929 20.029 1.066 27.025l35.355 35.355c6.994 6.996 18.107 7.435 27.025 1.066l19.038-13.598c21.164 13.372 44.173 22.903 68.569 28.406l3.845 23.074c1.804 10.807 9.971 18.355 19.866 18.355h50c9.894 0 18.062-7.548 19.863-18.355l3.846-23.074c24.396-5.502 47.405-15.034 68.568-28.406l19.038 13.598c8.918 6.371 20.03 5.931 27.025-1.065l35.355-35.355c6.996-6.997 7.435-18.11 1.066-27.025l-13.599-19.04c13.373-21.171 22.904-44.177 28.406-68.568l23.073-3.845c10.811-1.803 18.359-9.97 18.359-19.865v-50c0-9.894-7.548-18.062-18.355-19.864zm-1.645 69.431c-.285.177-.827.432-1.643.568l-29.818 4.97c-4.123.687-7.384 3.867-8.175 7.971-5.119 26.556-15.412 51.403-30.593 73.849-2.342 3.462-2.283 8.014.146 11.415l17.571 24.602c.481.673.685 1.237.761 1.564l-34.743 34.743c-.327-.076-.891-.279-1.563-.76l-24.602-17.572c-3.402-2.429-7.956-2.487-11.416-.145-22.437 15.179-47.282 25.472-73.848 30.592-4.104.791-7.284 4.052-7.972 8.175l-4.97 29.817c-.136.816-.391 1.358-.568 1.644h-49.134c-.178-.286-.433-.827-.569-1.644l-4.97-29.817c-.687-4.124-3.867-7.384-7.971-8.175-26.564-5.12-51.41-15.413-73.848-30.592-3.463-2.342-8.015-2.284-11.416.146l-24.601 17.572c-.673.481-1.237.684-1.564.76l-34.743-34.744c.076-.327.279-.891.76-1.564l17.572-24.601c2.429-3.401 2.487-7.954.146-11.415-15.182-22.446-25.475-47.292-30.593-73.849-.791-4.104-4.052-7.284-8.175-7.971l-29.818-4.97c-.816-.136-1.357-.391-1.643-.568v-49.135c.286-.177.827-.432 1.643-.568l29.817-4.97c4.124-.687 7.384-3.867 8.175-7.971 5.118-26.556 15.411-51.402 30.593-73.849 2.341-3.462 2.283-8.014-.146-11.415l-17.572-24.601c-.481-.674-.684-1.237-.76-1.564l34.743-34.743c.328.076.891.279 1.564.76l24.601 17.572c3.401 2.43 7.955 2.487 11.416.146 22.437-15.18 47.283-25.473 73.848-30.593 4.104-.791 7.284-4.052 7.971-8.175l4.97-29.817c.136-.816.392-1.358.569-1.644h49.134c.178.286.433.827.568 1.644l4.97 29.817c.688 4.124 3.867 7.384 7.972 8.175 26.565 5.12 51.412 15.413 73.848 30.592 3.459 2.342 8.013 2.285 11.416-.145l24.602-17.573c.673-.481 1.236-.684 1.563-.76l34.743 34.743c-.076.327-.279.89-.761 1.564l-17.571 24.602c-2.429 3.4-2.487 7.953-.146 11.415 15.182 22.447 25.475 47.293 30.593 73.849.791 4.104 4.052 7.284 8.175 7.971l29.817 4.97c.816.136 1.358.391 1.644.569v49.133z"/><path d="m336 176h-40v-10c0-16.542-13.458-30-30-30h-20c-16.542 0-30 13.458-30 30v10h-40c-16.542 0-30 13.458-30 30v100c0 16.542 13.458 30 30 30h160c16.542 0 30-13.458 30-30v-100c0-16.542-13.458-30-30-30zm-100-10c0-5.514 4.486-10 10-10h20c5.514 0 10 4.486 10 10v10h-40zm-60 30h160c5.514 0 10 4.486 10 10v24.15c0 .008-.001.015-.001.023-.372 12.437-10.836 22.555-23.325 22.555h-133.348c-12.489 0-22.953-10.118-23.325-22.556 0-.008-.001-.015-.001-.023v-24.149c0-5.514 4.486-10 10-10zm160 120h-160c-5.514 0-10-4.486-10-10v-40.193c6.769 4.373 14.793 6.921 23.326 6.921h6.676v3.272c.528 13.268 19.477 13.258 20 0v-3.272h79.997v3.272c.528 13.268 19.476 13.258 20 0v-3.272h6.676c8.533 0 16.557-2.548 23.326-6.922v40.194c-.001 5.514-4.487 10-10.001 10z"/></g></g></svg>