<svg id="Capa_1" enable-background="new 0 0 512 512" height="512" viewBox="0 0 512 512" width="512" xmlns="http://www.w3.org/2000/svg"><g><g><g><g><g><path d="m363.086 240.34h71.532v261.66h-71.532z" fill="#b2f0fb"/></g></g><g><g><g><g><path d="m141.082 182.807h71.532v139.755h-71.532z" fill="#b2f0fb"/></g></g></g></g><g><g><g><g><path d="m266.268 347.191h43.163v96.541h-43.163z" fill="#b2f0fb"/></g></g></g></g><g><g><g><g><path d="m266.268 197.42h43.163v96.541h-43.163z" fill="#b2f0fb"/></g></g></g></g></g><g fill="#020288"><path d="m171.754 100.75c0-13.288-8.611-24.603-20.547-28.655-2.63-17.142-17.479-30.312-35.348-30.312-6.984 0-13.72 2.017-19.479 5.764-2.588-.61-5.248-.918-7.955-.918-16.207 0-29.676 10.864-33.504 25.861-11.471 4.355-19.398 15.385-19.398 28.263 0 16.679 13.568 30.247 30.247 30.247h75.733c16.681 0 30.251-13.57 30.251-30.25zm-116.231.003c0-5.315 3.979-9.701 9.258-10.201 5.04-.477 8.929-4.646 9.055-9.707.194-7.839 6.739-14.216 14.59-14.216 2.042 0 4.013.41 5.855 1.22 3.655 1.604 7.916.884 10.837-1.84 2.925-2.725 6.74-4.226 10.741-4.226 8.691 0 15.762 7.068 15.762 15.757 0 .606-.035 1.219-.104 1.819-.325 2.832.574 5.668 2.472 7.796 1.897 2.127 4.612 3.344 7.463 3.344h.052c5.652 0 10.25 4.599 10.25 10.251s-4.598 10.25-10.25 10.25h-75.733c-5.651 0-10.248-4.597-10.248-10.247z"/><path d="m466.477 492h-93.391v-348.876c0-5.522-4.478-10-10-10h-7.984v-35.204c0-5.522-4.478-10-10-10h-8.91c-12.684-15.433-37.606-50.812-37.606-75.296v-2.624c0-5.522-4.478-10-10-10h-1.472c-5.522 0-10 4.478-10 10v2.624c0 24.483-24.922 59.863-37.606 75.296h-8.91c-5.522 0-10 4.478-10 10v35.204h-7.984c-5.522 0-10 4.478-10 10v169.438h-91.721c-5.522 0-10 4.478-10 10v169.438h-17.555c-5.522 0-10 4.478-10 10s4.478 10 10 10h383.139c5.522 0 10-4.478 10-10s-4.478-10-10-10zm-192.416-417.815c5.617-8.793 10.217-17.147 13.79-25.04 3.572 7.893 8.172 16.247 13.789 25.04 3.245 5.08 6.486 9.751 9.379 13.735h-46.337c2.892-3.984 6.133-8.655 9.379-13.735zm-33.462 33.735h94.503v25.204h-94.503zm-119.705 224.643h81.721v159.437h-81.721zm101.72 159.437v-338.876h130.472v338.876z"/></g></g></g></svg>