<svg id="Capa_1" enable-background="new 0 0 512 512" height="512" viewBox="0 0 512 512" width="512" xmlns="http://www.w3.org/2000/svg"><g><g><path d="m176.624 400.795c-33.915-15.161-55.83-48.606-55.83-85.206v-183.526c27.135-13.231 49.241-35.138 62.63-62.063h145.152c13.389 26.925 35.495 48.832 62.63 62.063v183.526c0 36.6-21.915 70.045-55.83 85.206l-79.376 35.483z" fill="#a4fcc4"/></g><g fill="#020288"><path d="m451.206 75.863c-36.776 0-66.695-29.546-66.695-65.863 0-5.523-4.477-10-10-10h-237.021c-5.523 0-10 4.477-10 10 0 36.317-29.919 65.863-66.696 65.863-5.523 0-10 4.477-10 10v229.727c0 64.17 38.178 122.7 97.263 149.112l103.862 46.428c1.298.581 2.69.871 4.081.871s2.783-.29 4.081-.871l103.862-46.428c59.085-26.412 97.263-84.942 97.263-149.112v-229.727c0-5.523-4.477-10-10-10zm-10 239.726c0 56.293-33.531 107.656-85.425 130.853l-99.781 44.604-99.781-44.604c-51.894-23.197-85.425-74.56-85.425-130.853v-220.294c39.798-4.547 71.477-35.892 76.111-75.295h218.19c4.634 39.403 36.313 70.748 76.111 75.295z"/><path d="m256 141.71c-45.19 0-90.936 14.334-90.936 41.73v145.118c0 27.396 45.746 41.73 90.936 41.73s90.936-14.334 90.936-41.73v-145.117c0-27.397-45.746-41.731-90.936-41.731zm70.936 140.603c0 2.187-3.627 7.745-17.355 13.127-14.152 5.548-33.181 8.603-53.581 8.603s-39.429-3.056-53.581-8.603c-13.728-5.382-17.355-10.94-17.355-13.127v-23.98c17.542 9.674 44.335 14.641 70.936 14.641s53.394-4.967 70.936-14.641zm0-51.07c0 2.187-3.627 7.745-17.355 13.126-14.152 5.548-33.181 8.604-53.581 8.604s-39.428-3.056-53.581-8.604c-13.728-5.382-17.355-10.939-17.355-13.126v-20.713c17.542 9.674 44.335 14.641 70.936 14.641s53.394-4.967 70.936-14.641zm-124.516-60.929c14.152-5.548 33.181-8.604 53.581-8.604s39.428 3.056 53.581 8.604c13.728 5.382 17.355 10.939 17.355 13.126s-3.627 7.745-17.355 13.127c-14.152 5.548-33.181 8.604-53.581 8.604s-39.429-3.056-53.581-8.604c-13.728-5.382-17.355-10.94-17.355-13.127s3.627-7.744 17.355-13.126zm107.161 171.371c-14.152 5.548-33.181 8.604-53.581 8.604s-39.428-3.056-53.581-8.604c-13.728-5.382-17.355-10.939-17.355-13.126v-19.157c17.542 9.674 44.335 14.641 70.936 14.641s53.394-4.967 70.936-14.641v19.157c0 2.187-3.627 7.745-17.355 13.126z"/></g></g></svg>