<svg id="Layer_1" enable-background="new 0 0 512.001 512.001" height="512" viewBox="0 0 512.001 512.001" width="512" xmlns="http://www.w3.org/2000/svg"><g><g fill="#020288"><path d="m120 5c-57.795 0-120 13.886-120 44.375v165c0 25.222 42.572 39.082 90 43.118v138.571c0 5.522 4.477 10 10 10h70.081c5.523 0 10-4.478 10-10s-4.477-10-10-10h-60.081v-127.453c54.748 2.179 131.4-11.697 129.999-44.237.001.001.001-164.999.001-164.999 0-30.489-62.205-44.375-120-44.375zm100 99.403c-10.78 18.435-70.562 24.642-99.999 24.347-29.544.269-89.095-5.865-100-24.347v-29.079c47.187 24.683 152.812 24.683 200 0v29.079zm-200 25.921c47.187 24.683 152.812 24.683 200 0v29.078c-10.78 18.437-70.562 24.643-100 24.348-29.545.269-89.096-5.864-100-24.348zm25.201-95.711c38.782-12.721 110.815-12.721 149.598 0 20.946 6.561 25.205 13.282 25.201 14.79-10.78 18.436-70.562 24.642-100 24.347-29.544.269-89.095-5.865-100-24.347-.004-1.507 4.255-8.229 25.201-14.79zm149.598 194.523c-38.781 12.721-110.817 12.721-149.598 0-20.924-6.538-25.201-13.306-25.201-14.761v-29.05c47.187 24.683 152.812 24.683 200 0v29.05c0 1.455-4.277 8.223-25.201 14.761z"/><path d="m392.001 5c-57.796 0-120 13.887-120 44.375v165c-1.413 32.518 75.271 46.443 130 44.237v127.453h-60.081c-5.522 0-10 4.478-10 10s4.478 10 10 10h70.081c5.522 0 10-4.478 10-10v-138.572c47.429-4.036 90-17.896 90-43.118v-165c0-30.489-62.204-44.375-120-44.375zm100 99.403c-10.78 18.435-70.561 24.642-100 24.347-29.545.269-89.094-5.864-100-24.347v-29.079c47.187 24.683 152.813 24.683 200 0zm-200 25.921c47.187 24.683 152.813 24.683 200 0v29.078c-10.78 18.437-70.561 24.643-100 24.348-29.545.269-89.095-5.864-100-24.348zm25.202-95.711c38.782-12.721 110.816-12.721 149.598 0 20.946 6.561 25.205 13.282 25.201 14.79-10.78 18.435-70.561 24.642-100 24.347-29.545.269-89.094-5.864-100-24.347-.005-1.507 4.255-8.229 25.201-14.79zm149.597 194.523c-38.781 12.721-110.817 12.721-149.598 0-20.924-6.538-25.201-13.306-25.201-14.761v-29.051c47.187 24.683 152.813 24.684 200 0v29.051c0 1.455-4.277 8.223-25.201 14.761z"/></g><path clip-rule="evenodd" d="m206.001 287.002-50 49.187c0 75.271 12.795 147.827 100 170.813 87.204-22.986 100-95.542 100-170.813l-50-49.187z" fill="#a4fbc4" fill-rule="evenodd"/><g><path d="m256 475.125c-54.391-16.19-66.604-61.293-69.107-122.285-.084-2.786.997-5.48 2.983-7.434l25.955-25.532c1.871-1.84 4.389-2.871 7.013-2.871h66.314c2.624 0 5.143 1.031 7.013 2.871l25.955 25.532c1.986 1.954 3.067 4.649 2.982 7.435-2.498 60.98-14.723 106.097-69.108 122.284zm-48.958-118.552c3.218 48.516 9.302 81.39 48.958 97.864 39.648-16.472 45.739-49.331 48.959-97.864l-19.896-19.571h-58.126z" fill="#020288"/></g></g></svg>