<svg id="Capa_1" enable-background="new 0 0 512 512" height="512" viewBox="0 0 512 512" width="512" xmlns="http://www.w3.org/2000/svg"><g><path d="m502 137.931h-63.444v-2.784c0-22.637-18.448-41.054-41.124-41.054h-21.152v-4.142c0-3.765-2.115-7.211-5.473-8.917l-77.866-39.54c-1.391-.705-2.968-1.083-4.527-1.083h-218.548c-38.524.001-69.866 31.283-69.866 69.734v75.572c0 35.062 26.064 64.15 59.866 69.009v178.495c0 21.156 17.253 38.368 38.46 38.368h105.929c24.02 0 43.562-19.508 43.562-43.487s-19.542-43.487-43.562-43.487h-18.964c-6.036 0-10.947-4.89-10.947-10.901v-53.552h15.199c19.394 0 35.171-15.765 35.171-35.144v-29.567h63.699c1.553 0 3.142-.379 4.527-1.083l77.866-39.54c3.357-1.705 5.473-5.151 5.473-8.917v-4.142h21.152c22.676 0 41.124-18.417 41.124-41.055v-2.784h63.445c5.522 0 10-4.477 10-10s-4.478-9.999-10-9.999zm-203.587-10.136 57.866 7.02v26.256l-57.866 6.999zm57.866-13.126-57.866-7.02v-40.944l57.866 29.384zm-336.279 71.048v-75.572c0-27.423 22.37-49.733 49.866-49.733h208.547v175.039h-208.547c-27.496 0-49.866-22.311-49.866-49.734zm59.866 120.247h13.641c7.506 0 13.612 6.083 13.612 13.56v51.531c0 7.477-6.106 13.56-13.612 13.56h-13.641zm105.425 98.65h18.964c12.992 0 23.562 10.537 23.562 23.487s-10.569 23.487-23.562 23.487h-105.929c-10.179 0-18.46-8.24-18.46-18.368v-28.606h13.641c18.534 0 33.612-15.055 33.612-33.56v-51.531c0-18.505-15.078-33.56-33.612-33.56h-13.641v-30.513h74.478v118.263c0 17.039 13.883 30.901 30.947 30.901zm19.423-119.596c0 8.35-6.806 15.144-15.171 15.144h-15.199v-44.711h30.37zm151.565-85.245-57.866 29.384v-40.94l57.866-6.999zm62.277-39.058c0 11.609-9.477 21.055-21.124 21.055h-21.152v-67.677h21.152c11.647 0 21.124 9.445 21.124 21.054z" fill="#020288"/><g><path clip-rule="evenodd" d="m80.496 191.77h106.326c9.779 0 17.773-7.976 17.773-17.762v-52.154c0-9.758-7.994-17.762-17.773-17.762h-106.326c-9.779 0-17.801 8.004-17.801 17.762v52.154c0 9.786 8.022 17.762 17.801 17.762z" fill="#e2c4ff" fill-rule="evenodd"/></g></g></svg>