<svg id="Capa_1" enable-background="new 0 0 512 512" height="512" viewBox="0 0 512 512" width="512" xmlns="http://www.w3.org/2000/svg"><g><g><g><g><path d="m341.333 418.736h-170.666l25.12-69.657h120.426z" fill="#fff59b"/></g><g><path d="m512 418.736h-170.667l25.121-69.657h120.426z" fill="#fff59b"/></g><g><path d="m170.667 418.736h-170.667l25.12-69.657h120.426z" fill="#fff59b"/></g></g><g><g><path d="m341.333 162.921h-170.666l25.12-69.657h120.426z" fill="#fff59b"/></g></g></g><g fill="#020288"><path d="m410.954 217.779c-1.43-3.965-5.192-6.607-9.407-6.607h-120.427c-4.215 0-7.977 2.643-9.407 6.607l-15.713 43.571-15.713-43.571c-1.43-3.965-5.192-6.607-9.407-6.607h-120.426c-4.215 0-7.977 2.643-9.407 6.607l-25.12 69.657c-1.105 3.064-.648 6.475 1.224 9.141 1.873 2.666 4.926 4.252 8.183 4.252h341.333c3.257 0 6.311-1.586 8.183-4.252s2.329-6.076 1.224-9.141zm-311.384 63.05 17.907-49.657h106.378l17.907 49.657zm170.667 0 17.907-49.657h106.378l17.907 49.657z"/><path d="m460.346 169.722c-3.905-3.905-10.237-3.905-14.143 0l-13.875 13.875c-3.905 3.905-3.905 10.237 0 14.143 1.953 1.953 4.512 2.929 7.071 2.929s5.119-.976 7.071-2.929l13.875-13.875c3.905-3.906 3.905-10.238.001-14.143z"/><path d="m387.703 179.255c5.523 0 10-4.477 10-10v-19.623c0-5.523-4.477-10-10-10s-10 4.477-10 10v19.623c0 5.523 4.477 10 10 10z"/><path d="m480.435 232.364h-19.623c-5.523 0-10 4.477-10 10s4.477 10 10 10h19.623c5.523 0 10-4.477 10-10s-4.477-10-10-10z"/><path d="m79.672 183.597-13.875-13.875c-3.905-3.905-10.237-3.905-14.143 0-3.905 3.905-3.905 10.237 0 14.143l13.875 13.875c1.953 1.953 4.512 2.929 7.071 2.929s5.119-.976 7.071-2.929c3.906-3.906 3.906-10.238.001-14.143z"/><path d="m124.297 179.255c5.523 0 10-4.477 10-10v-19.623c0-5.523-4.477-10-10-10s-10 4.477-10 10v19.623c0 5.523 4.477 10 10 10z"/><path d="m51.188 232.364h-19.623c-5.523 0-10 4.477-10 10s4.477 10 10 10h19.623c5.523 0 10-4.477 10-10s-4.478-10-10-10z"/></g></g></svg>