<svg id="Layer_1" enable-background="new 0 0 512.002 512.002" height="512" viewBox="0 0 512.002 512.002" width="512" xmlns="http://www.w3.org/2000/svg"><g><g clip-rule="evenodd" fill="#a4fbc4" fill-rule="evenodd"><path d="m386.818 156.819c-57.671-35.298-131.116 7.14-129.378 74.697 57.671 35.298 131.115-7.139 129.378-74.697z"/><path d="m125.373 83.626c26.309-15.747 59.456-17.425 87.098-1.465 27.643 15.959 42.763 45.504 42.28 76.162-57.672 35.298-131.116-7.139-129.378-74.697z"/></g><g fill="#020288"><path d="m510.662 410.975c-13.597-23.55-36.933-39.631-63.494-44.138-4.507-26.562-20.588-49.898-44.138-63.495-23.551-13.597-51.802-15.855-77.058-6.477-15.06-18.184-36.579-29.777-59.972-32.366v-26.38l61.127-35.291c4.783-2.761 6.422-8.877 3.66-13.66-2.761-4.782-8.874-6.422-13.66-3.66l-51.127 29.518v-159.051c-.529-13.268-19.476-13.258-20 0v85.75l-50.939-29.41c-4.784-2.762-10.9-1.122-13.66 3.66-2.762 4.783-1.123 10.898 3.66 13.66l60.939 35.184v99.681c-23.393 2.589-44.912 14.183-59.972 32.366-25.257-9.378-53.507-7.118-77.057 6.477-23.55 13.597-39.631 36.934-44.138 63.495-26.561 4.506-49.897 20.587-63.495 44.138-.878 1.52-1.34 3.244-1.34 5v40c0 5.522 4.478 10 10 10h492.002c5.522 0 10-4.478 10-10v-40c.002-1.756-.46-3.481-1.338-5.001zm-18.66 35h-472.002v-27.226c11.897-18.966 32.109-31.234 54.57-32.983 4.91-.382 8.811-4.283 9.193-9.193 1.818-23.33 14.98-44.23 35.209-55.91 20.229-11.678 44.911-12.628 66.023-2.536 4.442 2.124 9.771.696 12.559-3.365 27.208-40.813 89.692-40.804 116.893 0 2.788 4.062 8.115 5.489 12.559 3.365 43.969-21.741 98.08 9.506 101.232 58.446.382 4.91 4.283 8.811 9.193 9.193 22.463 1.75 42.674 14.019 54.57 32.983v27.226z"/><path d="m241.831 348.319c-14.023 0-27.855 3.706-40 10.719-11.227 7.093-1.743 23.493 10 17.32 27.669-16.655 66.306-6.272 81.962 21.962 2.777 4.827 8.962 6.397 13.66 3.66 4.783-2.762 6.422-8.878 3.66-13.66-14.246-24.674-40.793-40.001-69.282-40.001z"/></g></g></svg>