<svg enable-background="new 0 0 512.036 512.036" height="512" viewBox="0 0 512.036 512.036" width="512" xmlns="http://www.w3.org/2000/svg"><g><path clip-rule="evenodd" d="m256.152 355.33c82.617 0 150-67.383 150-150-8.474-199.01-291.556-198.951-300 .001.001 82.616 67.383 149.999 150 149.999z" fill-rule="evenodd" fill="#a4fbc4"/><g fill="#020288"><path d="m399.654 60.021c-38.85-38.701-89.523-59.983-142.702-59.983h-1.524c-109.366-2.25-206.396 98.088-204.566 206.846-.002 57.973 30.039 131.485 82.417 201.685 37.182 49.833 91.493 103.467 122.873 103.467s85.691-53.634 122.873-103.467c88.972-120.743 119.823-243.964 20.629-348.548zm-36.658 336.588c-20.281 27.181-42.831 51.964-63.496 69.785-21.924 18.905-36.767 25.642-43.348 25.642s-21.424-6.736-43.348-25.642c-20.665-17.821-43.215-42.604-63.496-69.785-49.855-66.818-78.448-135.97-78.448-189.726-1.651-98.018 85.994-188.907 184.645-186.846h1.369c98.581-2.045 186.235 88.865 184.568 186.847.002 53.755-28.591 122.907-78.446 189.725z"/><path d="m327.802 160.445c-.948-3.328-3.549-5.929-6.877-6.877-10.52-2.997-21.394-3.037-31.499-.414 7.434-25.511-4.784-53.653-28.411-66.563-3.023-1.682-6.702-1.682-9.726 0-23.625 12.908-35.843 41.055-28.409 66.563-10.105-2.623-20.979-2.583-31.5.414-3.328.948-5.93 3.549-6.877 6.877-5.522 19.383-1.023 39.967 11.721 54.718-5.143.88-10.167 2.431-11.721 8.037-5.91 20.745-.343 42.87 14.529 57.743 12.329 12.367 29.867 18.305 47.121 16.551v17.836c.529 13.268 19.476 13.258 20 0v-17.836c17.254 1.754 34.792-4.184 47.122-16.551 14.872-14.873 20.439-36.999 14.528-57.743-.948-3.328-3.549-5.929-6.877-6.877-1.607-.458-3.223-.839-4.843-1.16 12.742-14.751 17.241-35.336 11.719-54.718zm-18.044 11.167c3.699 25.194-17.873 46.759-43.062 43.061-1.627-11.99 2.218-24.023 10.627-32.434 8.412-8.41 20.446-12.253 32.435-10.627zm-53.607-64.365c20.432 15.199 20.426 45.702 0 60.898-20.429-15.201-20.424-45.702 0-60.898zm-53.605 64.365c11.991-1.627 24.024 2.218 32.434 10.627 8.41 8.41 12.254 20.443 10.627 32.434-25.196 3.698-46.759-17.873-43.061-43.061zm43.061 105.816c-25.196 3.697-46.759-17.873-43.061-43.061 25.192-3.708 46.759 17.879 43.061 43.061zm53.524-10.627c-8.41 8.409-20.442 12.255-32.435 10.627-1.627-11.99 2.218-24.023 10.627-32.434 8.411-8.41 20.445-12.262 32.434-10.627 1.629 11.99-2.216 24.024-10.626 32.434z"/></g></g></svg>