<svg id="Layer_1" enable-background="new 0 0 511.965 511.965" height="512" viewBox="0 0 511.965 511.965" width="512" xmlns="http://www.w3.org/2000/svg"><g><g><g><path d="m385.89 112.899v-68.112h57.13v117.905" fill="#a4fcc4"/></g><g fill="#020288"><path d="m234.012 276.316c5.523 0 10-4.477 10-10v-12.577c-.528-13.268-19.477-13.258-20 0v12.577c0 5.523 4.477 10 10 10z"/><path d="m277.929 276.316c5.523 0 10-4.477 10-10v-12.577c-.528-13.268-19.477-13.258-20 0v12.577c0 5.523 4.477 10 10 10z"/><path d="m284.804 289.132c-5.523 0-10 4.477-10 10 0 10.388-8.449 18.839-18.834 18.839s-18.834-8.451-18.834-18.839c-.519-13.255-19.474-13.269-20 0 2.135 51.529 75.544 51.508 77.668 0 0-5.523-4.477-10-10-10z"/><path d="m255.97 169.639c-61.194 0-110.979 49.794-110.979 110.999 6.097 147.255 215.884 147.212 221.958-.001 0-61.204-49.785-110.998-110.979-110.998zm0 201.997c-50.166 0-90.979-40.822-90.979-90.999 4.998-120.722 176.979-120.687 181.958.001 0 50.176-40.813 90.998-90.979 90.998z"/><path d="m351.432 491.963h-85.462v-61.556c-.528-13.268-19.477-13.258-20 0v61.556h-74.271c-13.268.528-13.258 19.477 0 20h179.732c13.269-.528 13.259-19.477.001-20z"/><path d="m498.397 214.566c-.374-10.355-5.072-20.192-12.892-26.99l-207.353-180.25c-.27-.234-.552-.455-.845-.659-12.763-8.89-29.911-8.89-42.674 0-.293.204-.575.424-.845.659l-207.352 180.25c-26.111 23.068-9.871 65.745 24.644 65.887 8.882 0 17.783-3.129 24.903-9.444l.258-.229v236.957c.528 13.268 19.477 13.258 20 0v-254.692l149.729-132.774v38.596c.528 13.268 19.477 13.258 20 0v-38.596l149.73 132.775v242.435c.528 13.268 19.477 13.258 20 0v-224.7l.257.228c14.872 13.187 37.504 12.482 51.525-1.605 7.311-7.343 11.288-17.493 10.915-27.848zm-435.684 14.489c-6.95 6.162-17.528 5.833-24.081-.75-7.133-6.844-6.683-19.323.925-25.635l206.413-179.433v43.314zm410.595-.75c-6.554 6.584-17.131 6.914-24.081.75l-183.257-162.504v-43.314l206.413 179.433c7.608 6.312 8.058 18.791.925 25.635z"/></g></g><g><g><g><path d="m232.817 500.271c0-14.854-7.939-27.864-19.822-35.055 5.616-26.447-23.551-46.943-46.465-32.905-37.779-40.039-105.491-7.657-96.828 47.401-.152.012-.303.024-.454.038h-5.014c-16.983 0-30.751 13.77-30.751 30.757 0 .489.012.975.034 1.458h197.6c1.107-3.706 1.7-7.63 1.7-11.694z" fill="#a4fcc4"/></g></g><g><g><path d="m483.636 510.507c0-16.987-13.768-30.757-30.751-30.757h-5.014c-.151-.014-.302-.026-.454-.038 8.664-55.086-59.081-87.424-96.828-47.401-22.926-14.041-52.079 6.467-46.465 32.905-15.334 8.808-23.707 29.191-18.123 46.748h197.6c.023-.482.035-.968.035-1.457z" fill="#a4fcc4"/></g></g></g></g></svg>