<svg id="Capa_1" enable-background="new 0 0 512 512" height="512" viewBox="0 0 512 512" width="512" xmlns="http://www.w3.org/2000/svg"><g><g><path d="m480.998 350.105c-5.396-28.249-24.191-61.062-52.67-94.081 7.11-8.238 13.641-16.494 19.523-24.703 3.217-4.489 2.185-10.736-2.305-13.953-4.489-3.217-10.735-2.185-13.953 2.305-5.095 7.111-10.71 14.264-16.796 21.415-13.717-14.447-29.184-28.807-46.09-42.715-3.049-31.077-8.562-60.427-16.307-86.702 4.425-1.126 8.795-2.134 13.103-3.02 44.94-9.242 78.064-3.854 90.876 14.787 5.337 7.766 7.263 17.862 5.723 30.009-.694 5.479 3.185 10.483 8.663 11.178 5.482.693 10.484-3.183 11.179-8.663 2.176-17.164-.88-31.918-9.082-43.852-17.846-25.965-57.407-34.151-111.387-23.049-5.02 1.032-10.116 2.22-15.279 3.557-1.774-4.948-3.636-9.759-5.583-14.421-21.063-50.426-50.144-78.197-81.885-78.197-31.742 0-60.823 27.771-81.886 78.198-1.947 4.662-3.809 9.473-5.583 14.421-5.163-1.337-10.259-2.525-15.279-3.557-53.983-11.102-93.542-2.917-111.386 23.049-9.162 13.331-11.9 30.081-8.137 49.785 5.394 28.244 24.184 61.05 52.655 94.063-9.433 10.945-17.853 21.933-25.119 32.832-3.064 4.595-1.822 10.804 2.773 13.867 1.705 1.137 3.631 1.681 5.538 1.681 3.231 0 6.403-1.563 8.33-4.454 6.408-9.611 13.779-19.309 22.006-28.991 13.721 14.453 29.195 28.82 46.108 42.734 3.049 31.077 8.562 60.427 16.307 86.702-4.425 1.126-8.796 2.134-13.104 3.02-44.94 9.242-78.064 3.854-90.875-14.787-3.748-5.453-5.828-12.098-6.182-19.75-.255-5.517-4.937-9.783-10.452-9.526-5.517.255-9.782 4.935-9.526 10.452.53 11.434 3.786 21.579 9.678 30.152 12.651 18.407 36.209 27.878 68.088 27.878 13.089 0 27.585-1.598 43.298-4.829 5.02-1.032 10.116-2.22 15.279-3.557 1.774 4.948 3.636 9.759 5.583 14.421 21.063 50.425 50.144 78.196 81.886 78.196 31.741 0 60.822-27.771 81.885-78.198 1.947-4.662 3.809-9.473 5.583-14.421 5.163 1.337 10.26 2.525 15.279 3.557 15.717 3.232 30.207 4.829 43.298 4.829 31.875 0 55.439-9.473 68.089-27.878 9.161-13.331 11.899-30.081 8.136-49.784zm-79.652-94.023c-9.39 9.955-19.63 19.841-30.586 29.532.479-9.76.722-19.645.722-29.614 0-9.93-.241-19.776-.716-29.499 10.988 9.749 21.226 19.661 30.58 29.581zm-90.456 75.625c-17.245 11.578-34.746 22.054-52.163 31.277-17.417-9.223-34.918-19.699-52.163-31.277-13.503-9.065-26.442-18.572-38.671-28.353-1.27-15.418-1.92-31.261-1.92-47.353 0-16.124.653-31.996 1.927-47.443 12.224-9.732 25.155-19.194 38.664-28.264 17.245-11.578 34.746-22.054 52.163-31.277 17.417 9.223 34.918 19.699 52.163 31.277 13.503 9.065 26.442 18.572 38.672 28.353 1.27 15.419 1.92 31.261 1.92 47.353 0 16.113-.652 31.975-1.925 47.412-12.258 9.773-25.198 19.252-38.667 28.295zm35.675-.748c-3.083 22.732-7.579 44.223-13.379 63.848-17.067-5.444-34.755-12.477-52.688-20.928 13.916-7.808 27.815-16.354 41.54-25.568 8.38-5.626 16.567-11.42 24.527-17.352zm-175.674-149.933c3.083-22.727 7.578-44.213 13.377-63.834 17.067 5.444 34.755 12.476 52.687 20.928-13.915 7.808-27.815 16.354-41.539 25.568-8.395 5.636-16.579 11.425-24.525 17.338zm175.674.014c-7.932-5.911-16.117-11.705-24.527-17.351-13.724-9.214-27.624-17.76-41.54-25.568 17.932-8.451 35.621-15.484 52.688-20.928 5.8 19.624 10.296 41.114 13.379 63.847zm-151.269-95.134c17.496-41.884 40.615-65.906 63.432-65.906s45.936 24.022 63.431 65.906c1.663 3.982 3.261 8.083 4.792 12.292-22.059 7.055-45.047 16.604-68.223 28.314-23.175-11.71-46.163-21.26-68.222-28.314 1.529-4.209 3.127-8.309 4.79-12.292zm-139.194 72.237c-2.724-14.262-1.05-25.939 4.974-34.705 12.811-18.64 45.935-24.029 90.875-14.787 4.308.886 8.679 1.894 13.104 3.02-7.741 26.263-13.253 55.599-16.303 86.661-16.822 13.816-32.288 28.134-46.064 42.637-25.235-29.598-41.956-58.581-46.586-82.826zm59.98 97.747c9.389-9.962 19.633-19.852 30.615-29.557-.48 9.777-.724 19.679-.724 29.667 0 9.93.241 19.775.716 29.498-10.999-9.758-21.245-19.678-30.607-29.608zm54.807 75.07c7.933 5.911 16.117 11.705 24.527 17.351 13.724 9.214 27.624 17.76 41.539 25.568-17.932 8.451-35.621 15.484-52.687 20.928-5.8-19.625-10.296-41.115-13.379-63.847zm151.269 95.134c-17.495 41.884-40.614 65.906-63.43 65.906s-45.936-24.022-63.431-65.906c-1.664-3.982-3.261-8.083-4.792-12.292 22.059-7.055 45.047-16.604 68.222-28.314 23.175 11.71 46.163 21.26 68.223 28.314-1.531 4.209-3.128 8.309-4.792 12.292zm134.221-37.532c-12.812 18.641-45.935 24.03-90.876 14.787-4.308-.886-8.678-1.894-13.103-3.02 7.745-26.273 13.258-55.622 16.307-86.698 16.776-13.795 32.25-28.123 46.038-42.627 25.248 29.607 41.977 58.601 46.608 82.853 2.724 14.262 1.05 25.939-4.974 34.705z" fill="#020288"/></g><g><circle cx="258.727" cy="256" fill="#ffbdbc" r="57.267"/><g><ellipse cx="458.046" cy="191.186" fill="#ffbdbc" rx="44.017" ry="44.446"/></g><g><ellipse cx="55.064" cy="330.427" fill="#ffbdbc" rx="45.127" ry="44.601"/></g></g></g></svg>