<svg id="Layer_1" enable-background="new 0 0 512.003 512.003" height="512" viewBox="0 0 512.003 512.003" width="512" xmlns="http://www.w3.org/2000/svg"><g><g fill="#020288"><path d="m502.002 432.004h-70v-25.26l4.958 2.894c3.094 1.806 6.916 1.82 10.021.036 3.105-1.783 5.021-5.091 5.021-8.672v-95.527c-.529-13.268-19.476-13.258-20 0v78.11l-34.958-20.407c-3.115-1.82-6.969-1.82-10.084 0l-34.958 20.407v-78.159c-.529-13.268-19.476-13.258-20 0v95.576c0 3.581 1.915 6.889 5.021 8.672 3.106 1.782 6.927 1.77 10.021-.036l44.958-26.245 20 11.675v36.935h-242.002c-2.652 0-5.196 1.054-7.071 2.929-1.875 1.876-2.929 4.419-2.929 7.071v19.999c-1.653 39.809-58.362 39.778-60 0v-412c0-11.247-3.733-21.638-10.024-30h291.976c7.933-.058 15.449 3.026 21.139 8.677 5.746 5.706 8.911 13.279 8.911 21.323v78.649c.529 13.268 19.476 13.258 20 0v-78.649c0-13.413-5.263-26.026-14.818-35.515-9.501-9.435-22.093-14.606-35.302-14.485h-331.881c-27.57 0-50 22.43-50 50v19.999c0 5.522 4.477 10 10 10h70v382.002c0 27.57 22.43 50 50 50h332.001c27.57 0 50-22.43 50-50v-19.999c0-5.522-4.478-10-10-10zm-422.001-372.003h-60v-9.999c1.653-39.809 58.362-39.778 60 0zm412.001 402.002c0 16.542-13.458 30-30 30h-292.025c6.29-8.362 10.023-18.754 10.023-30v-9.999h312.001v9.999z"/><path d="m392.001 70.001c0-5.522-4.478-10-10-10h-252c-13.268.528-13.258 19.476 0 20h252c5.522 0 10-4.477 10-10z"/><path d="m130.002 120.001h155.001c13.268-.529 13.258-19.476 0-20h-155.001c-13.268.529-13.258 19.477 0 20z"/><path d="m130.002 160.001h124.001c13.269-.529 13.259-19.476 0-20h-124.001c-13.268.529-13.258 19.476 0 20z"/><path d="m130.002 200.001h110.001c13.268-.528 13.258-19.476 0-20h-110.001c-13.268.529-13.258 19.476 0 20z"/><path d="m130.002 240.001h105.001c13.268-.528 13.258-19.476 0-20h-105.001c-13.268.529-13.258 19.476 0 20z"/><path d="m130.002 280.001h119.001c13.269-.529 13.259-19.476 0-20h-119.001c-13.268.529-13.258 19.477 0 20z"/><path d="m130.002 320.001h140c13.268-.529 13.258-19.476 0-20h-140c-13.268.529-13.258 19.477 0 20z"/><path d="m290.003 340.001h-160.001c-13.268.528-13.258 19.476 0 20h160.001c13.268-.529 13.258-19.476 0-20z"/><path d="m290.003 380.001h-160.001c-13.268.528-13.258 19.476 0 20h160.001c13.268-.529 13.258-19.476 0-20z"/></g><path clip-rule="evenodd" d="m399.669 113.106 18.456 10.525 21.425.114c5.507.021 10.353 2.982 12.945 7.414l10.827 18.524 18.524 10.826c5.165 3.015 7.869 8.632 7.421 14.22l.107 20.151 10.669 18.708c2.756 4.856 2.511 10.598-.144 15.081l-10.525 18.455-.114 21.425c-.022 5.507-2.982 10.353-7.414 12.945l-18.524 10.827-10.826 18.524c-3.015 5.165-8.632 7.869-14.22 7.421l-20.151.107-18.708 10.669c-4.856 2.756-10.598 2.511-15.081-.144l-18.455-10.525-21.425-.114c-5.507-.022-10.353-2.982-12.945-7.414l-10.827-18.524-18.524-10.826c-5.165-3.015-7.869-8.632-7.421-14.22l-.107-20.151-10.669-18.708c-2.756-4.856-2.511-10.597.144-15.081l10.525-18.456.114-21.425c.02-5.317 2.817-10.257 7.414-12.945l18.524-10.827 10.826-18.524c3.015-5.165 8.632-7.869 14.22-7.421l20.151-.107 18.708-10.669c4.855-2.755 10.597-2.51 15.08.145z" fill="#fff69b" fill-rule="evenodd"/><g><path d="m392.002 271.002c-27.57 0-50-22.43-50-50 2.746-66.332 97.264-66.313 100 0 0 27.57-22.43 50-50 50zm0-80c-16.542 0-30 13.458-30 30 1.648 39.799 58.358 39.788 60 0 0-16.542-13.458-30-30-30z" fill="#020288"/></g></g></svg>