<svg id="Layer_1" enable-background="new 0 0 511.949 511.949" height="512" viewBox="0 0 511.949 511.949" width="512" xmlns="http://www.w3.org/2000/svg"><g><path clip-rule="evenodd" d="m43.012 166.535h289.132v-1.125c-.783-22.38-20.176-41.64-41.908-42.831-2.094-31.49-36.664-51.435-64.967-37.508-17.559-26.224-57.469-26.212-75.018 0-28.318-13.932-62.875 6.035-64.967 37.508-14.436 1.125-28.091 9.11-35.878 22.597-3.642 6.308-5.599 13.126-6.013 19.932z" fill="#fff69b" fill-rule="evenodd"/><g fill="#020288"><path d="m502.002 73.787h-84.418c-4.305 0-8.126 2.754-9.487 6.838l-25.303 75.91h-372.794c-3.215 0-6.233 1.545-8.112 4.153-1.88 2.607-2.391 5.959-1.375 9.009l45.846 137.538c-53.773 48.486-19.617 139.086 53.642 139.3 47.672.349 85.635-42.785 79.375-90h51.717l22.681 68.042c5.502 16.902 24.106 25.86 40.417 20.336 9.594-3.17 17.205-10.8 20.348-20.367l110.253-330.759h77.21c13.268-.529 13.258-19.476 0-20zm-402.002 352.748c-33.084 0-59.999-26.916-59.999-60 3.296-79.599 116.715-79.575 119.999 0 0 33.084-26.916 60-60 60zm0-140c-13.146 0-25.561 3.189-36.515 8.832l-39.611-118.832h352.252l-53.334 160h-148.634c-11.893-29.29-40.65-50-74.158-50zm195.55 131.729c-1.202 3.661-3.985 6.453-7.635 7.659-6.28 2.073-13.076-1.345-15.159-7.646l-20.58-61.741h63.95z"/><path d="m100 331.535c-19.299 0-34.999 15.701-34.999 35 1.923 46.433 68.084 46.418 70 0 0-19.299-15.701-35-35.001-35zm0 50c-8.271 0-14.999-6.729-14.999-15 .824-19.901 29.179-19.893 30 0 0 8.272-6.729 15-15.001 15z"/></g></g></svg>