<svg id="Capa_1" enable-background="new 0 0 512 512" height="512" viewBox="0 0 512 512" width="512" xmlns="http://www.w3.org/2000/svg"><g><g><g><path d="m197.558 193.917v220.529h234.245v-220.529zm177.31 106.557h-120.375v-51.533h120.375z" fill="#fff59b"/></g></g><g fill="#020288"><path d="m447.592 404.445h-245.952c-7.635-23.16-25.336-41.789-47.902-50.682v-316.047c.001-20.797-16.92-37.716-37.718-37.716h-73.583c-5.523 0-10 4.478-10 10v43.938c0 5.522 4.477 10 10 10h47.36v291.531c-28.285 12.935-47.986 41.499-47.986 74.577 0 45.189 36.768 81.954 81.962 81.954 31.352 0 58.649-17.693 72.429-43.617h251.391c17.629 0 31.971-14.341 31.971-31.969s-14.343-31.969-31.972-31.969zm-347.796-360.507h-47.36v-23.938h63.583c9.771 0 17.719 7.947 17.719 17.716v310.979c-3.267-.398-6.593-.603-9.966-.603-4.763 0-9.433.408-13.976 1.192v-295.346c0-5.523-4.477-10-10-10zm23.976 448.062c-34.166 0-61.962-27.792-61.962-61.954s27.796-61.954 61.962-61.954 61.962 27.792 61.962 61.954-27.796 61.954-61.962 61.954zm323.82-43.617h-243.926c1.353-5.897 2.069-12.035 2.069-18.337 0-1.882-.064-3.75-.19-5.601h242.047c6.601 0 11.971 5.369 11.971 11.969s-5.37 11.969-11.971 11.969z"/><path d="m123.773 392.2c-20.87 0-37.85 16.978-37.85 37.846s16.979 37.846 37.85 37.846 37.849-16.978 37.849-37.846-16.979-37.846-37.849-37.846zm0 55.692c-9.842 0-17.85-8.006-17.85-17.846s8.007-17.846 17.85-17.846 17.849 8.006 17.849 17.846-8.007 17.846-17.849 17.846z"/></g></g></svg>