<svg id="Capa_1" enable-background="new 0 0 512 512" height="512" viewBox="0 0 512 512" width="512" xmlns="http://www.w3.org/2000/svg"><g><g><g><g><g><path d="m41.262 167.383h43.66v186.352h-43.66z" fill="#a4fcc4"/></g></g></g><g><g><g><g><path d="m169.867 167.383h43.66v186.352h-43.66z" fill="#a4fcc4"/></g></g></g></g><g><g><g><g><path d="m298.473 167.383h43.66v186.352h-43.66z" fill="#a4fcc4"/></g></g></g></g><g><g><g><g><path d="m427.079 167.383h43.66v186.352h-43.66z" fill="#a4fcc4"/></g></g></g></g></g><g fill="#020288"><path d="m17.637 116.469c-3.855 1.474-6.395 5.182-6.375 9.309v.093 41.511c0 5.523 4.477 10 10 10h469.477c5.523 0 10-4.477 10-10v-41.511c0-.004 0-.008 0-.013.027-4.101-2.465-7.808-6.266-9.346-.071-.029-.125-.05-.159-.063l-234.566-94.814c-2.404-.971-5.091-.971-7.495 0l-234.566 94.814zm463.101 40.914h-449.476v-21.592h449.477v21.592zm-224.738-115.691 183.315 74.099h-366.63z"/><path d="m502 388.594h-1.262v-34.859c0-5.522-4.477-10-10-10h-83.659c-5.523 0-10 4.478-10 10v34.859h-24.946v-34.859c0-5.522-4.477-10-10-10h-83.66c-5.523 0-10 4.478-10 10v34.859h-24.946v-34.859c0-5.522-4.477-10-10-10h-83.66c-5.523 0-10 4.478-10 10v34.859h-24.946v-34.859c0-5.522-4.477-10-10-10h-83.659c-5.523 0-10 4.478-10 10v34.859h-1.262c-5.523 0-10 4.478-10 10v82.5c0 5.522 4.477 10 10 10h492c5.523 0 10-4.478 10-10v-82.5c0-5.523-4.477-10-10-10zm-482 20h472v21.25h-472zm397.079-44.86h63.659v24.859h-63.659zm-128.606 0h63.66v24.859h-63.66zm-128.606 0h63.66v24.859h-63.66zm-128.605 0h63.659v24.859h-63.659zm460.738 107.36h-472v-21.25h472z"/></g></g></svg>