<svg id="Capa_1" enable-background="new 0 0 512 512" height="512" viewBox="0 0 512 512" width="512" xmlns="http://www.w3.org/2000/svg"><g><g><g><g><g><path d="m395.29 209.68c0 64.78-44.43 119.21-104.56 134.6h-69.46c-26.63-6.81-50.17-21.28-68.14-40.92.1-39.67 32.29-71.81 71.99-71.81h2.38c15.25 0 29.4 4.75 41.05 12.85 18.79-30.15 52.24-50.21 90.38-50.21h35.5c.57 5.09.86 10.26.86 15.49z" fill="#a4fcc4"/></g></g></g></g><g fill="#020288"><path d="m215.069 114.938c-20.375 0-36.951 16.577-36.951 36.952s16.576 36.951 36.951 36.951 36.952-16.576 36.952-36.951-16.577-36.952-36.952-36.952zm0 53.904c-9.347 0-16.951-7.604-16.951-16.951 0-9.348 7.604-16.952 16.951-16.952 9.348 0 16.952 7.604 16.952 16.952 0 9.346-7.604 16.951-16.952 16.951z"/><path d="m256 0c-114.257 0-207.211 92.74-207.211 206.733 0 47.339 16.448 93.606 46.313 130.278 28.501 34.996 68.006 59.938 111.623 70.57l15.397 26.129c-34.497 5.755-56.033 19.952-56.033 37.793.001 26.587 45.231 40.497 89.911 40.497s89.91-13.91 89.91-40.496c0-17.838-21.537-32.037-56.033-37.792l15.397-26.129c43.617-10.633 83.122-35.574 111.623-70.57 29.865-36.672 46.313-82.939 46.313-130.278.001-113.995-92.953-206.735-207.21-206.735zm69.91 471.504c0 5.948-24.498 20.496-69.91 20.496s-69.91-14.548-69.91-20.496c0-4.967 16.121-15.427 47.015-19.156l14.28 24.233c1.798 3.051 5.074 4.923 8.615 4.923s6.817-1.872 8.615-4.923l14.28-24.233c30.894 3.73 47.015 14.191 47.015 19.156zm-29.232-82.456c-2.71.599-5.049 2.297-6.458 4.688l-34.22 58.071-34.22-58.071c-1.409-2.391-3.748-4.089-6.458-4.688-84.907-18.76-146.533-95.434-146.533-182.314 0-102.965 83.982-186.734 187.211-186.734s187.211 83.769 187.211 186.733c0 86.881-61.626 163.555-146.533 182.315z"/><path d="m404.368 193.085c-8.388-75.461-72.172-132.365-148.368-132.365-82.318 0-149.29 66.823-149.29 148.96 0 37.272 13.866 72.94 39.042 100.43 19.675 21.504 44.932 36.67 73.031 43.856 12.082 3.103 24.604 4.675 37.217 4.675s25.135-1.572 37.21-4.673c65.991-16.89 112.08-76.224 112.08-144.288 0-5.553-.311-11.14-.922-16.595zm-116.124 141.51c-20.918 5.369-43.562 5.372-64.497-.003-24.33-6.222-46.197-19.356-63.242-37.986-21.793-23.796-33.795-54.667-33.795-86.926 0-71.108 57.999-128.96 129.29-128.96 65.991 0 121.23 49.256 128.492 114.583.529 4.728.798 9.564.798 14.377 0 58.924-39.904 110.289-97.046 124.915z"/></g></g></svg>