<svg id="Capa_1" enable-background="new 0 0 512 512" height="512" viewBox="0 0 512 512" width="512" xmlns="http://www.w3.org/2000/svg"><g><g><g><g><g><g><path d="m277.145 439.621c2.738 6.831 10.319 10.352 17.3 8.025 3.146-1.049 5.817-3.189 7.525-6.036 0 0 26.211-38.05 26.211-41.737v-18.219c0-3.156 1.073-6.221 3.047-8.684l10.099-12.625c5.255-6.572 3.514-16.273-3.705-20.601l-86.929-59.086c-15.988-5.6-31.511-1.208-43.176 4.718-10.235 5.2-12.244 18.955-3.887 26.828 37.162 35.012 8.647 59.87 22.061 64.64 10.4 3.699 29.168-5.565 32.59 4.929z" fill="#e2c4ff"/></g></g></g></g><g><g><g><g><path d="m438.96 297.753c-3.447.583-6.668 1.046-9.579 1.438-8.165 1.094-15.712-4.219-17.733-12.206-.689-2.745-13.478-6.168-28.917-9.33-30.058-6.168-57.798-21.072-78.834-43.428-29.214-31.044-71.542-21.935-77.6-20.64-26.632 5.696-35.203-27.495-18.718-49.185.083-.107 1.759-12.242 6.264-25.66 13.537-3.173 27.657-4.849 42.157-4.849 94.832-.001 172.905 71.703 182.96 163.86z" fill="#e2c4ff"/></g></g></g></g><g><g><g><g><path d="m158.494 370.193-.25 2.139c-1.177 10.079-5.301 19.587-11.873 27.312-5.313 6.252-9.056 13.703-10.899 21.702l-6.798 29.499c-34.966-33.504-56.728-80.653-56.728-132.9 0-8.961.642-17.78 1.878-26.397 11.754-1.093 23.473 3.756 30.985 13.252l12.658 15.998c4.326 5.467 10.186 9.532 16.818 11.683 16.02 5.195 26.158 20.978 24.209 37.712z" fill="#e2c4ff"/></g></g></g></g></g><g><path d="m448.901 296.668c-5.154-47.236-27.503-90.857-62.93-122.828-33.211-29.971-75.485-47.412-119.971-49.691v-41.524h87.896c3.016 0 5.871-1.361 7.77-3.704l25.372-31.313c2.974-3.671 2.974-8.921 0-12.592l-25.372-31.312c-1.899-2.343-4.753-3.704-7.77-3.704h-201.165c-5.523 0-10 4.478-10 10v62.625c0 5.522 4.477 10 10 10h93.269v41.522c-11.638.593-23.182 2.219-34.438 4.858-37.878 8.872-71.904 28.783-98.397 57.579-26.641 28.956-43.667 64.761-49.239 103.545-1.313 9.154-1.979 18.513-1.979 27.817 0 53.402 21.241 103.164 59.808 140.118 36.28 34.782 83.956 53.936 134.245 53.936 107.001 0 194.054-87.052 194.054-194.054 0-7.126-.388-14.286-1.153-21.278zm-286.17-276.668h186.397l17.27 21.313-17.27 21.313h-186.397zm93.269 472c-45.106 0-87.867-17.18-120.407-48.375-34.595-33.147-53.646-77.781-53.646-125.679 0-8.357.598-16.761 1.776-24.976 10.091-70.239 63.299-128.307 132.402-144.493 12.98-3.042 26.396-4.585 39.875-4.585 89 0 163.381 66.612 173.02 154.947.686 6.275 1.034 12.704 1.034 19.106 0 95.975-78.08 174.055-174.054 174.055z" fill="#020288"/></g></g></svg>