<svg id="Layer_1" enable-background="new 0 0 512.002 512.002" height="512" viewBox="0 0 512.002 512.002" width="512" xmlns="http://www.w3.org/2000/svg"><g><path clip-rule="evenodd" d="m146 110.001h220v312h-220z" fill="#a4fbc4" fill-rule="evenodd"/><g fill="#020288"><path d="m386.001 0h-260c-16.542 0-30 13.458-30 30v452.002c0 16.542 13.458 30 30 30h260c16.542 0 30-13.458 30-30v-452.002c0-16.542-13.458-30-30-30zm-270 60h71.713c4.127 11.641 15.249 20 28.287 20h80c13.037 0 24.158-8.359 28.285-20h71.715v392.002h-280zm10-40h260c5.514 0 10 4.486 10 10v10h-80.001c-5.522 0-10 4.477-10 10 0 5.514-4.485 10-9.999 10h-80c-5.514 0-10-4.486-10-10 0-5.523-4.477-10-10-10h-80v-10c0-5.514 4.486-10 10-10zm260 472.002h-260c-5.514 0-10-4.486-10-10v-10h280v10c0 5.514-4.486 10-10 10z"/><path d="m316 231h-25v-25c0-5.523-4.478-10-10-10h-50c-5.523 0-10 4.477-10 10v25h-25c-5.523 0-10 4.477-10 10v50c0 5.523 4.477 10 10 10h25v25c0 5.523 4.477 10 10 10h50c5.522 0 10-4.477 10-10v-25h25c5.522 0 10-4.477 10-10v-50c0-5.522-4.477-10-10-10zm-10 50h-25c-5.522 0-10 4.477-10 10v25h-30v-25c0-5.523-4.477-10-10-10h-25v-30h25c5.523 0 10-4.477 10-10v-25h30v25c0 5.523 4.478 10 10 10h25z"/></g></g></svg>