<svg id="Layer_1" enable-background="new 0 0 512.002 512.002" height="512" viewBox="0 0 512.002 512.002" width="512" xmlns="http://www.w3.org/2000/svg"><g><g fill="#020288"><path d="m338.354 430.451v-42.547c0-16.542-13.458-29.999-30-29.999h-7.49c-5.514 0-10-4.486-10-10v-61.245c-.529-13.268-19.476-13.258-20 0v61.245c0 16.542 13.458 30 30 30h7.49c5.514 0 10 4.485 10 9.999v42.547c-16.642 4.426-28.941 19.623-28.941 37.639 2.139 51.662 75.752 51.645 77.883 0-.001-18.016-12.3-33.213-28.942-37.639zm-10 56.581c-10.444 0-18.941-8.497-18.941-18.941 1.04-25.128 36.846-25.121 37.883 0-.001 10.444-8.498 18.941-18.942 18.941z"/><path d="m483.06 430.451v-42.547c0-16.542-13.458-29.999-30-29.999h-57.49c-5.514 0-10-4.486-10-10v-61.245c-.529-13.268-19.476-13.258-20 0v61.245c0 16.542 13.458 30 30 30h57.49c5.514 0 10 4.485 10 9.999v42.547c-16.642 4.426-28.941 19.623-28.941 37.639 2.139 51.662 75.752 51.645 77.883 0 0-18.016-12.299-33.213-28.942-37.639zm-9.999 56.581c-10.444 0-18.941-8.497-18.941-18.941 1.04-25.128 36.846-25.121 37.883 0-.001 10.444-8.498 18.941-18.942 18.941z"/><path d="m146.431 286.66c-.529-13.268-19.476-13.258-20 0v61.245c0 5.514-4.486 10-10 10h-57.49c-16.542 0-30 13.457-30 29.999v42.547c-16.642 4.426-28.941 19.623-28.941 37.64 2.139 51.662 75.752 51.646 77.882 0 0-18.017-12.299-33.214-28.941-37.639v-42.547c0-5.514 4.486-9.999 10-9.999h57.49c16.542 0 30-13.458 30-30zm-88.549 181.431c0 10.444-8.497 18.941-18.941 18.941-25.128-1.04-25.121-36.846 0-37.883 10.444.001 18.941 8.498 18.941 18.942z"/><path d="m231.137 276.66c-5.523 0-10 4.478-10 10v61.245c0 5.514-4.486 10-10 10h-7.49c-16.542 0-30 13.457-30 29.999v42.547c-16.643 4.425-28.941 19.623-28.941 37.639 2.139 51.662 75.752 51.645 77.883 0 0-18.016-12.299-33.214-28.941-37.639v-42.547c0-5.514 4.486-9.999 10-9.999h7.49c16.542 0 30-13.458 30-30v-61.245c-.001-5.522-4.478-10-10.001-10zm-28.548 191.431c0 10.444-8.497 18.941-18.941 18.941-25.128-1.04-25.121-36.846 0-37.883 10.444.001 18.941 8.498 18.941 18.942z"/></g><path clip-rule="evenodd" d="m458.261 177.285c66.112 20.217 53.702 115.879-16.261 117.746-127.333 0-254.666 0-382 0-60.528-1.794-68.311-86.033-9.487-99.087-8.416-79.376 71.786-141.45 146.398-113.834 77.88-145.474 294.954-68.287 261.35 95.175z" fill="#b2f0fb" fill-rule="evenodd"/><path d="m328.165 160.753-63.641-63.641c-2.362-2.361-5.749-3.389-9.023-2.736-3.276.651-6.01 2.896-7.288 5.982-13.949 33.694-21.391 48.598-44.4 71.607l-14.143 14.143c-11.696 11.697-11.696 30.729 0 42.427l7.072 7.071c11.697 11.697 30.729 11.695 42.426 0l7.071-7.072 21.214 21.215c3.906 3.905 10.237 3.905 14.143 0 3.905-3.905 3.905-10.237 0-14.143l-21.081-21.08c19.243-17.756 34.345-25.019 64.404-37.463 3.086-1.277 5.331-4.012 5.982-7.287.652-3.276-.375-6.661-2.736-9.023zm-103.14 60.711c-3.898 3.899-10.243 3.898-14.141 0l-7.071-7.071c-3.899-3.898-3.899-10.243 0-14.142l7.071-7.071 21.213 21.213zm21.348-21.08-21.481-21.48c17.837-19.3 26.617-35.48 36.002-57.136l42.615 42.615c-21.656 9.386-37.838 18.165-57.136 36.001z" fill="#020288"/></g></svg>