<svg id="Layer_1" enable-background="new 0 0 512.002 512.002" height="512" viewBox="0 0 512.002 512.002" width="512" xmlns="http://www.w3.org/2000/svg"><g><path clip-rule="evenodd" d="m96.001 96.001h320v320h-320z" fill="#b2f0fb" fill-rule="evenodd"/><g fill="#020288"><path d="m130.001 0h-120.001c-5.522 0-10 4.477-10 10v120c0 5.523 4.477 10 10 10h40c5.523 0 10-4.477 10-10v-70h70c5.523 0 10-4.477 10-10v-40c.001-5.523-4.476-10-9.999-10zm-10 40h-70.001c-5.523 0-10 4.477-10 10v70h-20v-100h100v20z"/><path d="m130 452.002h-70v-70c0-5.523-4.477-10-10-10h-40c-5.523 0-10 4.477-10 10v120c0 5.523 4.477 10 10 10h120c5.523 0 10-4.477 10-10v-40c0-5.523-4.477-10-10-10zm-10 40h-100v-100h20v70c0 5.523 4.477 10 10 10h70z"/><path d="m502.002 372.002h-40c-5.523 0-10 4.477-10 10v70h-70c-5.523 0-10 4.477-10 10v40c0 5.523 4.477 10 10 10h120c5.523 0 10-4.477 10-10v-120c0-5.523-4.477-10-10-10zm-10 120h-100v-20h70c5.523 0 10-4.477 10-10v-70h20z"/><path d="m502.002 0h-120c-5.523 0-10 4.477-10 10v40c0 5.523 4.477 10 10 10h70v70c0 5.523 4.477 10 10 10h40c5.523 0 10-4.477 10-10v-120c0-5.523-4.477-10-10-10zm-10 120.001h-20v-70.001c0-5.523-4.477-10-10-10h-70v-20h100z"/><path d="m256.001 136.001c-49.626 0-90 40.374-90 90v60c4.517 119.217 175.487 119.216 180-.001v-59.999c0-49.626-40.374-90-90-90zm0 220c-38.598 0-70-31.402-70-70v-20.109c28.915-1.265 52.388-13.616 70-36.803 17.612 23.187 41.085 35.537 70 36.803v20.109c0 38.598-31.402 70-70 70zm70-110.134c-26.602-1.435-46.703-14.515-61.339-39.866-3.604-6.592-13.716-6.595-17.32 0-14.637 25.351-34.738 38.431-61.34 39.866v-19.867c0-38.598 31.402-70 70-70s70 31.402 70 70v19.867z"/><path d="m286.005 271.001c-5.525-.004-10.004 4.474-10.004 10 .491 13.247 19.515 13.25 20.004 0 0-5.523-4.477-10-10-10z"/><path d="m226.005 271.001c-5.525-.004-10.004 4.474-10.004 10 .491 13.247 19.515 13.25 20.004 0 0-5.523-4.477-10-10-10z"/><path d="m266.001 306.002h-20c-13.245.488-13.252 19.51 0 20h20c13.246-.488 13.252-19.51 0-20z"/></g></g></svg>