<svg id="Layer_1" enable-background="new 0 0 512.585 512.585" height="512" viewBox="0 0 512.585 512.585" width="512" xmlns="http://www.w3.org/2000/svg"><g><g clip-rule="evenodd" fill="#b2f0fb" fill-rule="evenodd"><path d="m358.695 238.692c23.435-23.434 23.434-61.429 0-84.864-23.435-23.435-61.43-23.435-84.864 0-54.052 58.523 26.374 138.906 84.864 84.864z"/><path d="m151.255 393.964-32.696-32.696c-27.789 5.577-54.041 18.953-75.299 40.21-30.192 30.192-44.485 70.46-43.112 110.898 70.446 3.935 138.416-48.172 151.107-118.412z"/></g><path d="m506.197 13.397c-.925-3.451-3.62-6.146-7.071-7.071-113.375-34.028-252.03 75.121-327.336 186.311-51.285-6.476-104.457 11.741-140.882 48.534-10.502 10.503-19.593 22.35-27.019 35.213-1.521 2.634-1.76 5.816-.651 8.647 1.109 2.832 3.446 5.004 6.351 5.905l94.061 29.154c-2.859 8.004-5.366 15.881-7.494 23.589-.958 3.47.022 7.187 2.568 9.733l60.389 60.389c2.548 2.556 6.303 3.523 9.733 2.568 7.708-2.128 15.585-4.636 23.589-7.494l29.154 94.061c.9 2.905 3.073 5.242 5.905 6.351 2.823 1.107 6.01.872 8.647-.651 12.863-7.426 24.71-16.517 35.213-27.019 19.289-19.289 33.282-42.148 41.592-67.943 7.527-23.367 9.909-48.5 6.941-72.939 111.215-75.297 220.35-214.059 186.31-327.338zm-478.205 262.304c5.067-7.281 10.775-14.106 17.057-20.388 30.045-30.045 71.747-45.849 113.886-43.719-19.472 29.836-35.908 60.423-48.068 89.793zm89.04 67.736c3.609-12.093 8.255-24.797 13.832-37.886l76.108 76.108c-13.089 5.577-25.793 10.223-37.886 13.832zm140.178 124.036c-6.281 6.281-13.107 11.99-20.388 17.057l-25.687-82.875c29.379-12.164 59.975-28.605 89.82-48.085 2.307 42.511-13.245 83.404-43.745 113.903zm-30.789-94.651-86.72-86.72c42.609-88.424 123.477-188.846 212.507-236.971 6.19 27.132 19.754 51.692 39.622 71.56 19.868 19.869 44.428 33.434 71.561 39.624-48.125 89.03-148.547 169.898-236.97 212.507zm246.153-231.017c-51.913-9.834-92.022-49.943-101.855-101.856 38.86-17.533 78.855-24.493 117.562-15.706 8.786 38.707 1.826 78.702-15.707 117.562z" fill="#020288"/></g></svg>