<svg id="Capa_1" enable-background="new 0 0 512 512" height="512" viewBox="0 0 512 512" width="512" xmlns="http://www.w3.org/2000/svg"><g><g><g><path d="m81.851 122.553v212.937h348.297v-212.937zm241.611 155.122c-43.019 18.755-91.905 18.755-134.924 0v-66.384l-28.961-11.377 96.423-37.876 96.423 37.877-28.961 11.377z" fill="#e2c4ff"/></g></g><g fill="#020288"><path d="m502 369.755h-17.851v-265.394c0-19.744-16.063-35.808-35.809-35.808h-384.68c-19.745 0-35.809 16.063-35.809 35.808v265.394h-17.851c-5.523 0-10 4.478-10 10v21.043c0 23.517 19.132 42.648 42.649 42.648h426.702c23.517 0 42.649-19.132 42.649-42.648v-21.043c0-5.523-4.477-10-10-10zm-454.149-265.394c0-8.717 7.092-15.808 15.809-15.808h384.68c8.717 0 15.809 7.091 15.809 15.808v221.128h-416.298zm0 241.128h416.298v24.266h-416.298zm444.149 55.309c0 12.488-10.16 22.648-22.649 22.648h-426.702c-12.489 0-22.649-10.16-22.649-22.648v-11.043h226v3.139c0 5.522 4.477 10 10 10s10-4.478 10-10v-3.139h226z"/><path d="m356.08 190.607-96.423-37.877c-2.351-.924-4.962-.924-7.313 0l-96.423 37.877c-3.827 1.503-6.344 5.196-6.344 9.308s2.517 7.805 6.344 9.308l22.618 8.885v59.568c0 3.978 2.357 7.577 6.003 9.167 22.707 9.899 47.083 14.85 71.458 14.85s48.752-4.95 71.458-14.85c3.646-1.59 6.003-5.189 6.003-9.167v-59.568l22.618-8.885c3.827-1.503 6.344-5.196 6.344-9.308s-2.516-7.805-6.343-9.308zm-100.08-17.825 69.073 27.133-69.073 27.133-69.073-27.133zm57.462 98.197c-36.86 14.291-78.063 14.291-114.924 0v-45.016l53.806 21.136c1.175.462 2.416.692 3.656.692s2.481-.23 3.656-.692l53.806-21.136z"/></g></g></svg>