<svg id="Capa_1" enable-background="new 0 0 512 512" height="512" viewBox="0 0 512 512" width="512" xmlns="http://www.w3.org/2000/svg"><g><g fill="#020288"><path d="m431.982 85.657c-5.522 0-10 4.478-10 10v117.438c0 5.522 4.478 10 10 10s10-4.478 10-10v-117.438c0-5.522-4.477-10-10-10z"/><path d="m221.933 260.975c5.522 0 10-4.478 10-10v-15.678c0-5.522-4.478-10-10-10s-10 4.478-10 10v15.678c0 5.522 4.477 10 10 10z"/><path d="m300.067 250.975v-15.678c0-5.522-4.478-10-10-10s-10 4.478-10 10v15.678c0 5.522 4.478 10 10 10s10-4.478 10-10z"/><path d="m256 310.748c6.761 0 13.522-2.573 18.669-7.72 3.905-3.904 3.906-10.236.001-14.142-3.903-3.904-10.236-3.905-14.142-.001-2.498 2.496-6.559 2.496-9.057 0-3.904-3.906-10.237-3.905-14.142.001-3.905 3.905-3.904 10.237.001 14.142 5.148 5.147 11.909 7.72 18.67 7.72z"/><path d="m293.367 357.859c32.335-13.012 55.314-41.825 61.259-75.525 1.162.137 2.34.205 3.529.205 16.358 0 29.667-13.309 29.667-29.667 0-16.357-13.309-29.666-29.667-29.666-.675 0-1.345.022-2.012.066v-21.962h12.04c5.522 0 10-4.478 10-10v-88.97c0-5.522-4.478-10-10-10s-10 4.478-10 10v78.97h-12.04c-5.522 0-10 4.478-10 10v3.274h-49.947c-16.182 0-29.347-13.164-29.347-29.346 0-5.522-4.478-10-10-10s-10 4.478-10 10c0 27.209 22.137 49.346 49.347 49.346h49.947v22.716c0 3.813 2.169 7.294 5.591 8.976 3.422 1.68 7.502 1.27 10.521-1.061 1.187-.917 3.173-2.009 5.899-2.009 5.33 0 9.667 4.336 9.667 9.666s-4.337 9.667-9.667 9.667c-2.745 0-4.741-1.105-5.932-2.033-2.962-2.307-6.965-2.761-10.364-1.178-3.402 1.583-5.632 4.938-5.774 8.688-1.193 31.519-20.892 59.501-50.185 71.289-13.487 5.428-20.881 20.15-17.197 34.245l1.822 6.974h-29.051l1.822-6.974c3.684-14.095-3.71-28.816-17.197-34.246-29.293-11.787-48.991-39.77-50.185-71.288-.143-3.75-2.372-7.105-5.774-8.688-3.4-1.581-7.402-1.128-10.364 1.178-1.19.928-3.187 2.033-5.932 2.033-5.33 0-9.667-4.337-9.667-9.667s4.337-9.666 9.667-9.666c2.727 0 4.713 1.092 5.899 2.009 3.02 2.331 7.1 2.741 10.521 1.061 3.422-1.682 5.591-5.162 5.591-8.976v-45.989c0-5.522-4.478-10-10-10h-12.04v-78.97c0-5.522-4.478-10-10-10s-10 4.478-10 10v88.97c0 5.522 4.478 10 10 10h12.04v21.962c-.667-.044-1.337-.066-2.012-.066-16.358 0-29.667 13.309-29.667 29.666 0 16.358 13.309 29.667 29.667 29.667 1.189 0 2.367-.068 3.529-.205 5.944 33.7 28.924 62.514 61.258 75.524 4.176 1.681 6.46 6.253 5.315 10.636l-3.144 12.03h-37.995c-14.338 0-27.822 5.566-37.993 15.691-10.259 10.212-15.909 23.816-15.909 38.308v67.476c0 5.522 4.478 10 10 10h234.188c5.522 0 10-4.478 10-10v-67.477c0-14.491-5.65-28.096-15.909-38.308-10.172-10.126-23.654-15.692-37.949-15.692-.083 0-.169.001-.252.001h-37.787l-3.144-12.03c-1.142-4.383 1.142-8.955 5.317-10.635zm-22.937 42.665-14.43 14.43-14.43-14.43zm58.758 0c9.014 0 17.491 3.5 23.887 9.865 6.461 6.432 10.019 15.002 10.019 24.134v57.477h-214.188v-57.477c0-9.132 3.558-17.702 10.019-24.134 6.396-6.365 14.872-9.865 23.932-9.865h30.429l35.644 35.644c1.953 1.952 4.512 2.929 7.071 2.929s5.118-.977 7.071-2.929l35.644-35.644z"/></g><g><g><path d="m256 181.889-201.221-90.944 201.221-90.945 201.221 90.945z" fill="#a4fcc4"/></g></g></g></svg>