<svg id="Capa_1" enable-background="new 0 0 511.883 511.883" height="512" viewBox="0 0 511.883 511.883" width="512" xmlns="http://www.w3.org/2000/svg"><g><g><circle cx="209.274" cy="209.274" fill="#b2f0fb" r="153.377"/></g><g fill="#020288"><path d="m109.459 209.274c0-26.708 10.37-51.787 29.199-70.616 3.905-3.905 3.905-10.237 0-14.143-3.905-3.905-10.236-3.904-14.143 0-22.606 22.607-35.057 52.708-35.057 84.759 0 32.05 12.45 62.152 35.057 84.759 1.953 1.953 4.512 2.929 7.071 2.929s5.119-.976 7.071-2.929c3.905-3.905 3.905-10.237 0-14.143-18.828-18.829-29.198-43.907-29.198-70.616z"/><path d="m500.062 442.89-116.923-116.923c54.647-81.359 46.042-192.883-25.816-264.741-81.635-81.634-214.463-81.634-296.098 0-81.634 81.634-81.634 214.463 0 296.098 40.817 40.817 94.433 61.225 148.049 61.225 40.774 0 81.547-11.804 116.693-35.41l116.923 116.923c7.881 7.881 18.233 11.821 28.586 11.821s20.705-3.94 28.586-11.821c15.762-15.762 15.762-41.41 0-57.172zm-424.694-99.709c-73.836-73.836-73.836-193.977 0-267.813 36.918-36.918 85.412-55.377 133.906-55.377s96.988 18.459 133.906 55.377c73.836 73.836 73.836 193.977 0 267.813s-193.976 73.836-267.812 0zm281.955 14.142c4.872-4.872 9.453-9.928 13.744-15.143l31.284 31.284-28.887 28.887-31.285-31.285c5.216-4.29 10.272-8.871 15.144-13.743zm128.596 128.596c-7.964 7.965-20.923 7.965-28.887 0l-69.425-69.425 28.887-28.887 69.425 69.425c7.965 7.965 7.965 20.924 0 28.887z"/></g></g></svg>