<svg id="Layer_1" enable-background="new 0 0 510.919 510.919" height="512" viewBox="0 0 510.919 510.919" width="512" xmlns="http://www.w3.org/2000/svg"><g><path clip-rule="evenodd" d="m225.444 318.917c66.094 0 120-53.906 120-120-6.139-158.958-233.886-158.914-240.001.002.001 66.092 53.907 119.998 120.001 119.998z" fill="#a4fbc4" fill-rule="evenodd"/><g fill="#020288"><path d="m482.432 292.245c-19.103-42.571-54.357-113.364-67.532-157.527-74.86-212.112-386.385-161.002-389.456 64.203-.001 39.073 11.476 67.468 24.766 100.346 18.646 46.131 39.78 98.416 39.769 201.649-.095 5.362 4.62 10.114 10 10.001h215.965c5.523 0 10-4.478 10-10 0-49.521 7.877-66 54.5-66 74.659 1.997 57.888-48.075 60-101h16.174c20.957.325 35.446-23.021 25.814-41.672zm-18.342 17.416c-.789 1.28-3.095 4.257-7.479 4.257h-26.167c-5.523 0-10 4.478-10 10v56c0 20.025-3.86 25.897-7.223 28.776-5.096 4.362-14.898 6.224-32.777 6.224-55.204-.669-74.072 26.552-74.375 76h-196.157c-1.363-100.679-23.368-155.129-41.16-199.146-13.023-32.219-23.309-57.667-23.309-92.854 2.795-202.655 283.109-248.721 350.513-57.781 13.121 44.163 49.079 116.714 68.369 159.603 2.097 3.73.667 7.721-.235 8.921z"/><path d="m265.444 142.253c-8.013 0-15.546 3.121-21.212 8.786l-32.122 32.122s-5.455-5.455-5.455-5.455c-11.165-11.636-31.26-11.638-42.424 0-11.635 11.166-11.639 31.257 0 42.423 0 0 26.667 26.667 26.667 26.667 5.848 5.848 13.53 8.771 21.211 8.771s15.364-2.924 21.212-8.771l53.334-53.334c18.808-18.563 5.228-51.435-21.211-51.209zm7.069 37.067-53.333 53.334c-3.898 3.898-10.241 3.896-14.139 0l-26.667-26.667c-6.275-6.13-1.707-17.188 7.07-17.067 2.67 0 5.181 1.04 7.069 2.929l12.526 12.526c3.725 3.872 10.418 3.873 14.143 0 0 0 39.193-39.193 39.193-39.193 3.719-3.878 10.419-3.88 14.139 0 3.897 3.897 3.897 10.24-.001 14.138z"/></g></g></svg>