<svg id="Capa_1" enable-background="new 0 0 512 512" height="512" viewBox="0 0 512 512" width="512" xmlns="http://www.w3.org/2000/svg"><g><g><g fill="#020288"><path d="m59.745 353.727c0 15.757 12.816 28.577 28.568 28.577 15.753 0 28.569-12.819 28.569-28.577 0-15.757-12.816-28.576-28.569-28.576-15.752 0-28.568 12.819-28.568 28.576zm37.137 0c0 4.729-3.844 8.577-8.569 8.577s-8.568-3.848-8.568-8.577 3.844-8.576 8.568-8.576c4.726 0 8.569 3.847 8.569 8.576z"/><path d="m137.659 353.727c0 15.757 12.816 28.577 28.568 28.577 15.753 0 28.569-12.819 28.569-28.577 0-15.757-12.816-28.576-28.569-28.576-15.752 0-28.568 12.819-28.568 28.576zm37.137 0c0 4.729-3.844 8.577-8.569 8.577s-8.568-3.848-8.568-8.577 3.844-8.576 8.568-8.576c4.725 0 8.569 3.847 8.569 8.576z"/><path d="m233.764 343.727c-5.523 0-10 4.477-10 10s4.477 10 10 10h114.129c5.523 0 10-4.477 10-10s-4.477-10-10-10z"/><path d="m59.745 234.367c0 15.757 12.816 28.576 28.568 28.576 15.753 0 28.569-12.819 28.569-28.576s-12.816-28.576-28.569-28.576c-15.752 0-28.568 12.819-28.568 28.576zm37.137 0c0 4.729-3.844 8.576-8.569 8.576s-8.568-3.847-8.568-8.576 3.844-8.576 8.568-8.576c4.726 0 8.569 3.847 8.569 8.576z"/><path d="m137.659 234.367c0 15.757 12.816 28.576 28.568 28.576 15.753 0 28.569-12.819 28.569-28.576s-12.816-28.576-28.569-28.576c-15.752 0-28.568 12.819-28.568 28.576zm37.137 0c0 4.729-3.844 8.576-8.569 8.576s-8.568-3.847-8.568-8.576 3.844-8.576 8.568-8.576c4.725 0 8.569 3.847 8.569 8.576z"/><path d="m233.764 224.367c-5.523 0-10 4.477-10 10s4.477 10 10 10h129.069c5.523 0 10-4.477 10-10s-4.477-10-10-10z"/><path d="m417.723 45.327h-407.723c-5.523 0-10 4.477-10 10v358.08c0 5.523 4.477 10 10 10h352.833c5.523 0 10-4.477 10-10s-4.477-10-10-10h-342.833v-99.36h345.255c5.523 0 10-4.477 10-10s-4.477-10-10-10h-345.255v-99.36h387.723v36.441c0 5.523 4.477 10 10 10s10-4.477 10-10v-165.801c0-5.523-4.477-10-10-10zm-397.723 119.36v-99.36h387.723v99.36z"/><path d="m88.313 86.431c-15.753 0-28.568 12.819-28.568 28.577 0 15.757 12.816 28.576 28.568 28.576 15.753 0 28.569-12.819 28.569-28.576 0-15.758-12.816-28.577-28.569-28.577zm0 37.153c-4.725 0-8.568-3.847-8.568-8.576s3.844-8.577 8.568-8.577c4.725 0 8.569 3.848 8.569 8.577 0 4.728-3.843 8.576-8.569 8.576z"/><path d="m166.227 86.431c-15.753 0-28.568 12.819-28.568 28.577 0 15.757 12.816 28.576 28.568 28.576 15.753 0 28.569-12.819 28.569-28.576 0-15.758-12.816-28.577-28.569-28.577zm0 37.153c-4.725 0-8.568-3.847-8.568-8.576s3.844-8.577 8.568-8.577c4.725 0 8.569 3.848 8.569 8.577 0 4.728-3.844 8.576-8.569 8.576z"/><path d="m357.979 105.007h-124.215c-5.523 0-10 4.477-10 10s4.477 10 10 10h124.214c5.523 0 10-4.477 10-10 .001-5.523-4.477-10-9.999-10z"/></g></g><g><g><path d="m362.375 441.921c-23.648-10.576-38.929-33.906-38.929-59.437v-128.022c18.921-9.229 34.335-24.511 43.671-43.293h101.212c9.336 18.782 24.75 34.064 43.671 43.293v128.022c0 25.531-15.281 48.862-38.929 59.437l-55.348 24.752z" fill="#b2f0fb"/></g><g><path d="m414.602 361.101c-2.515 0-4.954-.949-6.814-2.681l-15.963-14.862c-4.042-3.763-4.269-10.091-.505-14.133 3.763-4.042 10.091-4.269 14.133-.505l7.527 7.008 15.619-22.439c3.155-4.533 9.387-5.65 13.92-2.495s5.65 9.388 2.495 13.92l-22.204 31.9c-1.656 2.379-4.262 3.922-7.145 4.23-.355.038-.709.057-1.063.057z" fill="#020288"/></g></g></g></svg>