<svg viewBox="62.584 127.157 917.561 894.44" xmlns="http://www.w3.org/2000/svg"><path fill="#ffb200" d="M257.904 1021.597a32 32 0 01-31.183-39.199l66.82-289.402L71.855 469.33a32 32 0 0122.664-54.526l283.17-.57L495.804 146.33a32.003 32.003 0 0129.054-19.17h.264a32 32 0 0129.102 18.693l123.624 268.386 270.365.568a31.997 31.997 0 0129.286 19.26 32.003 32.003 0 01-5.936 34.546L766.18 689.187l63.86 293.61a32.001 32.001 0 01-47.424 34.423L525.314 866.744l-250.97 150.308a31.974 31.974 0 01-16.44 4.545zM525.12 797.56c5.58 0 11.162 1.458 16.153 4.377L752.01 925.18l-51.927-238.748a31.989 31.989 0 017.85-28.607L874.767 478.65l-217.564-.457a31.996 31.996 0 01-29.034-18.694L525.76 237.513l-97.81 221.508a31.997 31.997 0 01-29.25 19.17l-227.497.46 180.214 181.824a32.005 32.005 0 018.452 29.726l-53.863 233.286 202.67-121.38a31.988 31.988 0 0116.442-4.548z"/></svg>