<svg id="Capa_1" enable-background="new 0 0 512 512" height="512" viewBox="0 0 512 512" width="512" xmlns="http://www.w3.org/2000/svg"><g><g><path d="m202.027 318.55c26.984 0 26.984 21.83 53.967 21.83 26.982 0 26.982-21.83 53.965-21.83 24.113 0 26.678 17.431 46.206 21.141 17.044-21.664 27.211-48.992 27.211-78.695 0-70.348-57.028-127.376-127.376-127.376s-127.376 57.028-127.376 127.376c0 29.702 10.166 57.029 27.209 78.693 19.517-3.714 22.087-21.139 46.194-21.139z" fill="#fff59b"/></g><g fill="#020288"><path d="m256 101.621c5.522 0 10-4.477 10-10v-17.912c0-5.523-4.478-10-10-10-5.523 0-10 4.477-10 10v17.912c0 5.523 4.477 10 10 10z"/><path d="m425.376 270.997h17.912c5.522 0 10-4.477 10-10s-4.478-10-10-10h-17.912c-5.523 0-10 4.477-10 10s4.477 10 10 10z"/><path d="m68.712 270.997h17.911c5.523 0 10-4.477 10-10s-4.477-10-10-10h-17.911c-5.523 0-10 4.477-10 10s4.477 10 10 10z"/><path d="m375.768 151.23c2.559 0 5.118-.976 7.071-2.929l12.665-12.665c3.905-3.905 3.905-10.237 0-14.142-3.906-3.905-10.236-3.905-14.143 0l-12.665 12.665c-3.905 3.905-3.905 10.237 0 14.143 1.953 1.951 4.512 2.928 7.072 2.928z"/><path d="m129.162 148.301c1.953 1.953 4.512 2.929 7.071 2.929s5.119-.976 7.071-2.929c3.905-3.905 3.905-10.237 0-14.143l-12.665-12.665c-3.905-3.905-10.237-3.905-14.143 0-3.905 3.905-3.905 10.237 0 14.142z"/><path d="m506.412 317.986c-3.422-1.682-7.501-1.273-10.52 1.056-1.127.87-2.229 1.759-3.329 2.649-6.236 5.045-10.742 8.69-20.696 8.69s-14.46-3.645-20.696-8.69c-7.237-5.854-16.244-13.141-33.275-13.141-17.03 0-26.037 7.286-33.273 13.141-6.236 5.045-10.741 8.69-20.695 8.69-9.953 0-14.458-3.645-20.693-8.69-7.237-5.854-16.243-13.141-33.274-13.141-17.03 0-26.036 7.286-33.273 13.141-6.235 5.045-10.74 8.69-20.692 8.69-9.953 0-14.458-3.645-20.694-8.69-7.236-5.854-16.243-13.141-33.273-13.141s-26.037 7.286-33.273 13.141c-6.236 5.045-10.741 8.69-20.694 8.69s-14.458-3.645-20.693-8.69c-7.236-5.854-16.242-13.141-33.272-13.141s-26.037 7.286-33.273 13.141c-6.235 5.045-10.741 8.69-20.694 8.69s-14.458-3.645-20.693-8.689c-1.1-.89-2.2-1.779-3.326-2.647-3.018-2.329-7.097-2.738-10.519-1.057-3.425 1.681-5.592 5.162-5.592 8.974v111.329c0 5.523 4.477 10 10 10h492c5.522 0 10-4.477 10-10v-111.331c0-3.812-2.167-7.292-5.588-8.974zm-466.285 32.394c17.03 0 26.037-7.286 33.273-13.141 6.235-5.044 10.741-8.689 20.694-8.689s14.458 3.645 20.693 8.689c7.236 5.855 16.242 13.141 33.272 13.141 17.031 0 26.037-7.286 33.273-13.141 6.236-5.044 10.741-8.689 20.694-8.689s14.458 3.645 20.694 8.689c7.236 5.855 16.243 13.141 33.273 13.141s26.036-7.286 33.272-13.141c6.234-5.044 10.74-8.689 20.692-8.689 9.954 0 14.459 3.645 20.695 8.689 7.236 5.855 16.242 13.141 33.272 13.141s26.037-7.286 33.273-13.141c6.236-5.044 10.741-8.689 20.695-8.689 9.955 0 14.461 3.645 20.697 8.69 7.237 5.854 16.243 13.14 33.274 13.14 8.421 0 14.879-1.781 20.133-4.29v26.745c-5.949 4.805-10.483 8.234-20.133 8.234-9.954 0-14.46-3.645-20.696-8.689-7.237-5.854-16.244-13.141-33.275-13.141-17.03 0-26.037 7.286-33.273 13.141-6.236 5.044-10.741 8.689-20.695 8.689-9.953 0-14.458-3.645-20.693-8.689-7.237-5.854-16.243-13.141-33.274-13.141-17.03 0-26.036 7.286-33.273 13.141-6.235 5.045-10.74 8.689-20.692 8.689-9.953 0-14.458-3.645-20.694-8.689-7.236-5.854-16.243-13.141-33.273-13.141s-26.037 7.286-33.273 13.141c-6.236 5.044-10.741 8.689-20.694 8.689s-14.458-3.645-20.693-8.689c-7.236-5.854-16.242-13.141-33.272-13.141s-26.037 7.286-33.273 13.141c-6.235 5.044-10.741 8.689-20.694 8.689-9.647 0-14.18-3.428-20.127-8.232v-26.745c5.253 2.509 11.71 4.288 20.128 4.288zm451.873 77.911h-472v-31.509c5.252 2.507 11.71 4.288 20.127 4.288 17.03 0 26.037-7.286 33.273-13.141 6.235-5.044 10.741-8.69 20.694-8.69s14.458 3.645 20.693 8.69c7.236 5.854 16.242 13.141 33.272 13.141 17.031 0 26.037-7.286 33.273-13.141 6.236-5.044 10.741-8.69 20.694-8.69s14.458 3.645 20.694 8.69c7.236 5.854 16.243 13.141 33.273 13.141s26.036-7.286 33.272-13.141c6.234-5.044 10.74-8.69 20.692-8.69 9.954 0 14.459 3.645 20.695 8.69 7.236 5.854 16.242 13.141 33.272 13.141s26.037-7.286 33.273-13.141c6.236-5.044 10.741-8.69 20.695-8.69 9.955 0 14.461 3.645 20.697 8.69 7.237 5.854 16.243 13.14 33.274 13.14 8.42 0 14.88-1.781 20.133-4.289v31.511z"/></g></g></svg>