<svg id="Layer_1" enable-background="new 0 0 511.979 511.979" height="512" viewBox="0 0 511.979 511.979" width="512" xmlns="http://www.w3.org/2000/svg"><g><path clip-rule="evenodd" d="m194.23 387.445 113.653-65.618-18.427-122.563-73.295 42.317z" fill="#a4fbc4" fill-rule="evenodd"/><path d="m311.285 107.949c2.23 1.707 5.095 2.391 7.835 1.896 2.763-.495 5.189-2.129 6.688-4.501l38.635-61.143c2.062-3.263 2.062-7.421 0-10.684l-18.234-28.857c-2.789-4.413-8.502-5.938-13.12-3.503l-77.099 40.671-77.1-40.671c-4.617-2.437-10.331-.91-13.119 3.503l-18.234 28.857c-2.062 3.263-2.062 7.421 0 10.684l38.635 61.143c1.499 2.373 3.926 4.006 6.688 4.501 2.74.495 5.606-.188 7.835-1.896l11.888-9.079 12.972 12.973-48.115 320.014c-.472 3.138.574 6.314 2.817 8.558l68.66 68.661c3.724 3.873 10.419 3.873 14.142 0l68.661-68.661c2.244-2.244 3.289-5.42 2.817-8.558l-48.114-320.014 12.972-12.972zm22.956-84.788 9.919 15.698-29.422 46.562-40.248-30.741zm-137 62.26-29.422-46.562 9.919-15.698 59.751 31.519zm58.749 402.44-58.021-58.021 45.514-302.72c7.917 3.621 17.097 3.621 25.014-.001l45.513 302.721zm7.07-380.94c-3.897 3.899-10.241 3.899-14.142 0l-20.299-20.3 27.37-20.905 27.37 20.904z" fill="#020288"/></g></svg>