<svg xmlns="http://www.w3.org/2000/svg" viewBox="0 0 24 24"><path d="m21.25 0h-18.5c-1.517 0-2.75 1.233-2.75 2.75v18.5c0 1.517 1.233 2.75 2.75 2.75h18.5c1.517 0 2.75-1.233 2.75-2.75v-18.5c0-1.517-1.233-2.75-2.75-2.75z" fill="#dadada"/><path d="m19.787 10.813-3.361 3.444.795 4.873c.046.283-.073.568-.309.734-.129.09-.28.136-.432.136-.125 0-.25-.031-.363-.094l-4.117-2.276-4.117 2.276c-.251.139-.561.123-.795-.043-.235-.166-.354-.451-.309-.734l.795-4.873-3.361-3.444c-.196-.201-.264-.496-.174-.762.089-.267.319-.46.598-.503l4.614-.706 2.07-4.411c.246-.526 1.111-.526 1.357 0l2.07 4.411 4.614.706c.278.042.509.236.598.503.091.267.023.561-.173.763z" fill="#ffffff"/><path d="m12 0h-9.25c-1.517 0-2.75 1.233-2.75 2.75v18.5c0 1.517 1.233 2.75 2.75 2.75h9.25v-6.37l-4.117 2.276c-.113.063-.239.094-.364.094-.152 0-.303-.046-.431-.137-.235-.166-.354-.451-.309-.734l.795-4.873-3.361-3.444c-.196-.201-.264-.496-.174-.762.089-.267.319-.46.598-.503l4.614-.706 2.07-4.411c.123-.262.401-.394.679-.394z" fill="#cdcdcd"/><path d="m12 4.036c-.278 0-.556.132-.679.395l-2.07 4.411-4.614.705c-.279.043-.509.237-.598.503-.09.267-.023.561.174.762l3.361 3.444-.795 4.873c-.046.283.073.568.309.734.128.091.28.137.431.137.125 0 .25-.031.363-.094l4.118-2.276z" fill="#f5f5f5"/></svg>