<svg id="Capa_1" enable-background="new 0 0 512 512" height="512" viewBox="0 0 512 512" width="512" xmlns="http://www.w3.org/2000/svg"><g><g><path clip-rule="evenodd" d="m174.011 313.33c-16.96 4.025-39.29 9.949-60 21.883v166.787h141.989 141.988v-166.787c-20.71-11.934-43.04-17.858-60.028-21.883v66.698l-53.807-22.563c-.085 4.677-3.949 8.504-8.665 8.504h-19.488-19.489c-4.773 0-8.665-3.912-8.665-8.645l-53.835 22.705v-58.139z" fill="#ffbdbc" fill-rule="evenodd"/></g><g fill="#020288"><path d="m419.404 337.602c-22.079-17.298-47.983-26.119-71.444-32.109v-22.569c17.767-18.168 31.532-39.952 38.529-61.81h2.664c24.218 0 43.92-19.656 43.92-43.817v-13.634c0-16.658-13.56-30.21-30.227-30.21h-11.25v-11.089c.001-67.472-60.827-122.364-135.596-122.364s-135.597 54.892-135.597 122.363v11.089h-11.25c-16.667 0-30.227 13.552-30.227 30.21v13.634c0 24.161 19.689 43.817 43.892 43.817h2.698c6.996 21.837 20.748 43.609 38.496 61.772v22.608c-23.454 5.992-49.349 14.813-71.42 32.108-31.312 24.536-47.188 60.315-47.188 106.345v58.054c0 5.523 4.478 10 10 10h401.193c5.522 0 10-4.477 10-10v-58.052c0-46.031-15.878-81.811-47.193-106.346zm-27.807-147.123v-37.026h11.25c5.543 0 10.227 4.676 10.227 10.21v13.634c0 12.532-9.773 22.827-22.128 23.743.424-3.553.651-7.08.651-10.561zm-292.67-13.182v-13.634c0-5.63 4.588-10.21 10.227-10.21h11.25v37.026c0 3.482.227 7.009.653 10.564-12.354-.903-22.13-11.204-22.13-23.746zm138.92 178.671v-29.893c6.188 1.336 12.17 2.026 18.146 2.026 5.98 0 11.968-.692 18.161-2.031v28.592c-.12.433-.207.869-.267 1.306zm-53.835 8.989v-64.476c10.578 7.95 21.983 14.568 33.835 19.345v30.861zm110.141-45.136c11.843-4.772 23.238-11.382 33.807-19.318v64.49l-33.807-14.168zm-153.75-197.458c0-56.443 51.857-102.363 115.597-102.363s115.597 45.92 115.597 102.363v10.656c-30.607-2.792-40.937-18.811-53.697-38.609-1.668-2.588-4.436-4.264-7.503-4.542-3.066-.277-6.091.872-8.196 3.119-34.799 37.108-79.391 35.259-153.273 32.19-2.803-.116-5.645-.234-8.523-.351v-2.463zm0 22.481c2.593.106 5.162.212 7.693.317 71.345 2.962 120.208 4.992 159.698-29.761 12.355 17.853 28.713 34.946 63.802 37.666v37.412c0 42.292-41.024 94.588-87.795 111.916-20.568 7.626-35.161 7.613-55.763-.052-46.685-17.375-87.636-69.648-87.636-111.863v-45.635zm306.194 347.156h-381.194v-48.052c0-77.035 47.992-103.829 98.608-117.743v53.823c0 3.351 1.679 6.479 4.471 8.333 1.664 1.104 3.591 1.667 5.53 1.667 1.315 0 2.637-.26 3.885-.786l45.148-19.042c3.4 3.546 8.174 5.768 13.466 5.768h9.489v59.618c0 5.523 4.478 10 10 10s10-4.477 10-10v-59.618h9.488c5.246 0 9.985-2.181 13.379-5.673l45.228 18.955c1.242.521 2.556.777 3.864.777 1.943 0 3.874-.566 5.539-1.674 2.787-1.854 4.462-4.979 4.462-8.326v-53.825c50.631 13.91 98.637 40.699 98.637 117.746z"/><path d="m200.943 198.409c5.522 0 10-4.477 10-10v-11.112c0-5.523-4.478-10-10-10s-10 4.477-10 10v11.112c0 5.523 4.478 10 10 10z"/><path d="m311.057 198.409c5.522 0 10-4.477 10-10v-11.112c0-5.523-4.478-10-10-10s-10 4.477-10 10v11.112c0 5.523 4.477 10 10 10z"/><path d="m231.45 260.794c7.676 6.247 15.959 9.327 24.55 9.162.22.004.438.006.657.006 8.379 0 16.413-3.082 23.893-9.168 4.284-3.486 4.931-9.784 1.445-14.068-3.486-4.285-9.787-4.931-14.068-1.445-3.996 3.251-7.848 4.777-11.656 4.676-.182-.005-.359-.005-.541 0-3.83.098-7.662-1.425-11.656-4.676-4.281-3.486-10.581-2.839-14.068 1.445-3.486 4.284-2.84 10.583 1.444 14.068z"/><path d="m200.943 435.818h-40.228c-5.522 0-10 4.477-10 10s4.478 10 10 10h40.228c5.522 0 10-4.477 10-10s-4.477-10-10-10z"/></g></g></svg>