<svg id="Layer_1" enable-background="new 0 0 512.002 512.002" height="512" viewBox="0 0 512.002 512.002" width="512" xmlns="http://www.w3.org/2000/svg"><g><path clip-rule="evenodd" d="m136.649 407.784c38.899 10.314 79.047 15.56 119.352 15.56s80.453-5.246 119.351-15.56c13.683-49.378 20.649-100.476 20.649-151.784s-6.965-102.406-20.649-151.784c-38.899-10.314-79.046-15.56-119.351-15.56s-80.453 5.246-119.352 15.56c-13.683 49.378-20.649 100.477-20.649 151.784s6.966 102.406 20.649 151.784z" fill="#a4fbc4" fill-rule="evenodd"/><g fill="#020288"><path d="m444.916 418.693c28.084-106.073 28.084-219.312 0-325.384 24.423-21.856 30.308-60.049 13.622-88.302-1.785-3.098-5.089-5.007-8.664-5.007h-.009c-25.25.021-48.782 13.521-61.528 35.266-86.399-22.123-178.272-22.124-264.671 0-12.747-21.744-36.28-35.245-61.529-35.266h-.009c-3.575 0-6.879 1.909-8.664 5.007-12.686 22.014-12.683 49.344.009 71.324 3.688 6.389 8.252 12.077 13.613 16.978-28.086 106.07-28.085 219.312 0 325.384-24.422 21.858-30.306 60.048-13.621 88.301 1.785 3.099 5.089 5.008 8.664 5.008h.009c25.25-.022 48.781-13.522 61.528-35.267 86.399 22.124 178.272 22.123 264.671 0 12.746 21.743 36.277 35.244 61.528 35.267h.009c3.575 0 6.879-1.909 8.664-5.008 12.686-22.013 12.682-49.343-.009-71.324-3.688-6.388-8.252-12.076-13.613-16.977zm-1.022 72.952c-15.96-1.897-30.346-11.236-38.472-25.312-.986-1.708-1.883-3.489-2.667-5.296-1.967-4.589-7.106-6.973-11.792-5.672-87.904 23.948-182.021 23.948-269.925 0-4.801-1.3-9.812 1.115-11.791 5.668-.788 1.815-1.686 3.598-2.667 5.299-8.128 14.076-22.513 23.416-38.473 25.313-6.337-14.771-5.441-31.898 2.686-45.975 3.496-6.055 8.077-11.231 13.614-15.387 3.285-2.464 4.729-6.686 3.643-10.646-29.368-106.516-29.369-220.76.001-327.273 1.087-3.96-.358-8.182-3.643-10.646-5.538-4.154-10.118-9.331-13.615-15.388-8.127-14.076-9.022-31.204-2.686-45.974 15.96 1.896 30.345 11.235 38.472 25.312.986 1.708 1.883 3.489 2.667 5.296 1.977 4.557 6.992 6.973 11.792 5.672 87.904-23.948 182.021-23.948 269.925 0 4.801 1.298 9.816-1.115 11.792-5.672.784-1.807 1.681-3.588 2.666-5.295 8.127-14.077 22.513-23.416 38.473-25.312 6.337 14.77 5.441 31.896-2.686 45.974-3.497 6.057-8.077 11.233-13.615 15.388-3.285 2.464-4.729 6.686-3.643 10.646 29.368 106.516 29.368 220.757 0 327.273-1.087 3.96.357 8.182 3.643 10.646 5.538 4.155 10.119 9.332 13.615 15.387 8.128 14.076 9.023 31.203 2.686 45.974z"/><path d="m327.651 211.116c-.948-3.328-3.549-5.929-6.877-6.877-10.52-2.997-21.395-3.037-31.5-.414 7.434-25.51-4.784-53.652-28.41-66.563-3.023-1.682-6.703-1.682-9.727 0-23.626 12.908-35.843 41.054-28.409 66.562-10.105-2.623-20.979-2.583-31.5.414-3.329.948-5.931 3.55-6.878 6.878-5.521 19.38-1.022 39.965 11.72 54.716-1.62.321-3.235.702-4.842 1.16-3.329.948-5.931 3.55-6.878 6.878-5.909 20.746-.342 42.871 14.529 57.742 12.329 12.368 29.867 18.306 47.121 16.552v17.836c.529 13.268 19.476 13.258 20 0v-17.836c17.254 1.754 34.791-4.184 47.121-16.552 14.872-14.871 20.439-36.997 14.529-57.742-.948-3.328-3.549-5.93-6.877-6.878-1.607-.458-3.223-.839-4.843-1.16 12.744-14.749 17.243-35.334 11.721-54.716zm-18.044 11.167c3.698 25.194-17.875 46.758-43.061 43.061-3.699-25.194 17.875-46.759 43.061-43.061zm-53.606-64.365c20.431 15.201 20.425 45.701 0 60.897-20.43-15.2-20.425-45.701 0-60.897zm-53.607 64.365c25.198-3.702 46.758 17.877 43.062 43.061-11.994 1.628-24.024-2.217-32.434-10.627-8.409-8.409-12.254-20.444-10.628-32.434zm43.062 105.816c-11.994 1.624-24.023-2.217-32.434-10.628-8.409-8.409-12.254-20.442-10.628-32.434 11.992-1.63 24.023 2.218 32.434 10.628 8.41 8.409 12.255 20.443 10.628 32.434zm53.523-10.628c-8.409 8.41-20.441 12.255-32.433 10.628-3.699-25.194 17.872-46.758 43.061-43.062 1.627 11.991-2.218 24.025-10.628 32.434z"/></g></g></svg>