<svg xmlns="http://www.w3.org/2000/svg" xmlns:xlink="http://www.w3.org/1999/xlink" x="0px" y="0px" viewBox="0 0 512.001 512.001" style="enable-background:new 0 0 512.001 512.001;" xml:space="preserve" fill="#007bff">
<g>
	<g>
		<path d="M341.484,284.906c20.484-29.352,32.5-65.055,32.5-103.57C373.984,81.188,292.797,0,192.641,0    C92.501,0,11.313,81.188,11.313,181.336s81.188,181.32,181.328,181.32c38.516,0,74.219-12,103.594-32.484l38.516,38.516    l-30.172,30.188l60.344,60.328l30.172-30.172l7.547,7.547l-30.172,30.172l45.25,45.25l30.172-30.172l7.547,7.547l45.25-45.251    L341.484,284.906z M254.923,328.766c-19.719,8.328-40.672,12.578-62.281,12.578c-21.609,0-42.562-4.25-62.266-12.578    c-19.047-8.047-36.172-19.594-50.859-34.297c-14.703-14.703-26.25-31.812-34.312-50.867    c-8.328-19.711-12.562-40.656-12.562-62.266s4.234-42.562,12.562-62.273c8.062-19.055,19.609-36.164,34.312-50.867    c14.688-14.703,31.812-26.242,50.859-34.297c19.703-8.336,40.656-12.562,62.266-12.562s42.562,4.227,62.281,12.562    c19.047,8.055,36.156,19.594,50.859,34.297s26.25,31.812,34.297,50.867c8.344,19.711,12.562,40.664,12.562,62.273    s-4.219,42.555-12.562,62.266c-8.047,19.055-19.594,36.164-34.297,50.867S273.969,320.719,254.923,328.766z M364.922,429.031    l-30.172-30.156l15.094-15.094L380,413.938L364.922,429.031z M417.719,481.828l-15.078-15.078l15.078-15.094l4.5,4.5    l10.578,10.594L417.719,481.828z M313.094,316.875c5.328-4.734,10.359-9.781,15.094-15.094l142.328,142.344l-15.078,15.078    L313.094,316.875z"/>
	</g>
</g>
<g>
	<g>
		<path d="M192.641,42.664c-76.578,0-138.656,62.086-138.656,138.672c0,5.891,4.766,10.664,10.656,10.664    s10.672-4.773,10.672-10.664c0-31.344,12.203-60.812,34.359-82.969C131.844,76.203,161.313,64,192.641,64    c5.891,0,10.672-4.773,10.672-10.664S198.532,42.664,192.641,42.664z"/>
	</g>
</g>
<g>
</g>
<g>
</g>
<g>
</g>
<g>
</g>
<g>
</g>
<g>
</g>
<g>
</g>
<g>
</g>
<g>
</g>
<g>
</g>
<g>
</g>
<g>
</g>
<g>
</g>
<g>
</g>
<g>
</g>
</svg>