<svg id="Capa_1" enable-background="new 0 0 512 512" height="512" viewBox="0 0 512 512" width="512" xmlns="http://www.w3.org/2000/svg"><g><g><path clip-rule="evenodd" d="m124.338 502h131.676 131.648v-145.244c-16.307-7.738-34.006-12.897-50.625-16.837v90.083h-162.074v-90.083c-16.619 3.94-34.318 9.099-50.625 16.837z" fill="#fff59b" fill-rule="evenodd"/></g><g fill="#020288"><path d="m404.987 354.613c-28.757-17.041-64.459-24.464-90.528-29.885-3.505-.729-6.904-1.436-10.121-2.13v-18.392c33.949-16.839 57.902-50.833 60.4-90.547h6.162c19.472 0 35.312-15.829 35.312-35.285 0-15.972-10.697-29.49-25.312-33.807v-8.513c0-52.278-33.348-99.175-82.111-117.044l1.235-7.353c.487-2.901-.328-5.87-2.228-8.116-1.9-2.246-4.693-3.541-7.634-3.541h-68.324c-2.942 0-5.734 1.295-7.634 3.541s-2.715 5.214-2.228 8.116l1.235 7.353c-48.764 17.87-82.112 64.766-82.112 117.045v8.513c-14.615 4.317-25.312 17.835-25.312 33.807 0 19.456 15.841 35.285 35.312 35.285h6.162c2.498 39.707 26.451 73.698 60.4 90.539v18.399c-3.217.695-6.616 1.401-10.121 2.13-26.069 5.42-61.771 12.844-90.528 29.884-35.16 20.834-52.987 51.845-52.987 92.17v55.218c0 5.523 4.477 10 10 10h383.949c5.522 0 10-4.477 10-10v-55.218c0-40.324-17.827-71.335-52.987-92.169zm-18.774-176.238c0 8.428-6.869 15.285-15.312 15.285h-5.938v-30.541h5.938c8.443 0 15.312 6.843 15.312 15.256zm-107.871-158.375-6.725 40.037h-31.233l-6.727-40.037zm-127.243 116.054c0-42.625 26.435-80.99 65.494-96.912l5.468 32.551c.809 4.816 4.979 8.343 9.862 8.343h48.154c4.884 0 9.053-3.527 9.862-8.343l5.468-32.551c39.058 15.922 65.493 54.287 65.493 96.912v7.064h-209.801zm-25.312 42.321c0-8.412 6.869-15.256 15.312-15.256h5.938v30.541h-5.938c-8.443-.001-15.312-6.857-15.312-15.285zm41.25 28.402v-43.659h177.926v43.659c0 48.925-39.902 88.729-88.949 88.729-49.062 0-88.977-39.803-88.977-88.729zm88.977 108.729c9.794 0 19.288-1.304 28.324-3.734v18.82c0 15.586-12.706 28.267-28.324 28.267-15.633 0-28.352-12.681-28.352-28.267v-18.826c9.044 2.434 18.547 3.74 28.352 3.74zm181.96 176.494h-363.948v-45.218c0-33.224 14.125-57.745 43.183-74.964 25.893-15.343 58.335-22.089 84.404-27.509 2.596-.54 5.133-1.068 7.596-1.59 5.402 20.764 24.338 36.141 46.805 36.141 22.454 0 41.378-15.376 46.777-36.14 2.463.522 5 1.05 7.596 1.59 26.068 5.42 58.512 12.167 84.404 27.509 29.058 17.219 43.183 41.74 43.183 74.964z"/><path d="m219.366 121.563h73.267c5.522 0 10-4.477 10-10s-4.478-10-10-10h-73.267c-5.523 0-10 4.477-10 10s4.478 10 10 10z"/></g></g></svg>