<svg id="Capa_1" enable-background="new 0 0 512 512" height="512" viewBox="0 0 512 512" width="512" xmlns="http://www.w3.org/2000/svg"><g><g><path d="m161.722 191.404c35.629 0 68.388 12.368 94.278 33.073 25.89-20.705 58.65-33.073 94.278-33.073 18.065 0 35.393 3.18 51.462 9.014 3.894-13.528 5.981-27.829 5.981-42.62.001-84.388-67.927-152.798-151.721-152.798s-151.722 68.41-151.722 152.798c0 14.792 2.087 29.093 5.981 42.62 16.069-5.834 33.397-9.014 51.463-9.014z" fill="#ffbdbc"/></g><g><path d="m350.278 181.404c-35.151 0-67.719 11.348-94.278 30.596-26.559-19.248-59.127-30.596-94.278-30.596-89.174 0-161.722 73.032-161.722 162.798s72.548 162.798 161.722 162.798c35.151 0 67.719-11.348 94.278-30.596 26.559 19.248 59.127 30.596 94.278 30.596 89.174 0 161.722-73.031 161.722-162.798s-72.548-162.798-161.722-162.798zm0 20c13.472 0 26.511 1.904 38.866 5.459-13.451 37.257-40.979 66.207-75.481 81.558-8.825-24.285-23.242-45.881-41.672-63.201 22.445-15.043 49.368-23.816 78.287-23.816zm-46.835 142.798c0 42.298-18.347 80.36-47.443 106.53-29.096-26.171-47.443-64.232-47.443-106.53 0-10.204 1.068-20.162 3.097-29.766 14.259 4.074 29.136 6.159 44.346 6.159 15.206 0 30.084-2.086 44.346-6.162 2.029 9.605 3.097 19.564 3.097 29.769zm-47.443-43.606c-13.326 0-26.362-1.924-38.795-5.537 8.114-22.237 21.571-41.895 38.795-57.386 17.267 15.531 30.749 35.25 38.857 57.557-12.392 3.509-25.435 5.366-38.857 5.366zm-15.991-75.376c-18.356 17.251-32.731 38.743-41.565 62.908-34.416-15.552-62.243-44.616-75.578-81.268 12.352-3.553 25.388-5.456 38.857-5.456 28.918 0 55.841 8.773 78.286 23.816zm-78.287 261.78c-78.146 0-141.722-64.059-141.722-142.798 0-58.075 34.585-108.163 84.092-130.454 10.63 29.128 29.696 55.123 54.412 73.949 10.672 8.129 22.124 14.81 34.156 19.978-2.685 11.746-4.104 23.973-4.104 36.527 0 46.908 19.811 89.246 51.452 118.982-22.444 15.043-49.367 23.816-78.286 23.816zm188.556 0c-28.919 0-55.842-8.773-78.287-23.816 31.641-29.736 51.452-72.074 51.452-118.982 0-12.555-1.42-24.783-4.105-36.53 11.888-5.106 23.209-11.688 33.771-19.683 24.891-18.842 44.117-44.964 54.799-74.24 49.507 22.291 84.092 72.379 84.092 130.453 0 78.739-63.576 142.798-141.722 142.798z" fill="#020288"/></g></g></svg>