<svg enable-background="new 0 0 512 512" height="512" viewBox="0 0 512 512" width="512" xmlns="http://www.w3.org/2000/svg"><g><path d="m512 256c0-26.132-3.926-51.345-11.202-75.093l-53.494-94.998c-46.89-52.7-115.214-85.909-191.304-85.909l-128 269.709 128 242.291c141.385 0 256-114.616 256-256z" fill="#4175df"/><path d="m256 0c-141.385 0-256 114.615-256 256 0 26.132 3.926 51.344 11.202 75.093l53.494 94.998c46.89 52.7 115.214 85.909 191.304 85.909z" fill="#4086f4"/><path d="m134.024 208.27-122.822 122.823c10.904 35.591 29.36 67.874 53.494 94.998l164.787-164.788z" fill="#bfd7fb"/><path d="m447.304 85.909-143.574 143.575-42.426-42.426c-1.706-1.706-3.48-3.302-5.303-4.809l-36.876 36.876 36.875 110.627c29.434 24.324 73.226 22.728 100.763-4.809l144.036-144.036c-10.905-35.59-29.361-67.873-53.495-94.998z" fill="#e3e7ea"/><path d="m256 182.248c-29.434-24.324-73.226-22.728-100.763 4.809l-21.213 21.213 116.673 116.673c1.706 1.706 3.48 3.302 5.303 4.809z" fill="#f1f3f4"/></g></svg>